<svg xmlns="http://www.w3.org/2000/svg" width="88" height="88" viewBox="0 0 88 88">
  <g fill="#5B96FC">
    <path d="M45.3791813 58.5524211L42.4515088 58.5524211C41.6420117 58.5524211 40.9877583 59.2082183 40.9877583 60.0161715 40.9877583 60.8241248 41.6420117 61.479922 42.4515088 61.479922L45.3791813 61.479922C46.1871345 61.479922 46.8429318 60.8241248 46.8429318 60.0161715 46.8429318 59.2082183 46.187306 58.5524211 45.3791813 58.5524211zM39.5240078 40.986729L33.6688343 40.986729C32.8593372 40.986729 32.2050838 41.6425263 32.2050838 42.4504795 32.2050838 43.2584327 32.8593372 43.91423 33.6688343 43.91423L35.1325848 43.91423C35.1325848 44.7221832 35.7868382 45.3779805 36.5963353 45.3779805 37.4042885 45.3779805 38.0600858 44.7221832 38.0600858 43.91423L39.5238363 43.91423C40.3317895 43.91423 40.9875867 43.2584327 40.9875867 42.4504795 40.9877583 41.6423548 40.331961 40.986729 39.5240078 40.986729z"/>
    <path d="M43.9154308 53.9150097C42.3477271 53.0615984 41.0009669 52.9253957 39.9031111 53.5124055 38.1113762 54.46977 38.0602573 56.8234698 38.0602573 57.0710019 38.0557973 57.2421988 37.9928421 57.4911033 38.0485926 57.4969357 38.0485926 57.4998519 37.8231891 57.5276413 37.2507602 57.2421988 36.5275478 56.8792203 35.646347 57.1747836 35.2862846 57.8979961 34.9246784 58.6212086 35.2174971 59.4994932 35.940538 59.8624717 37.6912749 60.7362963 38.8550019 60.4288967 39.5210916 60.0161715 40.9453879 59.1349708 40.9877583 57.2950331 40.9877583 57.1003353 40.9951345 56.6714854 41.1634152 56.1606394 41.2848655 56.0932242 41.2848655 56.0887641 41.7562573 55.9453567 43.102846 56.8426823 43.5946511 57.1704951 44.2343236 57.1704951 44.7261287 56.8426823 46.071345 55.9453567 46.5398207 56.0887641 46.545653 56.0932242 46.6671033 56.1606394 46.8355556 56.6714854 46.8427602 57.0886706 46.8427602 57.2950331 46.8837583 59.1351423 48.3094269 60.0163431 48.6622846 60.2343704 49.1540897 60.4232359 49.7980507 60.4232359 50.3704795 60.4232359 51.0641871 60.2739961 51.8884366 59.8626433 52.6114776 59.4996647 52.9042963 58.6213801 52.5426901 57.8981676 52.1826277 57.1751267 51.3057154 56.8793918 50.5782144 57.2423704 50.1419883 57.4619415 49.9078363 57.494191 49.8711267 57.5278129 49.8213801 57.429692 49.7730058 57.2233294 49.7700897 57.0886706 49.7700897 56.8236413 49.7187992 54.4699415 47.925692 53.512577 46.8298947 52.9240234 45.4831345 53.0600546 43.9154308 53.9150097zM31.4671189 10.0724834C32.1901598 10.4340897 33.0699883 10.1383548 33.4300507 9.41668616 35.4281481 5.41465887 39.4463002 2.92767251 43.9152593 2.92767251 48.4090916 2.92767251 52.4375361 5.43232749 54.4239688 9.46643275 54.680078 9.98311111 55.1998441 10.2817622 55.7400234 10.2817622 55.9566784 10.2817622 56.1776218 10.2333879 56.3855283 10.1309786 57.1101131 9.77383236 57.4087641 8.89692008 57.0516179 8.17096296 54.5660039 3.13111891 49.5335361 0 43.9154308 0 38.3280312 0 33.3086004 3.10761793 30.8114932 8.10955166 30.4483431 8.83259259 30.744078 9.71087719 31.4671189 10.0724834z"/>
    <path d="M58.5534503 5.85534503C63.3956803 5.85534503 67.3362963 9.79441715 67.3362963 14.638191 67.3362963 18.0020897 65.3659883 21.1126238 62.4208187 22.5192515 62.3213255 22.5573333 52.3292943 26.348538 43.9154308 26.348538 35.7738012 26.348538 31.6033216 23.6991033 31.5461988 23.6639376 30.8742768 23.2174191 29.9682027 23.4004522 29.5232281 24.0723743 29.0737934 24.7456686 29.2568265 25.6548304 29.9287485 26.1027212 30.1234464 26.2315478 34.7944795 29.2762105 43.9154308 29.2762105 52.8665575 29.2762105 63.0385341 25.4162183 63.5728811 25.206768 67.6378635 23.2745419 70.2639688 19.1260195 70.2639688 14.6380195 70.2639688 8.18108382 65.010386 2.92750097 58.5534503 2.92750097 57.7439532 2.92750097 57.0896998 3.58329825 57.0896998 4.39125146 57.0896998 5.19954776 57.7439532 5.85534503 58.5534503 5.85534503zM24.8859883 38.0590565C25.6939415 38.0590565 26.3497388 37.4032593 26.3497388 36.595306 26.3497388 35.7873528 25.6939415 35.1315556 24.8859883 35.1315556 21.6641248 35.1315556 20.4945653 37.7576608 20.4945653 39.5229786L20.4945653 42.4506511C20.4945653 44.4267914 21.8061598 46.1029084 23.6050994 46.6518363 24.0749474 49.4594308 25.528577 57.0317193 28.0594776 60.8287563 28.2366784 61.093614 28.4210838 61.393809 28.6186979 61.7157895 30.4660117 64.703501 33.9000702 70.2629396 43.9154308 70.2629396 53.9294191 70.2629396 57.3634776 64.7033294 59.2107914 61.7157895 59.4099493 61.393809 59.5943548 61.093614 59.771384 60.8287563 62.3009123 57.0317193 63.7543704 49.4594308 64.2257622 46.6518363 66.0233294 46.1029084 67.3362963 44.4267914 67.3362963 42.4506511L67.3362963 39.522807C67.3362963 37.7574893 66.1667368 35.131384 62.9448733 35.131384 62.1353762 35.131384 61.4811228 35.7871813 61.4811228 36.5951345 61.4811228 37.4030877 62.1353762 38.058885 62.9448733 38.058885 64.121809 38.058885 64.3911267 38.863922 64.4086238 39.5226355L64.4086238 42.450308C64.4086238 43.2568889 63.7499103 43.9140585 62.9448733 43.9140585 62.2158285 43.9140585 61.5981131 44.4497778 61.4941598 45.1700741 61.4809513 45.2695673 60.0465341 55.1356881 57.3355166 59.2035867 57.1408187 59.4964055 56.9373723 59.822846 56.7191735 60.177076 54.9596881 63.0270409 52.2970448 67.3350955 43.9152593 67.3350955 35.5321014 67.3350955 32.8708304 63.0270409 31.111345 60.177076 30.8917739 59.822846 30.6896998 59.4964055 30.4950019 59.2035867 27.7869006 55.1415205 26.3495673 45.2695673 26.3348148 45.1700741 26.2324055 44.4499493 25.6146901 43.9140585 24.8856452 43.9140585 24.0790643 43.9140585 23.4218947 43.2568889 23.4218947 42.450308L23.4218947 39.5403041C23.438191 38.8640936 23.7075088 38.0590565 24.8859883 38.0590565z"/>
    <path d="M49.7706043 43.91423C49.7706043 44.7221832 50.4248577 45.3779805 51.2343548 45.3779805 52.042308 45.3779805 52.6981053 44.7221832 52.6981053 43.91423L54.1618558 43.91423C54.969809 43.91423 55.6256062 43.2584327 55.6256062 42.4504795 55.6256062 41.6425263 54.969809 40.986729 54.1618558 40.986729L48.3066823 40.986729C47.4971852 40.986729 46.8429318 41.6425263 46.8429318 42.4504795 46.8429318 43.2584327 47.4971852 43.91423 48.3066823 43.91423L49.7706043 43.91423zM23.4220663 24.7676257L23.4220663 32.2037115C23.4220663 32.5915634 23.5757661 32.9648343 23.8509162 33.2386121 28.6711891 38.058885 36.4206784 38.058885 43.9152593 38.058885 51.4098402 38.058885 59.1593294 38.058885 63.9796023 33.2386121 64.2533801 32.9648343 64.4084522 32.5915634 64.4084522 32.2037115L64.4084522 29.4590721C64.4084522 28.6511189 63.752655 27.9953216 62.9447018 27.9953216 62.1352047 27.9953216 61.4809513 28.6511189 61.4809513 29.4590721L61.4809513 31.5727875C57.4672593 35.131384 50.8772086 35.131384 43.9152593 35.131384 36.9533099 35.131384 30.3632593 35.131384 26.3495673 31.5727875L26.3495673 23.8848811C26.3495673 23.3213723 26.0231267 22.8060663 25.5138246 22.564538 22.4633294 21.1124522 20.4943938 18.0019181 20.4943938 14.6380195 20.4943938 9.79424561 24.4334659 5.85517349 29.2772398 5.85517349 30.085193 5.85517349 30.7409903 5.19937622 30.7409903 4.391423 30.7409903 3.58346979 30.085193 2.92767251 29.2772398 2.92767251 22.8203041 2.92767251 17.5667212 8.18125536 17.5667212 14.638191 17.5668928 18.8098713 19.8358519 22.689076 23.4220663 24.7676257zM51.2768967 84.9009591L51.2623158 84.9009591C50.4543626 84.9009591 49.8073138 85.5567563 49.8073138 86.3647096 49.8073138 87.1726628 50.4689435 87.82846 51.2768967 87.82846 52.0863938 87.82846 52.7406472 87.1726628 52.7406472 86.3647096 52.7406472 85.5565848 52.0863938 84.9009591 51.2768967 84.9009591z"/>
    <path d="M87.7550409,85.9020663 L86.119922,80.9865887 C84.5667992,76.1808967 82.6258246,73.2254347 63.2903548,73.190269 C62.0930058,72.5929669 57.7439532,70.4162963 57.7439532,70.4162963 C57.2960624,70.193809 56.7661754,70.2142222 56.337154,70.4705029 C56.2654503,70.5128733 49.2889201,74.6540195 43.9152593,74.6540195 C38.5415984,74.6540195 31.5636959,70.5128733 31.4919922,70.4705029 C31.0645146,70.2143938 30.5346277,70.1953528 30.085193,70.4162963 L24.5387914,73.1916413 C5.20503704,73.2256062 3.26251852,76.1808967 1.71093957,80.9865887 L0.0744483431,85.9020663 C-0.178744639,86.6690214 0.235524366,87.4975595 1.00110721,87.7538402 C1.7711501,88.0114932 2.59814425,87.594308 2.85425341,86.8271813 L4.496577,81.8868304 C5.5388538,78.6649669 6.35847173,76.1194854 24.8712359,76.1194854 L24.8858168,76.1194854 C25.1127641,76.1194854 25.3366238,76.0668226 25.5400702,75.9657856 L30.6941598,73.3865107 C32.7361715,74.5150721 38.7539649,77.5818635 43.9152593,77.5818635 C49.0751813,77.5818635 55.0929747,74.5152437 57.1349864,73.3865107 C60.9145263,75.2763665 62.2758674,75.9452008 62.9448733,76.0740273 L62.9448733,76.1179415 C81.4693021,76.1179415 82.2906355,78.663423 83.3327407,81.8868304 L84.9750643,86.8271813 C85.1814269,87.4406082 85.7523119,87.82846 86.3657388,87.82846 C86.5180663,87.82846 86.6746823,87.8049591 86.8283821,87.7538402 C87.5955088,87.497731 88.0097778,86.669193 87.7550409,85.9020663 Z"/>
    <path d="M51.2768967 79.045614L51.2623158 79.045614C50.4543626 79.045614 49.8073138 79.7014113 49.8073138 80.5093645 49.8073138 81.3173177 50.4689435 81.973115 51.2768967 81.973115 52.0863938 81.973115 52.7406472 81.3173177 52.7406472 80.5093645 52.7406472 79.7014113 52.0863938 79.045614 51.2768967 79.045614zM36.6388772 79.045614L36.6242963 79.045614C35.8163431 79.045614 35.1692943 79.7014113 35.1692943 80.5093645 35.1692943 81.3173177 35.830924 81.973115 36.6390487 81.973115 37.4485458 81.973115 38.1027992 81.3173177 38.1027992 80.5093645 38.1027992 79.7014113 37.4483743 79.045614 36.6388772 79.045614zM36.6388772 84.9009591L36.6242963 84.9009591C35.8163431 84.9009591 35.1692943 85.5567563 35.1692943 86.3647096 35.1692943 87.1726628 35.830924 87.82846 36.6390487 87.82846 37.4485458 87.82846 38.1027992 87.1726628 38.1027992 86.3647096 38.1026277 85.5565848 37.4483743 84.9009591 36.6388772 84.9009591z"/>
  </g>
</svg>
