<svg xmlns="http://www.w3.org/2000/svg" width="88" height="88" viewBox="0 0 88 88">
  <g fill="#5B96FC">
    <path d="M64.3240546 74.1653021C64.1161481 73.5812086 63.5643041 73.1904405 62.9436725 73.1904405L60.9207018 73.1904405 59.8623002 71.0722651C59.3660351 70.0797349 57.7382924 70.0797349 57.2420273 71.0722651L56.1836257 73.1904405 54.160655 73.1904405C53.5268148 73.1904405 52.9646784 73.5988772 52.7686082 74.2020117 52.572538 74.8051462 52.7876491 75.4667758 53.300039 75.8385029L54.9746121 77.0548928 54.2865653 78.9739103C54.0889513 79.5257544 54.2397349 80.1405536 54.6685848 80.5402417 54.9437349 80.7963509 55.302425 80.9310097 55.6640312 80.9310097 55.8661053 80.9310097 56.0666355 80.8900117 56.2584172 80.8050994L58.6078285 79.7643665 60.9104094 80.8021832C61.4432125 81.0421676 62.0653879 80.9413021 62.497154 80.5503626 62.9275478 80.1566784 63.0855361 79.5461676 62.8968421 78.9943236L62.2497934 77.1001793 63.8643275 75.791501C64.3460117 75.4022768 64.5305887 74.7493957 64.3240546 74.1653021zM59.0792203 76.7737388C58.9284366 76.7239922 58.7702768 76.697575 58.6122885 76.697575 58.4615049 76.697575 58.3093489 76.721076 58.1643977 76.7679064 58.2228928 76.4327173 58.1628538 76.090152 58.0004055 75.8002495 58.1628538 75.6685068 58.3004288 75.5031423 58.3985497 75.3084444L58.5522495 74.999501 58.7059493 75.3084444C58.8318596 75.5587212 59.0220975 75.7607953 59.2504172 75.9012865 59.1056374 76.1663158 59.0442261 76.4707992 59.0792203 76.7737388zM67.3350955 65.871345C67.3350955 65.0633918 66.6792982 64.4075945 65.871345 64.4075945L21.957115 64.4075945C21.1491618 64.4075945 20.4933645 65.0633918 20.4933645 65.871345 20.4933645 66.6792982 21.1491618 67.3350955 21.957115 67.3350955L65.871345 67.3350955C66.6792982 67.3350955 67.3350955 66.6792982 67.3350955 65.871345zM73.1904405 45.3779805L73.1904405 36.5951345C73.1904405 35.7871813 72.5346433 35.131384 71.7266901 35.131384L57.088499 35.131384C56.2805458 35.131384 55.6247485 35.7871813 55.6247485 36.5951345L55.6247485 45.3779805C55.6247485 46.1859337 56.2805458 46.841731 57.088499 46.841731L71.7265185 46.841731C72.5346433 46.8419025 73.1904405 46.1861053 73.1904405 45.3779805zM70.262768 43.91423L58.5522495 43.91423 58.5522495 38.0590565 70.262768 38.0590565 70.262768 43.91423z"/>
    <path d="M82.1957739 73.1904405L87.635306 63.6698012C87.8943314 63.2174503 87.8929591 62.6597739 87.630846 62.2089669 87.3689045 61.7581598 86.885848 61.479922 86.3647096 61.479922L71.7266901 61.479922C70.9187368 61.479922 70.2629396 62.1357193 70.2629396 62.9436725L70.2629396 84.9007875 17.565692 84.9007875 17.565692 62.9436725C17.565692 62.1357193 16.9098947 61.479922 16.1019415 61.479922L1.46375049 61.479922C.942612086 61.479922.459555556 61.7579883.197614035 62.2089669-.0643274854 62.6597739-.065871345 63.2174503.193153996 63.6698012L5.63268616 73.1904405.193153996 82.7110799C-.065871345 83.1634308-.0644990253 83.7211072.197614035 84.1719142.459555556 84.6227212.942783626 84.9009591 1.46375049 84.9009591L10.2465965 84.9009591C11.0545497 84.9009591 11.710347 84.2451618 11.710347 83.4372086 11.710347 82.6292554 11.0545497 81.9734581 10.2465965 81.9734581L3.98590253 81.9734581 8.58952047 73.9167407C8.84717349 73.4659337 8.84717349 72.915462 8.58952047 72.464655L3.98590253 64.4079376 14.6380195 64.4079376 14.6380195 86.3650526C14.6380195 87.1730058 15.2938168 87.8288031 16.10177 87.8288031L71.7265185 87.8288031C72.5344717 87.8288031 73.190269 87.1730058 73.190269 86.3650526L73.190269 64.4079376 83.842386 64.4079376 79.238768 72.464655C78.981115 72.915462 78.981115 73.4659337 79.238768 73.9167407L83.842386 81.9734581 77.581692 81.9734581C76.7737388 81.9734581 76.1179415 82.6292554 76.1179415 83.4372086 76.1179415 84.2451618 76.7737388 84.9009591 77.581692 84.9009591L86.364538 84.9009591C86.8856764 84.9009591 87.3687329 84.6228928 87.6306745 84.1719142 87.892616 83.7211072 87.8941598 83.1632593 87.6351345 82.7110799L82.1957739 73.1904405zM8.782846 8.782846C8.782846 10.3973801 10.0958129 11.7105185 11.7105185 11.7105185 13.3250526 11.7105185 14.638191 10.3975517 14.638191 8.782846 14.638191 7.16831189 13.3252242 5.85517349 11.7105185 5.85517349 10.0958129 5.85517349 8.782846 7.16831189 8.782846 8.782846z"/>
    <path d="M1.46375049,17.565692 L80.5093645,17.565692 C81.3173177,17.565692 81.973115,16.9098947 81.973115,16.1019415 C81.973115,15.2939883 81.3173177,14.638191 80.5093645,14.638191 L2.92767251,14.638191 L2.92767251,7.31909552 C2.92767251,4.89798051 4.89798051,2.92767251 7.31909552,2.92767251 L80.5095361,2.92767251 C82.9306511,2.92767251 84.9009591,4.89798051 84.9009591,7.31909552 L84.9009591,57.088499 C84.9009591,57.8964522 85.5567563,58.5522495 86.3647096,58.5522495 C87.1726628,58.5522495 87.82846,57.8964522 87.82846,57.088499 L87.82846,7.31909552 C87.82846,3.28327485 84.5451852,0 80.5093645,0 L7.31909552,0 C3.28327485,0 0,3.28327485 0,7.31909552 L0,16.1019415 C0,16.9098947 0.655797271,17.565692 1.46375049,17.565692 Z"/>
    <path d="M26.348538 8.782846C26.348538 10.3973801 27.6615049 11.7105185 29.2762105 11.7105185 30.8907446 11.7105185 32.203883 10.3975517 32.203883 8.782846 32.203883 7.16831189 30.8909162 5.85517349 29.2762105 5.85517349 27.6615049 5.85517349 26.348538 7.16831189 26.348538 8.782846zM17.565692 8.782846C17.565692 10.3973801 18.8786589 11.7105185 20.4933645 11.7105185 22.1080702 11.7105185 23.421037 10.3975517 23.421037 8.782846 23.421037 7.16831189 22.1080702 5.85517349 20.4933645 5.85517349 18.8786589 5.85517349 17.565692 7.16831189 17.565692 8.782846zM1.46375049 58.5522495C2.2717037 58.5522495 2.92750097 57.8964522 2.92750097 57.088499L2.92750097 21.957115C2.92750097 21.1491618 2.2717037 20.4933645 1.46375049 20.4933645.655797271 20.4933645 0 21.1491618 0 21.957115L0 57.088499C0 57.8964522.655797271 58.5522495 1.46375049 58.5522495zM49.6860351 74.1653021C49.4781287 73.5812086 48.9262846 73.1904405 48.305653 73.1904405L46.2826823 73.1904405 45.2242807 71.0722651C44.7280156 70.0797349 43.1002729 70.0797349 42.6040078 71.0722651L41.5456062 73.1904405 39.522807 73.1904405C38.8889669 73.1904405 38.3268304 73.5988772 38.1307602 74.2020117 37.9346901 74.8051462 38.1498012 75.4667758 38.662191 75.8385029L40.3367641 77.0548928 39.6487173 78.9739103C39.4511033 79.5257544 39.6018869 80.1405536 40.0307368 80.5402417 40.3058869 80.7963509 40.664577 80.9310097 41.0261832 80.9310097 41.2282573 80.9310097 41.4287875 80.8900117 41.6205692 80.8050994L43.9699805 79.7643665 46.2725614 80.8021832C46.8039922 81.0421676 47.42754 80.9413021 47.859306 80.5503626 48.2896998 80.1566784 48.4476881 79.5461676 48.2589942 78.9943236L47.6119454 77.1001793 49.2264795 75.791501C49.7079922 75.4022768 49.8923977 74.7493957 49.6860351 74.1653021zM44.4412008 76.7737388C44.2904172 76.7239922 44.1322573 76.697575 43.974269 76.697575 43.8234854 76.697575 43.6713294 76.721076 43.5263782 76.7679064 43.5848733 76.4327173 43.5248343 76.090152 43.362386 75.8002495 43.5248343 75.6685068 43.6624094 75.5031423 43.7605302 75.3084444L43.91423 74.999501 44.0679298 75.3084444C44.1938402 75.5587212 44.384078 75.7607953 44.6123977 75.9012865 44.4676179 76.1663158 44.4060351 76.4707992 44.4412008 76.7737388zM65.871345 26.348538C66.6792982 26.348538 67.3350955 25.6927407 67.3350955 24.8847875 67.3350955 24.0768343 66.6792982 23.421037 65.871345 23.421037L60.0161715 23.421037C59.2082183 23.421037 58.5524211 24.0768343 58.5524211 24.8847875 58.5524211 25.6927407 59.2082183 26.348538 60.0161715 26.348538L65.871345 26.348538zM35.131384 36.5951345L35.131384 45.3779805C35.131384 46.1859337 35.7871813 46.841731 36.5951345 46.841731L51.233154 46.841731C52.0411072 46.841731 52.6969045 46.1859337 52.6969045 45.3779805L52.6969045 36.5951345C52.6969045 35.7871813 52.0411072 35.131384 51.233154 35.131384L36.5951345 35.131384C35.7871813 35.131384 35.131384 35.7871813 35.131384 36.5951345zM38.0590565 38.0590565L49.769575 38.0590565 49.769575 43.91423 38.0590565 43.91423 38.0590565 38.0590565 38.0590565 38.0590565zM54.1608265 26.348538C54.9687797 26.348538 55.624577 25.6927407 55.624577 24.8847875 55.624577 24.0768343 54.9687797 23.421037 54.1608265 23.421037L48.305653 23.421037C47.4976998 23.421037 46.8419025 24.0768343 46.8419025 24.8847875 46.8419025 25.6927407 47.4976998 26.348538 48.305653 26.348538L54.1608265 26.348538zM71.7265185 51.2333255C71.7265185 50.4253723 71.0707212 49.769575 70.262768 49.769575L58.5522495 49.769575C57.7442963 49.769575 57.088499 50.4253723 57.088499 51.2333255 57.088499 52.0412788 57.7442963 52.697076 58.5522495 52.697076L70.262768 52.697076C71.0707212 52.697076 71.7265185 52.0412788 71.7265185 51.2333255zM38.0590565 49.7694035C37.2511033 49.7694035 36.595306 50.4252008 36.595306 51.233154 36.595306 52.0411072 37.2511033 52.6969045 38.0590565 52.6969045L49.769575 52.6969045C50.5775283 52.6969045 51.2333255 52.0411072 51.2333255 51.233154 51.2333255 50.4252008 50.5775283 49.7694035 49.769575 49.7694035L38.0590565 49.7694035zM16.1019415 46.8419025L30.739961 46.8419025C31.5479142 46.8419025 32.2037115 46.1861053 32.2037115 45.378152L32.2037115 36.595306C32.2037115 35.7873528 31.5479142 35.1315556 30.739961 35.1315556L16.1019415 35.1315556C15.2939883 35.1315556 14.638191 35.7873528 14.638191 36.595306L14.638191 45.378152C14.6380195 46.1861053 15.2938168 46.8419025 16.1019415 46.8419025zM17.565692 38.0590565L29.2762105 38.0590565 29.2762105 43.91423 17.565692 43.91423 17.565692 38.0590565zM35.0480156 74.1653021C34.8401092 73.5812086 34.2882651 73.1904405 33.6676335 73.1904405L31.6446628 73.1904405 30.5862612 71.0722651C30.0899961 70.0797349 28.4622534 70.0797349 27.9659883 71.0722651L26.9075867 73.1904405 24.884616 73.1904405C24.2507758 73.1904405 23.6886394 73.5988772 23.4925692 74.2020117 23.296499 74.8051462 23.5116101 75.4667758 24.024 75.8385029L25.6985731 77.0548928 25.0105263 78.9739103C24.8129123 79.5257544 24.9636959 80.1405536 25.3925458 80.5402417 25.6676959 80.7963509 26.026386 80.9310097 26.3879922 80.9310097 26.5900663 80.9310097 26.7905965 80.8900117 26.9823782 80.8050994L29.3317895 79.7643665 31.6343704 80.8021832C32.1658012 81.0421676 32.7878051 80.9413021 33.221115 80.5503626 33.6515088 80.1566784 33.8094971 79.5461676 33.6208031 78.9943236L32.9737544 77.1001793 34.5882885 75.791501C35.0699727 75.4022768 35.2543782 74.7493957 35.0480156 74.1653021zM29.8031813 76.7737388C29.6523977 76.7239922 29.4942378 76.697575 29.3362495 76.697575 29.1854659 76.697575 29.0333099 76.721076 28.8883587 76.7679064 28.9468538 76.4327173 28.8868148 76.090152 28.7243665 75.8002495 28.8868148 75.6685068 29.0243899 75.5031423 29.1225107 75.3084444L29.2762105 74.999501 29.4299103 75.3084444C29.5558207 75.5587212 29.7460585 75.7607953 29.9743782 75.9012865 29.8294269 76.1663158 29.7680156 76.4707992 29.8031813 76.7737388zM17.565692 52.697076L29.2762105 52.697076C30.0841637 52.697076 30.739961 52.0412788 30.739961 51.2333255 30.739961 50.4253723 30.0841637 49.769575 29.2762105 49.769575L17.565692 49.769575C16.7577388 49.769575 16.1019415 50.4253723 16.1019415 51.2333255 16.1019415 52.0412788 16.7577388 52.697076 17.565692 52.697076zM79.045614 24.8847875C79.045614 24.0768343 78.3898168 23.421037 77.5818635 23.421037L71.7266901 23.421037C70.9187368 23.421037 70.2629396 24.0768343 70.2629396 24.8847875 70.2629396 25.6927407 70.9187368 26.348538 71.7266901 26.348538L77.5818635 26.348538C78.3898168 26.348538 79.045614 25.6927407 79.045614 24.8847875zM23.4208655 24.8847875C23.4208655 24.0768343 22.7650682 23.421037 21.957115 23.421037L10.2465965 23.421037C9.43864327 23.421037 8.782846 24.0768343 8.782846 24.8847875 8.782846 25.6927407 9.43864327 26.348538 10.2465965 26.348538L21.957115 26.348538C22.7650682 26.348538 23.4208655 25.6927407 23.4208655 24.8847875z"/>
  </g>
</svg>
