<svg xmlns="http://www.w3.org/2000/svg" width="12" height="12" viewBox="0 0 12 12">
  <path fill="#5B96FC" fill-rule="evenodd" d="M26.8,380.2 C26.8,380.5312 26.5312,380.8 26.2,380.8 L17.8,380.8 C17.4688,380.8 17.2,380.5312 17.2,380.2 L17.2,374.2 C17.2,373.8688 17.4688,373.6 17.8,373.6 L26.2,373.6 C26.5312,373.6 26.8,373.8688 26.8,374.2 L26.8,380.2 Z M26.8,371.2 L26.8,370.6 C26.8,370.2688 26.5312,370 26.2,370 C25.8688,370 25.6,370.2688 25.6,370.6 L25.6,371.2 L22.6,371.2 L22.6,370.6 C22.6,370.2688 22.3312,370 22,370 C21.6688,370 21.4,370.2688 21.4,370.6 L21.4,371.2 L18.4,371.2 L18.4,370.6 C18.4,370.2688 18.1312,370 17.8,370 C17.4688,370 17.2,370.2688 17.2,370.6 L17.2,371.2 C16.537,371.2 16,371.737 16,372.4 L16,380.8 C16,381.4624 16.537,382 17.2,382 L26.8,382 C27.463,382 28,381.4624 28,380.8 L28,372.4 C28,371.737 27.463,371.2 26.8,371.2 L26.8,371.2 Z" transform="translate(-16 -370)"/>
</svg>
