<svg xmlns="http://www.w3.org/2000/svg" width="20" height="20" viewBox="0 0 20 20">
  <path fill="#424242" fill-rule="evenodd" d="M201.995297,332.01 C201.995297,330.906 201.097297,330.008 199.993297,330.008 C199.214297,330.003 200.042297,330.006 194.984297,330 C194.432297,330 193.974297,330.439 193.975297,330.991 C193.975297,331.543 194.404297,331.973 194.956297,331.973 L197.358297,331.997 C197.804297,331.997 198.014297,332.523 197.699297,332.838 L194.068297,336.469 C193.678297,336.86 193.678297,337.493 194.068297,337.883 C194.459297,338.274 195.092297,338.274 195.483297,337.883 L199.115297,334.251 C199.430297,333.936 199.981297,334.172 199.981297,334.617 L199.986297,337.003 C199.986297,337.555 200.455297,338.024 201.008297,338.024 C201.560297,338.024 202.000297,337.568 202.000297,337.016 L201.995297,332.01 Z M196.116297,345.578 C195.421297,345.204 194.718297,344.778 193.991297,344.481 C192.587297,343.908 192.682297,345.602 191.678297,346.151 C191.026297,346.508 190.107297,345.861 189.538297,345.503 C188.544297,344.877 187.663297,344.053 186.930297,343.1 C186.556297,342.613 185.727297,341.697 185.829297,341.014 C185.991297,339.93 187.274297,339.876 186.907297,338.55 C186.711297,337.84 186.360297,337.141 186.097297,336.457 C185.744297,335.54 185.600297,334.953 184.572297,335.003 C183.831297,335.039 183.338297,335.356 182.882297,335.951 C181.649297,337.558 181.835297,339.725 182.664297,341.488 C183.837297,343.983 185.849297,346.335 187.999297,347.855 C189.461297,348.889 191.387297,349.828 193.157297,349.987 C194.453297,350.104 196.266297,349.403 196.730297,347.996 C196.697297,348.094 196.666297,348.189 196.651297,348.234 C196.663297,348.199 196.686297,348.128 196.730297,347.996 C196.776297,347.854 196.800297,347.783 196.810297,347.751 C196.797297,347.793 196.764297,347.891 196.731297,347.993 C197.139297,346.752 197.188297,346.155 196.116297,345.578 L196.116297,345.578 Z M196.651297,348.234 C196.641297,348.265 196.639297,348.27 196.651297,348.234 L196.651297,348.234 Z M196.810297,347.751 C196.818297,347.727 196.819297,347.725 196.810297,347.751 L196.810297,347.751 Z" transform="translate(-182 -330)"/>
</svg>
