<svg xmlns="http://www.w3.org/2000/svg" width="14" height="16" viewBox="0 0 14 16">
  <path fill="#5B96FC" fill-rule="evenodd" d="M47.125,322.222222 L47.125,325.777778 L52.375,325.777778 L52.375,324 L48.875,324 L48.875,322.222222 L47.125,322.222222 Z M53.25,324.888889 C53.25,327.555556 50.8945,330.222222 48,330.222222 C45.1055,330.222222 42.75,327.829333 42.75,324.888889 C42.75,321.948444 45.1055,319.555556 48,319.555556 L48,321.333333 L52.375,318.666667 L48,316 L48,317.777778 C44.13425,317.777778 41,320.961778 41,324.888889 C41,328.816 44.13425,332 48,332 C51.86575,332 55,329.333333 55,324.888889 L53.25,324.888889 Z" transform="translate(-41 -316)"/>
</svg>
