<svg xmlns="http://www.w3.org/2000/svg" width="18" height="14" viewBox="0 0 18 14">
  <path fill="#DEDEDE" fill-rule="evenodd" d="M48.65164,232.590393 C48.2952356,232.984819 47.6616278,233.02652 47.3016233,232.635569 L41.7305545,227.081459 L54.1048074,227.081459 L48.65164,232.590393 Z M43.1723723,223.144149 C43.3370743,222.891334 43.6250779,222.73756 43.9337817,222.73756 L52.0617821,222.73756 C52.3650859,222.73756 52.6476894,222.884384 52.8141914,223.12938 L54.7600155,225.3439 L41.3300495,225.3439 L43.1723723,223.144149 Z M56.7085396,224.842614 L54.0985073,221.7124 C53.7664032,221.219801 53.1993962,221 52.5900887,221 L43.4369756,221 C42.8177679,221 42.2417608,221.230227 41.9123567,221.736725 L39.2753242,225.06589 C38.8496189,225.72095 38.9234198,226.548897 39.4562264,227.126636 L46.6473152,234.420912 C47.3673241,235.201076 48.6336398,235.190651 49.3464486,234.403536 L56.5555377,226.936373 C57.0856442,226.350815 57.147745,225.494198 56.7085396,224.842614 L56.7085396,224.842614 Z" transform="translate(-39 -221)"/>
</svg>
