<svg xmlns="http://www.w3.org/2000/svg" width="18" height="18" viewBox="0 0 18 18">
  <path fill="#5B96FC" fill-rule="evenodd" d="M55.2,375.6 L55.2,363 L53.4,363 L53.4,375.6 L51.6,375.6 L51.6,377.4 L53.4,377.4 L53.4,381 L55.2,381 L55.2,377.4 L57,377.4 L57,375.6 L55.2,375.6 Z M48.9,363 L47.1,363 L47.1,371.1 L45.3,371.1 L45.3,372.9 L47.1,372.9 L47.1,381 L48.9,381 L48.9,372.9 L50.7,372.9 L50.7,371.1 L48.9,371.1 L48.9,363 Z M42.6,375.6 L44.4,375.6 L44.4,377.4 L42.6,377.4 L42.6,381 L40.8,381 L40.8,377.4 L39,377.4 L39,375.6 L40.8,375.6 L40.8,363 L42.6,363 L42.6,375.6 Z" transform="translate(-39 -363)"/>
</svg>
