<svg xmlns="http://www.w3.org/2000/svg" width="36" height="36" viewBox="0 0 36 36">
  <g fill="#5B96FC">
    <path d="M25.3757812 13.3758281C25.1412187 13.6104609 25.1412187 13.9896563 25.3757812 14.2242188L26.7515859 15.6000234 23.4 15.6000234C23.0681953 15.6000234 22.8000234 15.8688281 22.8000234 16.2 22.8000234 16.5311719 23.0681953 16.7999766 23.4 16.7999766L26.7515859 16.7999766 25.3757812 18.1757813C25.1412187 18.4104141 25.1412187 18.7896094 25.3757812 19.0241719 25.4927812 19.1411719 25.6464141 19.1999531 25.7999766 19.1999531 25.9536094 19.1999531 26.1071719 19.1411719 26.2241719 19.0241719L28.6235859 16.6247578C28.6794141 16.5689297 28.7232187 16.5029766 28.7538047 16.4291484 28.8144141 16.2827578 28.8144141 16.1171719 28.7538047 15.9707813 28.7232187 15.8969531 28.6794141 15.831 28.6235859 15.7751719L26.2241719 13.3757578C25.9896094 13.1411953 25.6104141 13.1411953 25.3757812 13.3758281zM14.9999766 8.40002344L27 8.40002344C27.3318047 8.40002344 27.5999766 8.13121875 27.5999766 7.80004687 27.5999766 7.468875 27.3318047 7.2 27 7.2L14.9999766 7.2C14.6681719 7.2 14.4 7.46880469 14.4 7.79997656 14.4 8.13114844 14.6681719 8.40002344 14.9999766 8.40002344zM13.8000234 20.3999766L18.6000469 20.3999766C18.9318516 20.3999766 19.2000234 20.1311719 19.2000234 19.8 19.2000234 19.4688281 18.9318516 19.2000234 18.6000469 19.2000234L13.8000234 19.2000234C13.4682187 19.2000234 13.2000469 19.4688281 13.2000469 19.8 13.2000469 20.1311719 13.4682187 20.3999766 13.8000234 20.3999766zM13.8000234 13.1999766L17.4000234 13.1999766C17.7318281 13.1999766 18 12.9311719 18 12.6 18 12.2688281 17.7318281 12.0000234 17.4000234 12.0000234L13.8000234 12.0000234C13.4682187 12.0000234 13.2000469 12.2688281 13.2000469 12.6 13.2000469 12.9311719 13.4682187 13.1999766 13.8000234 13.1999766zM13.8000234 16.7999766L19.8 16.7999766C20.1318047 16.7999766 20.3999766 16.5311719 20.3999766 16.2 20.3999766 15.8688281 20.1318047 15.6000234 19.8 15.6000234L13.8000234 15.6000234C13.4682187 15.6000234 13.2000469 15.8688281 13.2000469 16.2 13.2000469 16.5311719 13.4682187 16.7999766 13.8000234 16.7999766zM23.4 34.7999766L22.1999766 34.7999766C21.8681719 34.7999766 21.6 35.0687812 21.6 35.3999531 21.6 35.731125 21.8681719 35.9999297 22.1999766 35.9999297L23.4 35.9999297C23.7318047 35.9999297 23.9999766 35.731125 23.9999766 35.3999531 23.9999766 35.0687812 23.7318047 34.7999766 23.4 34.7999766zM35.4000234 34.7999766L25.7999766 34.7999766C25.4681719 34.7999766 25.2 35.0687812 25.2 35.3999531 25.2 35.731125 25.4681719 35.9999297 25.7999766 35.9999297L35.3999531 35.9999297C35.7317578 35.9999297 35.9999297 35.731125 35.9999297 35.3999531 35.9999297 35.0687812 35.7318281 34.7999766 35.4000234 34.7999766zM18.5999766 34.7999766L12.6 34.7999766C12.2681953 34.7999766 12.0000234 35.0687812 12.0000234 35.3999531 12.0000234 35.731125 12.2681953 36 12.6 36L18.5999766 36C18.9317812 36 19.1999531 35.7311953 19.1999531 35.4000234 19.1999531 35.0688516 18.9317812 34.7999766 18.5999766 34.7999766z"/>
    <path d="M11.3999766,7.2 C9.74580469,7.2 8.39995313,8.54578125 8.39995313,10.2000234 L8.39995313,22.2000469 C8.39995313,23.8542188 9.74573437,25.2000703 11.3999766,25.2000703 L30.6,25.2000703 C32.2541719,25.2000703 33.6000234,23.8542891 33.6000234,22.2000469 L33.6000234,10.2000234 C33.6000234,8.54585156 32.2542422,7.2 30.6,7.2 L30.0000234,7.2 L30.0000234,4.80002344 L35.4000234,4.80002344 C35.7318281,4.80002344 36,4.53121875 36,4.20004687 C36,3.868875 35.7318281,3.60007031 35.4000234,3.60007031 L5.99997656,3.60007031 L5.99997656,1.8 C5.99997656,0.807609375 5.19236719,0 4.19997656,0 C3.20758594,0 2.39997656,0.807609375 2.39997656,1.8 L2.39997656,34.7999766 L0.599976562,34.7999766 C0.268171875,34.7999766 0,35.0687813 0,35.3999531 C0,35.731125 0.268171875,36 0.599976563,36 L9,36 C9.33180469,36 9.59997656,35.7311953 9.59997656,35.4000234 C9.59997656,35.0688516 9.33180469,34.8000469 9,34.8000469 L5.99997656,34.8000469 L5.99997656,6.60002344 C5.99997656,6.26885156 5.73180469,6.00004688 5.4,6.00004688 C5.06819531,6.00004688 4.80002344,6.26885156 4.80002344,6.60002344 L4.80002344,34.8000469 L3.6,34.8000469 L3.6,1.8 C3.6,1.46939063 3.86880469,1.20002344 4.19997656,1.20002344 C4.53114844,1.20002344 4.79995313,1.46939062 4.79995313,1.8 L4.79995313,4.19997656 C4.79995313,4.53114844 5.068125,4.79995313 5.39992969,4.79995313 L11.9999531,4.79995313 L11.9999531,7.2 L11.3999766,7.2 Z M12.6,8.40002344 C12.9318047,8.40002344 13.1999766,8.13121875 13.1999766,7.80004687 L13.1999766,4.80002344 L28.8,4.80002344 L28.8,7.80004687 C28.8,8.13121875 29.0681719,8.40002344 29.3999766,8.40002344 L30.6,8.40002344 C31.5923906,8.40002344 32.4,9.20763281 32.4,10.2000234 L32.4,22.2000469 C32.4,23.1924375 31.5923906,24.0000469 30.6,24.0000469 L11.3999766,24.0000469 C10.4075859,24.0000469 9.59997656,23.1924375 9.59997656,22.2000469 L9.59997656,10.2000234 C9.59997656,9.20763281 10.4075859,8.40002344 11.3999766,8.40002344 L12.6,8.40002344 L12.6,8.40002344 Z"/>
  </g>
</svg>
