<svg xmlns="http://www.w3.org/2000/svg" width="24" height="24" viewBox="0 0 24 24" xmlns:xlink="http://www.w3.org/1999/xlink">
  <defs>
    <path id="a" d="M21.9787969,0 C23.0815781,0 23.9788125,0.8971875 23.9787656,2.00001562 L23.9787656,8.4 C23.9787656,9.63759375 23.5851563,10.5595781 22.6615781,11.4827813 L10.782375,23.3783906 C10.4039531,23.7563906 9.90196875,23.964375 9.36796875,23.964375 C8.83359375,23.964375 8.3315625,23.7563437 7.95398438,23.3787656 L0.6,16.0247813 C0.222,15.6471562 0.014015625,15.1447969 0.014015625,14.610375 C0.014015625,14.076375 0.222,13.5743906 0.6,13.1963906 L10.9900312,2.82065625 C8.27404688,2.20307813 6.58725,2.16107813 6.09323438,2.305875 C6.30201563,2.5190625 6.95123437,2.971875 8.51803125,3.589875 C8.72320313,3.67064062 8.82403125,3.90304688 8.74321875,4.10826562 C8.66203125,4.31428125 8.43042188,4.4146875 8.22403125,4.333875 C4.98126563,3.05507813 5.170875,2.34670313 5.24245313,2.07989063 C5.39085938,1.52390625 6.18164063,1.33870313 7.80684375,1.48110938 C9.1284375,1.59628125 10.8348281,1.921875 12.61125,2.39789063 C13.7724844,2.70909375 19.5456563,4.33551563 19.1516719,5.80710937 C19.0076719,6.34354688 18.2592656,6.40954687 18.0132656,6.43153125 C18.0012656,6.43232812 17.9892656,6.433125 17.9776875,6.433125 C17.7724688,6.433125 17.5980938,6.27590625 17.5796719,6.06792187 C17.5600781,5.8479375 17.722875,5.65392187 17.9428594,5.63432812 C18.113625,5.6195625 18.2268281,5.59635937 18.3000469,5.57554687 C18.1288125,5.39714062 17.6956406,5.11753125 17.0028281,4.7859375 C16.8576094,5.03071875 16.7788125,5.31192187 16.7788125,5.59992187 C16.7788125,6.48229688 17.4964219,7.19990625 18.3787969,7.19990625 C19.2611719,7.19990625 19.9787813,6.48234375 19.9787813,5.59992187 C19.9787813,4.71754687 19.2612188,3.9999375 18.3787969,3.9999375 C18.1575938,3.9999375 17.9788125,3.82073437 17.9788125,3.59995312 C17.9788125,3.37917187 18.1575938,3.19996875 18.3787969,3.19996875 C19.7024062,3.19996875 20.7787969,4.27635937 20.7787969,5.59996875 C20.7787969,6.92357812 19.7024062,7.99996875 18.3787969,7.99996875 C17.0551875,7.99996875 15.9787969,6.92357812 15.9787969,5.59996875 C15.9787969,5.19876562 16.0844063,4.80792187 16.2727969,4.45954687 C15.3156094,4.05717187 14.0316094,3.60675 12.4040156,3.17076562 C12.2328281,3.12478125 12.0672188,3.08278125 11.9024062,3.04078125 L1.16559375,13.7623594 C0.938765625,13.9887656 0.813984375,14.2899844 0.813984375,14.610375 C0.813984375,14.9311875 0.9388125,15.2324062 1.16559375,15.4591875 L8.519625,22.8132187 C8.97201562,23.2660312 9.76279687,23.2664062 10.2164062,22.8132187 L22.0956094,10.9171875 C22.8751875,10.1379844 23.1787969,9.43242187 23.1787969,8.4 L23.1787969,1.99996875 C23.1787969,1.338375 22.6403906,0.79996875 21.9787969,0.79996875 L15.5788125,0.79996875 C14.5468125,0.79996875 13.8408281,1.10357813 13.061625,1.88278125 C12.90525,2.03920313 12.6524531,2.03920313 12.4960312,1.88278125 C12.3396562,1.72640625 12.3396562,1.47360937 12.4960312,1.3171875 C13.4192344,0.393984375 14.3412187,0 15.5788125,0 L21.9787969,0 Z M20.7688125,14.6300156 C20.9592187,14.741625 21.0227812,14.9867812 20.9111719,15.1771406 L16.3275937,22.9955625 C15.9584062,23.6347969 15.2856094,23.9927812 14.5940156,23.9927812 C14.2544062,23.9927812 13.9112344,23.9067656 13.5972187,23.7251719 L12.6864375,23.1355781 C12.5012344,23.0155781 12.4480312,22.7675625 12.5684531,22.5823594 C12.6880312,22.3971562 12.9360469,22.3439531 13.12125,22.464375 L14.0148281,23.0431875 C14.5704375,23.364 15.3052031,23.166375 15.6364219,22.5931875 L20.2212187,14.7727969 C20.3328281,14.5820156 20.5776094,14.5176094 20.7688125,14.6300156 Z M9.5788125,11.6000156 C9.5788125,11.3791875 9.75759375,11.2000313 9.97879687,11.2000313 C10.2,11.2000313 10.3787812,11.3792344 10.3787812,11.6000156 L10.3787812,17.2000313 C10.3787812,17.4208125 10.2,17.6000156 9.97879687,17.6000156 C9.75759375,17.6000156 9.5788125,17.4208125 9.5788125,17.2000313 L9.5788125,11.6000156 Z M11.9788125,12.8000156 C11.9788125,12.3587812 12.3375938,12 12.7788281,12 C13.2200625,12 13.5788438,12.3588281 13.5788438,12.8000156 C13.5788438,13.24125 13.2200625,13.6000312 12.7788281,13.6000312 C12.3375938,13.6000312 11.9788125,13.2412031 11.9788125,12.8000156 Z M6.37879688,15.2000156 C6.37879688,14.7587812 6.73757813,14.4 7.1788125,14.4 C7.62,14.4 7.97882813,14.7587812 7.97882813,15.2000156 C7.97882813,15.64125 7.62,16.0000312 7.1788125,16.0000312 C6.73757813,16.0000312 6.37879688,15.6412031 6.37879688,15.2000156 Z"/>
  </defs>
  <g fill="none" fill-rule="evenodd">
    <mask id="b" fill="white">
      <use xlink:href="#a"/>
    </mask>
    <use fill="#000000" fill-rule="nonzero" xlink:href="#a"/>
    <rect width="24" height="24" fill="#E0CC9D" mask="url(#b)"/>
  </g>
</svg>
