<svg xmlns="http://www.w3.org/2000/svg" xmlns:xlink="http://www.w3.org/1999/xlink" viewBox="0 0 763.294 229.809">
  <defs>
    <style>
      .cls-1, .cls-3 {
        fill: #fff;
      }

      .cls-2 {
        clip-path: url(#clip-path);
      }

      .cls-3 {
        fill-rule: evenodd;
      }

      .cls-4 {
        fill: #009cde;
        stroke: #009cde;
        stroke-miterlimit: 10;
        stroke-width: 0.25px;
      }
    </style>
    <clipPath id="clip-path">
      <rect id="Rectangle_1069" data-name="Rectangle 1069" class="cls-1" width="763.294" height="229.809"/>
    </clipPath>
  </defs>
  <g id="Group_357" data-name="Group 357" transform="translate(1211.247 -3833.496)">
    <g id="Group_355" data-name="Group 355" transform="translate(-1211.247 3833.496)">
      <g id="Ilustración_29_1_">
        <g id="Group_352" data-name="Group 352">
          <g id="Group_351" data-name="Group 351" class="cls-2">
            <g id="Group_348" data-name="Group 348" class="cls-2">
              <path id="Path_595" data-name="Path 595" class="cls-3" d="M458.592,224.166c-201.6,0-365.232-46.68-365.232-104.132S257,15.9,458.592,15.9c127.216,0,239.042,18.467,304.7,46.68C696.1,25.648,560.159,0,403.7,0,180.564,0,0,51.3,0,114.9s180.564,114.9,403.7,114.9c67.2,0,130.293-4.617,185.694-12.824a1162.761,1162.761,0,0,1-130.806,7.182"/>
            </g>
            <g id="Group_349" data-name="Group 349" class="cls-2">
              <path id="Path_596" data-name="Path 596" class="cls-1" d="M65.208,32.915a7,7,0,0,0-7.182,5.643c-1.026,4.1.513,6.156,3.591,6.156H88.8c11.8,0,17.954,9.746,14.876,21.545C100.089,79.595,88.8,87.8,77.006,87.8H29.3l4.1-15.389H78.545a8.672,8.672,0,0,0,7.694-6.156c1.026-3.591-1.026-6.156-4.617-6.156H54.948c-12.311,0-18.467-9.233-15.389-21.032,3.078-11.285,12.824-21.032,26.674-21.032h47.193l-4.1,15.389H65.208ZM163.7,17.526c20.006,0,25.135,9.746,21.032,24.109-3.591,13.85-13.85,23.083-33.343,23.083H125.738L119.582,87.8H102.654l19.493-70.276ZM133.945,33.941l-4.1,15.389H155.49a9.753,9.753,0,0,0,9.233-7.694c1.026-4.617-1.539-7.694-6.156-7.694ZM231.922,16.5c23.6,0,34.882,9.746,27.187,36.421-7.182,26.161-23.6,36.421-47.706,36.421s-34.369-10.259-27.187-36.421C191.91,26.246,208.325,16.5,231.922,16.5M203.2,52.921c-4.617,16.928-.513,21.032,12.311,21.032S235,69.336,239.616,52.408c4.617-16.415.513-21.032-12.311-21.032-12.311,0-19.493,5.643-24.109,21.545M318.613,17.526q24.622,0,18.467,21.545c-4.1,14.363-14.363,18.467-14.363,18.467s7.182,3.078,2.565,20.006c-1.026,3.591-2.052,9.746-2.052,9.746H304.763a42.232,42.232,0,0,1,1.026-9.233c3.078-11.8.513-17.441-11.285-17.441H278.089l-7.182,26.161H253.979L273.472,16.5h45.141Zm-32.83,16.415-3.591,12.311h25.135c3.591,0,8.207-1.539,9.746-6.156,1.026-4.617-2.565-6.156-6.156-6.156H285.783Zm54.374-1.026,4.1-14.876h66.173l-4.1,14.876H381.708L366.319,87.8H349.391L364.78,32.915Zm62.069,26.674,11.285-41.55H430.44L419.667,58.05c-3.078,11.8-2.052,15.389,11.8,15.389h23.6l-4.1,14.876H423.771c-18.98-.513-26.674-9.746-21.545-28.726M454.036,87.8l19.493-70.276h16.928L470.964,87.8Zm68.737-70.276h37.959l-4.617,16.415H520.722c-10.772,0-11.8-.513-14.876,10.772h47.193l-4.1,15.389H501.742l-7.695,27.7H477.119L488.4,46.765c4.617-16.415,10.772-29.239,34.369-29.239M575.1,44.713h44.628L615.62,60.1H570.992c-3.078,11.8-3.078,11.8,6.156,11.8h35.395l-4.617,15.9H565.863c-19.493,0-18.467-10.259-11.8-34.882,6.156-22.058,12.311-34.882,31.8-34.882h41.55L622.8,34.454H587.407c-8.721-.513-9.233-.513-12.311,10.259" transform="translate(120.999 68.139)"/>
            </g>
            <g id="Group_350" data-name="Group 350" class="cls-2">
              <path id="Path_597" data-name="Path 597" class="cls-1" d="M147.959,51.619a10.259,10.259,0,1,1,10.259-10.259,10.289,10.289,0,0,1-10.259,10.259m0-18.467a7.694,7.694,0,1,0,7.695,7.695,7.889,7.889,0,0,0-7.695-7.695M149.5,47l-2.052-4.1H146.42V47h-2.565V35.717h4.617a3.506,3.506,0,0,1,3.591,3.591,3.464,3.464,0,0,1-2.052,3.078L152.063,47Zm-1.539-9.233H146.42v3.078h1.539a1.539,1.539,0,1,0,0-3.078" transform="translate(568.655 128.432)"/>
            </g>
          </g>
        </g>
      </g>
    </g>
    <g id="Group_356" data-name="Group 356" transform="translate(-758.811 3997.645)">
      <path id="Path_598" data-name="Path 598" class="cls-4" d="M91.278,68.421H88.2V32h27.7v6.156h6.156v6.156H115.9V38.156H94.356v6.156H115.9v6.156h-3.078v6.156h6.156v6.156h-6.156V56.622h-6.156V50.467H94.356V68.934H91.278Zm30.778,0h-3.078V62.778h6.156v6.156h-3.078Z" transform="translate(-88.2 -32)"/>
      <path id="Path_599" data-name="Path 599" class="cls-4" d="M123.187,68.421H96V32h30.778v6.156H102.156v6.156h9.233v6.156h-9.233V62.778h24.622v6.156h-3.591Z" transform="translate(-55.989 -32)"/>
      <path id="Path_600" data-name="Path 600" class="cls-4" d="M105.578,68.421H102.5V32h6.156V56.622h6.156v6.156h-6.156v6.156h-3.078Zm15.389-11.8h-6.156V50.467h6.156v6.156Zm9.233,11.8h-3.078V62.778h-6.156V56.622h6.156V32h6.156V68.934H130.2Z" transform="translate(-29.146 -32)"/>
      <path id="Path_601" data-name="Path 601" class="cls-4" d="M133.622,68.421h-3.078V50.467H115.156V68.934H109V38.156h6.156v6.156h15.389V38.156H136.7V68.934h-3.078Zm-3.078-30.265H115.156V32h15.389v6.156Z" transform="translate(-2.303 -32)"/>
      <path id="Path_602" data-name="Path 602" class="cls-4" d="M118.078,68.421H115V32h27.7v6.156h6.156v6.156H142.7V38.156H121.156v6.156H142.7v6.156h-3.078v6.156h6.156v6.156h-6.156V56.622h-6.156V50.467H121.156V68.934h-3.078Zm30.778,0h-3.078V62.778h6.156v6.156h-3.078Z" transform="translate(22.475 -32)"/>
      <path id="Path_603" data-name="Path 603" class="cls-4" d="M143.832,68.421H122.8V32h24.622v6.156h6.156V62.778h-6.156V38.156H128.956V62.778h18.467v6.156h-3.591Z" transform="translate(54.686 -32)"/>
      <path id="Path_604" data-name="Path 604" class="cls-4" d="M135.456,44.311H129.3V38.156h6.156v6.156Zm12.311,24.109H129.3V62.778h21.545v6.156h-3.078Zm6.156-30.265H135.456V32H157v6.156h-3.078Zm-3.078,12.311H135.456V44.311h15.389v6.156Zm0,12.311V50.467H157V62.778h-6.156Z" transform="translate(81.529 -32)"/>
    </g>
  </g>
</svg>
