<svg xmlns="http://www.w3.org/2000/svg" width="93" height="9" viewBox="0 0 93 9">
    <path fill="#5B96FC" fill-rule="evenodd" d="M4.387 8.168L2.916 5.362h-.87v2.806H.853V1.061h2.686c1.352 0 2.192.953 2.192 2.156C5.73 4.229 5.127 5 4.15 5.24l1.58 2.927H4.387zM2.047 4.3H3.32c.731 0 1.205-.43 1.205-1.082 0-.662-.474-1.093-1.205-1.093H2.047v2.175zm16.732 3.87h-4.325V1.06h4.325v1.123h-3.14V4.07h2.844V5.16h-2.844v1.885h3.14v1.122zm15.38-1.875L35.53 1.06h1.224L34.79 8.168h-1.224l-1.699-5.372-1.698 5.372h-1.215L26.97 1.061h1.244l1.402 5.193 1.64-5.193h1.233l1.67 5.233zm15.388 1.874l-.661-1.784h-2.962l-.652 1.784h-1.254l2.725-7.107h1.373l2.725 7.107h-1.294zm-2.142-5.803L46.338 5.27h2.133l-1.066-2.906zm15.37 5.803l-1.472-2.806h-.869v2.806H59.24V1.061h2.686c1.353 0 2.192.953 2.192 2.156 0 1.012-.602 1.784-1.58 2.024l1.58 2.927h-1.343zM60.434 4.3h1.273c.73 0 1.204-.43 1.204-1.082 0-.662-.474-1.093-1.204-1.093h-1.274v2.175zM75.31 8.17H72.84V1.06h2.479c1.905 0 3.406 1.283 3.406 3.569 0 2.275-1.52 3.538-3.416 3.538zm-1.284-1.103h1.244c1.215 0 2.222-.792 2.222-2.436 0-1.664-.997-2.466-2.212-2.466h-1.254v4.902zm18.006-4.34l-1.066.34c-.07-.44-.435-1.092-1.373-1.092-.71 0-1.204.48-1.204 1.022 0 .451.276.792.82.912l1.006.21c1.235.251 1.896 1.043 1.896 2.045 0 1.103-.879 2.156-2.478 2.156-1.778 0-2.597-1.163-2.706-2.186l1.106-.32c.07.741.593 1.423 1.6 1.423.839 0 1.273-.431 1.273-.982 0-.461-.335-.832-.938-.963l-.987-.21c-1.066-.22-1.777-.932-1.777-1.995 0-1.193 1.076-2.175 2.38-2.175 1.648 0 2.29 1.023 2.448 1.814z"/>
</svg>
