<?xml version="1.0" encoding="iso-8859-1"?>
<!-- Generator: Adobe Illustrator 19.1.0, SVG Export Plug-In . SVG Version: 6.00 Build 0)  -->
<svg xmlns="http://www.w3.org/2000/svg" xmlns:xlink="http://www.w3.org/1999/xlink" version="1.1" id="Capa_1" x="0px" y="0px" viewBox="0 0 487.593 487.593" style="enable-background:new 0 0 487.593 487.593;" xml:space="preserve" width="512px" height="512px">
<g>
	<g>
		<path d="M107.069,106.446l1.2-0.2l0.2-1.2c2.6-15,11.2-28.2,23.7-36.8l-66-66c-4.8-4.8-13.1-1.4-13.1,5.4l-0.4,46.7l-44.3-0.8    c-6.9-0.1-10.5,8.2-5.6,13.1l65.4,65.4c0.1-0.1,0.1-0.3,0.2-0.4C77.069,118.146,91.169,108.946,107.069,106.446z" fill="#FFFFFF"/>
		<path d="M484.869,420.846l-65.4-65.4c-0.1,0.1-0.1,0.3-0.2,0.4c-8.7,13.6-22.8,22.8-38.7,25.3l-1.2,0.2l-0.2,1.2    c-2.6,15-11.2,28.2-23.7,36.8l66,66c4.8,4.8,13.1,1.4,13.1-5.4l0.4-46.7l44.3,0.8    C486.169,434.146,489.669,425.746,484.869,420.846z" fill="#FFFFFF"/>
		<path d="M375.269,348.046c13.5-2.1,22.1-15.6,18.4-28.7l-2.5-8.6c-2.7-9.4,0.9-19.4,9-25l7.4-5.1c11.3-7.8,13.2-23.6,4.1-33.9    l-6-6.7c-6.5-7.3-7.6-17.9-2.8-26.4l4.4-7.8c6.8-11.9,1.6-27-11-32.3l-8.3-3.4c-9-3.8-14.6-12.8-14-22.6l0.6-8.9    c1-13.6-10.3-25-23.9-24.3l-8.9,0.5c-9.8,0.5-18.8-5.2-22.4-14.3l-3.3-8.3c-5.1-12.7-20.1-18.1-32.1-11.5l-7.8,4.3    c-8.6,4.7-19.2,3.4-26.4-3.2l-6.6-6.1c-10.1-9.3-26-7.6-33.9,3.6l-5.2,7.3c-5.7,8-15.8,11.4-25.1,8.6l-8.6-2.6    c-13.1-4-26.7,4.4-29,17.9l-1.5,8.8c-1.7,9.6-9.3,17.1-18.9,18.6l-8.8,1.4c-13.5,2.1-22.1,15.6-18.4,28.7l2.5,8.6    c2.7,9.4-0.9,19.4-9,25l-7.4,5.1c-11.3,7.8-13.2,23.6-4.1,33.9l6,6.7c6.5,7.3,7.6,17.9,2.8,26.4l-4.4,7.8    c-6.8,11.9-1.6,27,11,32.3l8.3,3.4c9,3.8,14.6,12.8,14,22.6l-0.6,8.9c-1,13.6,10.3,25,23.9,24.3l8.9-0.5    c9.8-0.5,18.8,5.2,22.4,14.3l3.3,8.3c5.1,12.7,20.1,18.1,32.1,11.5l7.8-4.3c8.6-4.7,19.2-3.4,26.4,3.2l6.6,6.1    c10.1,9.3,26,7.6,33.9-3.6l5.2-7.3c5.7-8,15.8-11.4,25.1-8.6l8.6,2.6c13.1,4,26.7-4.4,29-17.9l1.5-8.8c1.7-9.6,9.3-17.1,18.9-18.6    L375.269,348.046z M319.969,319.946c-42.1,42.1-110.4,42.1-152.5,0s-42.1-110.4,0-152.5s110.4-42.1,152.5,0    C362.069,209.646,362.069,277.846,319.969,319.946z" fill="#FFFFFF"/>
		<path d="M269.669,210.946l-17.1-41.9c-3.2-7.9-14.4-7.9-17.6,0l-17.1,41.9l-45.1,3.3c-8.5,0.6-11.9,11.2-5.4,16.7l34.6,29.2    l-10.8,43.9c-2,8.3,7,14.8,14.2,10.3l38.4-23.9l38.4,23.9c7.2,4.5,16.3-2.1,14.2-10.3l-10.8-43.9l34.6-29.2    c6.5-5.5,3.1-16.1-5.4-16.7L269.669,210.946z" fill="#FFFFFF"/>
	</g>
</g>
<g>
</g>
<g>
</g>
<g>
</g>
<g>
</g>
<g>
</g>
<g>
</g>
<g>
</g>
<g>
</g>
<g>
</g>
<g>
</g>
<g>
</g>
<g>
</g>
<g>
</g>
<g>
</g>
<g>
</g>
</svg>
