<svg xmlns="http://www.w3.org/2000/svg" width="20" height="20" viewBox="0 0 20 20">
  <path fill="#424242" fill-rule="evenodd" d="M274,341.875 C272.897,341.875 272,340.978 272,339.875 C272,338.772 272.897,337.875 274,337.875 C275.103,337.875 276,338.772 276,339.875 C276,340.978 275.103,341.875 274,341.875 M262,348 C260.897,348 260,347.103 260,346 C260,344.897 260.897,344 262,344 C264.643,344 264.644,348 262,348 M262,336 C260.897,336 260,335.103 260,334 C260,332.897 260.897,332 262,332 C264.643,332 264.644,336 262,336 M274,335.875 C272.779,335.875 271.7,336.434 270.966,337.296 L265.959,334.405 C266.212,331.919 264.269,330 262,330 C259.791,330 258,331.791 258,334 C258,336.209 259.791,338 262,338 C263.347,338 264.532,337.329 265.257,336.309 L270.079,339.093 C269.971,339.637 269.974,340.161 270.088,340.704 L265.141,343.551 C264.409,342.613 263.281,342 262,342 C259.791,342 258,343.791 258,346 C258,348.209 259.791,350 262,350 C264.362,350 266.324,347.928 265.939,345.399 L270.995,342.49 C271.728,343.332 272.796,343.875 274,343.875 C276.209,343.875 278,342.084 278,339.875 C278,337.666 276.209,335.875 274,335.875" transform="translate(-258 -330)"/>
</svg>
