<svg xmlns="http://www.w3.org/2000/svg" width="144" height="144" viewBox="0 0 144 144">
  <g fill="#000000" fill-rule="evenodd">
    <path d="M70 12C70 17.523 65.523 22 60 22 54.477 22 50 17.523 50 12 50 6.477 54.477 2 60 2 65.523 2 70 6.477 70 12zM68 12C68 7.589 64.411 4 60 4 55.589 4 52 7.589 52 12 52 16.411 55.589 20 60 20 64.411 20 68 16.411 68 12zM66 13C66 13.552 65.552 14 65 14L61 14C59.895 14 59 13.105 59 12L59 7C59 6.448 59.448 6 60 6 60.552 6 61 6.448 61 7L61 11C61 11.55 61.45 12 62 12L65 12C65.552 12 66 12.448 66 13zM22 11C22 11.552 21.552 12 21 12L20 12 20 14C21.105 14 22 14.895 22 16L22 18C22 19.105 21.105 20 20 20L20 21C20 21.552 19.552 22 19 22L17 22C16.448 22 16 21.552 16 21L16 20 8 20 8 21C8 21.552 7.552 22 7 22L5 22C4.448 22 4 21.552 4 21L4 20C2.895 20 2 19.105 2 18L2 16C2 14.895 2.895 14 4 14L4 12 3 12C2.448 12 2 11.552 2 11 2 10.448 2.448 10 3 10L4 10 4 4C4 2.895 4.895 2 6 2L18 2C19.105 2 20 2.895 20 4L20 10 21 10C21.552 10 22 10.448 22 11zM6 14L18 14 18 5C18 4.448 17.552 4 17 4L7 4C6.448 4 6 4.448 6 5L6 14zM16 17C16 17.552 16.448 18 17 18 17.552 18 18 17.552 18 17 18 16.448 17.552 16 17 16 16.448 16 16 16.448 16 17zM6 17C6 17.552 6.448 18 7 18 7.552 18 8 17.552 8 17 8 16.448 7.552 16 7 16 6.448 16 6 16.448 6 17zM26 2L45 2 45 15 27.9 15 27.9 22 26 22 26 2zM28 4L28 7 31 7 31 4 28 4zM34 4L34 7 37 7 37 4 34 4zM40 4L40 7 43 7 43 4 40 4zM28 10L28 13 31 13 31 10 28 10zM34 10L34 13 37 13 37 10 34 10zM40 10L40 13 43 13 43 10 40 10zM31 7L31 10 34 10 34 7 31 7zM37 7L37 10 40 10 40 7 37 7z"/>
  </g>
</svg>
