<svg xmlns="http://www.w3.org/2000/svg" width="18" height="14" viewBox="0 0 18 14">
  <path fill="#5B96FC" fill-rule="evenodd" d="M49.7936247,280.680368 C49.3004412,281.087965 48.6668624,281.312756 48.0089845,281.312756 C47.3520066,281.312756 46.7166279,281.08884 46.2036451,280.668122 C42.9691536,278.018738 40.9100226,276.613139 40.8029262,273.730217 C40.69043,270.679358 44.1283147,269.56415 46.236044,272.070963 C46.6626297,272.577398 47.3034082,272.86779 47.994585,272.86779 C48.6920616,272.86779 49.33734,272.5739 49.7648256,272.061341 C51.8266565,269.594764 55.3563381,270.645246 55.1952435,273.819434 C55.0512483,276.642878 52.91292,278.100957 49.7936247,280.680368 M48.3482731,271.021355 C48.2600761,271.127191 48.1268806,271.180546 47.994585,271.180546 C47.8649893,271.180546 47.7362937,271.12894 47.6498966,271.026603 C44.4613035,267.234896 38.8310924,269.123315 39.0038866,273.78882 C39.141582,277.501806 41.8486912,279.342118 45.0363842,281.953017 C45.8886556,282.651006 46.9488201,283 48.0089845,283 C49.0718489,283 50.1338132,282.649256 50.9842847,281.946019 C54.136879,279.338619 56.8097893,277.510553 56.9924832,273.899029 C57.235475,269.129438 51.5287664,267.213904 48.3482731,271.021355" transform="translate(-39 -269)"/>
</svg>
