<svg xmlns="http://www.w3.org/2000/svg" width="18" height="18" viewBox="0 0 18 18">
  <path fill="#5B96FC" fill-rule="evenodd" d="M45.3,420 L47.1,420 L47.1,418.2 L45.3,418.2 L45.3,420 Z M48,420 L49.8,420 L49.8,418.2 L48,418.2 L48,420 Z M42.6,420 L44.4,420 L44.4,418.2 L42.6,418.2 L42.6,420 Z M40.8,421.8 L51.6,421.8 L51.6,416.4 L40.8,416.4 L40.8,421.8 Z M44.4,414.6 L48,414.6 L48,412.8 L44.4,412.8 L44.4,414.6 Z M55.2,411 L39,411 L39,412.8 L42.6,412.8 L42.6,414.6 L40.8,414.6 L39,414.6 L39,416.4 L39,421.8 L39,423.6 L53.4,423.6 L53.4,421.8 L53.4,416.4 L53.4,414.6 L51.6,414.6 L49.8,414.6 L49.8,412.8 L55.2,412.8 L55.2,429 L57,429 L57,412.8 L57,411 L55.2,411 Z" transform="translate(-39 -411)"/>
</svg>
