<svg xmlns="http://www.w3.org/2000/svg" xmlns:xlink="http://www.w3.org/1999/xlink" viewBox="0 0 90 90">
  <defs>
    <style>
      .cls-1 {
        fill: #b3bcc1;
      }

      .cls-2 {
        clip-path: url(#clip-path);
      }

      .cls-3 {
        fill: #84dbff;
      }

      .cls-4 {
        fill: #efefef;
      }

      .cls-5 {
        fill: #f0f0f0;
      }

      .cls-6 {
        fill: #dedede;
      }

      .cls-7 {
        fill: #fafafa;
      }
    </style>
    <clipPath id="clip-path">
      <circle id="Ellipse_33" data-name="Ellipse 33" class="cls-1" cx="45" cy="45" r="45"/>
    </clipPath>
  </defs>
  <g id="menu_foto" transform="translate(-266 -275)">
    <circle id="Ellipse_32" data-name="Ellipse 32" class="cls-1" cx="45" cy="45" r="45" transform="translate(266 275)"/>
    <g id="Mask_Group_70" data-name="Mask Group 70" class="cls-2" transform="translate(266 275)">
      <g id="Group_47" data-name="Group 47" transform="translate(10.421 12.316)">
        <path id="Path_150" data-name="Path 150" class="cls-3" d="M253.217,362.8c-.07,0-.139.07-.209.07s-.139-.07-.209-.07Z" transform="translate(-218.706 -306.018)"/>
        <path id="Path_151" data-name="Path 151" class="cls-4" d="M125.4,350.229a44.156,44.156,0,0,1-68.6,0c5.775-7.723,14.612-11.55,21.848-13.429-.557,4.592,1.809,10.715,1.879,10.576,2.435-5.566,10.576-6.053,10.576-6.053s8.141.487,10.506,6.053c.07.139,2.5-5.984,1.879-10.576C110.793,338.679,119.7,342.505,125.4,350.229Z" transform="translate(-56.8 -284.541)"/>
        <path id="Path_152" data-name="Path 152" class="cls-5" d="M216.7,299.114v.069c0,.7-.348,5.149-9.741,8.7h-.417c-9.393-3.549-9.741-8-9.741-8.7v-.069a12.218,12.218,0,0,1,.417-2.714c2.714,3.409,5.984,5.706,9.532,5.706s6.819-2.3,9.532-5.706A12.217,12.217,0,0,1,216.7,299.114Z" transform="translate(-172.447 -251.168)"/>
        <path id="Path_153" data-name="Path 153" class="cls-6" d="M263.95,312s.487,5.01-9.95,8.906c0,0,8.141.487,10.506,6.053C264.646,327.1,269.307,314.992,263.95,312Z" transform="translate(-219.698 -264.055)"/>
        <path id="Path_154" data-name="Path 154" class="cls-6" d="M184.6,312c-5.358,2.992-.7,15.1-.557,14.89,2.435-5.566,10.506-6.053,10.506-6.053C184.112,317.01,184.6,312,184.6,312Z" transform="translate(-160.246 -264.055)"/>
        <path id="Path_156" data-name="Path 156" class="cls-5" d="M335.949,205.08a7.117,7.117,0,0,1-3.549,3.131,29.532,29.532,0,0,0,1.252-3.479v-.07l.835-3.131h-.07c.278-1.044.557-2.087.765-3.131a1.977,1.977,0,0,1,.835.278C337.549,199.652,337.479,202.505,335.949,205.08Z" transform="translate(-284.46 -170.215)"/>
        <path id="Path_157" data-name="Path 157" class="cls-5" d="M153.007,209.2a7.116,7.116,0,0,1-3.549-3.131c-1.6-2.574-1.6-5.427-.07-6.332.139-.07.209-.139.348-.139a47.391,47.391,0,0,0,2.018,6.193A33.694,33.694,0,0,0,153.007,209.2Z" transform="translate(-132.342 -171.206)"/>
        <path id="SVGCleanerId_0" class="cls-7" d="M171.049,42.357c.557-6.4-9.6-5.984-9.6-5.984C146.07,38.6,144.4,52.933,144.4,52.933l2.087-2.5c-3.27,7.167,1.67,19.482,2.087,20.456,2.574,8.558,8.28,16.421,14.89,16.421s12.315-7.862,14.89-16.421h0v-.07c.278-1.044.557-2.087.765-3.131h-.07c1.392-5.566,2.922-11.2,2.922-11.2C185.939,36.513,171.049,42.357,171.049,42.357Z" transform="translate(-129.162 -36.368)"/>
      </g>
    </g>
  </g>
</svg>
