<svg xmlns="http://www.w3.org/2000/svg" viewBox="0 0 75.321 27.444">
  <defs>
    <style>
      .cls-1 {
        fill: #00ce77;
      }

      .cls-2 {
        fill: #fff;
      }
    </style>
  </defs>
  <g id="Group_159" data-name="Group 159" transform="translate(-1097.679 -1927)">
    <g id="Group_128" data-name="Group 128" transform="translate(1097.679 1927)">
      <path id="Path_192" data-name="Path 192" class="cls-1" d="M256.8,14.8A1.2,1.2,0,1,0,258,16,1.206,1.206,0,0,0,256.8,14.8Zm.685,1.2a.16.16,0,0,1-.171.143h-.029a.168.168,0,0,1-.143-.2.339.339,0,0,0-.057-.285.163.163,0,0,1,.257-.2A.772.772,0,0,1,257.483,16Z" transform="translate(-182.676 -10.577)"/>
      <g id="Group_98" data-name="Group 98" transform="translate(36.976 4.85)">
        <path id="Path_193" data-name="Path 193" class="cls-1" d="M167.936,17a4.565,4.565,0,1,0,4.536,4.565A4.5,4.5,0,0,0,167.936,17Zm0,.942a3.595,3.595,0,1,1-3.566,3.595A3.5,3.5,0,0,1,167.936,17.942Z" transform="translate(-153.757 -17)"/>
        <path id="Path_194" data-name="Path 194" class="cls-1" d="M133.965,17a4.137,4.137,0,0,0-3.4,1.683V17.2h-.97V32.15h.97V24.561a4.216,4.216,0,0,0,3.4,1.683,4.473,4.473,0,0,0,4.422-4.622A4.473,4.473,0,0,0,133.965,17Zm0,.942a3.512,3.512,0,0,1,3.452,3.652,3.512,3.512,0,0,1-3.452,3.652,3.45,3.45,0,0,1-3.4-3.652A3.467,3.467,0,0,1,133.965,17.942Z" transform="translate(-129.6 -17)"/>
        <path id="Path_195" data-name="Path 195" class="cls-1" d="M231.45,25.374l-1.912-.114c-.514-.029-1.141-.2-1.141-.856a.873.873,0,0,1,.571-.77,3.709,3.709,0,0,0,2.054.628,3.589,3.589,0,0,0,1.854-6.648l-.514-.257-.057.114.029-.143a4.094,4.094,0,0,0-1.312-.228,3.6,3.6,0,0,0-2.8,5.82,1.716,1.716,0,0,0-.827,1.455,1.646,1.646,0,0,0,.856,1.484,2.977,2.977,0,0,0-1.854,2.853c0,2,1.883,3.4,4.593,3.4s4.593-1.369,4.593-3.338C235.587,26.772,234.075,25.517,231.45,25.374Zm-.428-2.054a2.536,2.536,0,0,1-2.568-2.625,2.588,2.588,0,0,1,2.568-2.625,2.625,2.625,0,0,1,0,5.25Zm-.143,3.053a3.1,3.1,0,0,1,.514.029h0c2.111.114,3.2.942,3.2,2.425,0,1.626-1.854,2.368-3.595,2.368-2.111,0-3.595-1-3.595-2.425a2,2,0,0,1,.628-1.541A4.061,4.061,0,0,1,230.879,26.372Z" transform="translate(-198.782 -17.071)"/>
        <path id="Path_196" data-name="Path 196" class="cls-1" d="M202.352,17a3.53,3.53,0,0,0-2.653,1.2v-1h-1v8.93h1V20.88A2.748,2.748,0,0,1,202.352,18c1.227,0,2.653.485,2.653,2.767V26.13h1V20.738A3.385,3.385,0,0,0,202.352,17Z" transform="translate(-178.985 -17)"/>
      </g>
      <path id="Path_197" data-name="Path 197" class="cls-2" d="M6.534,0V2.254h-.97c-.97,0-1.455.628-1.455,1.912v.713H5.991V6.762H4.08v7.1H1.712v-7.1H0V4.879H1.712V4.165C1.712,1.541,3.053,0,5.535,0Z" transform="translate(0 0)"/>
      <path id="Path_198" data-name="Path 198" class="cls-2" d="M32.42,16.9h2.34v9.044H32.42V24.66a2.9,2.9,0,0,1-2.482,1.455c-2.168,0-3.538-1.4-3.538-3.88V16.957h2.368v4.879c0,1.369.77,2,1.712,2a1.864,1.864,0,0,0,1.94-2.111V16.9Z" transform="translate(-18.868 -12.078)"/>
      <path id="Path_199" data-name="Path 199" class="cls-2" d="M95.841,23.712a2.337,2.337,0,0,1-2.967-1.141l6.619-2a6.536,6.536,0,0,0-.2-.8,4.66,4.66,0,0,0-2.254-2.882,4.4,4.4,0,0,0-3.509-.285,4.782,4.782,0,0,0-2.825,2.2,4.487,4.487,0,0,0-.314,3.652,4.544,4.544,0,0,0,5.849,3.167,4.927,4.927,0,0,0,3.281-2.939H97.3a2.186,2.186,0,0,1-1.455,1.027ZM92.417,21.03a2.268,2.268,0,0,1,1.74-2.539A2.174,2.174,0,0,1,96.9,19.66L92.417,21.03Z" transform="translate(-64.429 -11.7)"/>
      <path id="Path_200" data-name="Path 200" class="cls-2" d="M63.31,21.863c-2.368-.685-2.625-1.712-2.625-2.825a2.382,2.382,0,0,1,1-1.912,3.7,3.7,0,0,1,2.4-.827,4.176,4.176,0,0,1,2.482.713,2.621,2.621,0,0,1,1.113,2.2H65.421c-.029-.628-.628-.942-1.255-.942-.77,0-1.17.285-1.17.913,0,.342.314.6.97.77l1.541.371a2.837,2.837,0,0,1,2.425,2.767A2.408,2.408,0,0,1,66.791,25.2a4.747,4.747,0,0,1-2.653.742,4.334,4.334,0,0,1-2.6-.827A2.851,2.851,0,0,1,60.4,22.834h2.254A1.57,1.57,0,0,0,64.366,24c.685-.029,1.2-.4,1.2-.942.029-.456-.285-.713-1-.884l-1.255-.314Z" transform="translate(-43.167 -11.65)"/>
    </g>
    <g id="Group_152" data-name="Group 152" transform="translate(1097.679 1946.99)">
      <path id="Path_281" data-name="Path 281" class="cls-2" d="M0,3.727A3.6,3.6,0,0,1,3.662,0,3.227,3.227,0,0,1,6.42,1.422l-.754.431A2.432,2.432,0,0,0,3.662.8,2.762,2.762,0,0,0,.926,3.727a2.775,2.775,0,0,0,2.736,2.93,2.379,2.379,0,0,0,2-1.056l.776.431A3.273,3.273,0,0,1,3.662,7.454,3.608,3.608,0,0,1,0,3.727Z"/>
      <path id="Path_282" data-name="Path 282" class="cls-2" d="M34.9,11.836a2.589,2.589,0,1,1,5.171,0,2.589,2.589,0,1,1-5.171,0Zm4.309,0a1.752,1.752,0,1,0-3.469,0,1.755,1.755,0,1,0,3.469,0Z" transform="translate(-27.381 -7.14)"/>
      <path id="Path_283" data-name="Path 283" class="cls-2" d="M66.2.6h.819V7.8H66.2Z" transform="translate(-51.938 -0.471)"/>
      <path id="Path_284" data-name="Path 284" class="cls-2" d="M77.3,11.836a2.589,2.589,0,1,1,5.171,0,2.589,2.589,0,1,1-5.171,0Zm4.309,0a1.752,1.752,0,1,0-3.469,0,1.755,1.755,0,1,0,3.469,0Z" transform="translate(-60.647 -7.14)"/>
      <path id="Path_285" data-name="Path 285" class="cls-2" d="M114.734,10.988c0-.668-.3-1.077-.97-1.077a1.8,1.8,0,0,0-1.379.8v3.835h-.819V10.988c0-.668-.28-1.077-.969-1.077a1.8,1.8,0,0,0-1.379.819v3.813H108.4V9.329h.819v.754A2.235,2.235,0,0,1,110.9,9.2a1.336,1.336,0,0,1,1.4.969,2.207,2.207,0,0,1,1.745-.969c.948,0,1.465.539,1.465,1.573v3.77h-.819V10.988Z" transform="translate(-85.046 -7.218)"/>
      <path id="Path_286" data-name="Path 286" class="cls-2" d="M150.4.6h.819V3.379a2.177,2.177,0,0,1,1.767-.926c1.357,0,2.327,1.077,2.327,2.736,0,1.7-.969,2.736-2.327,2.736a2.242,2.242,0,0,1-1.767-.9V7.8H150.4Zm2.348,6.592c1.056,0,1.68-.862,1.68-2,0-1.163-.625-2.025-1.68-2.025A1.917,1.917,0,0,0,151.2,4v2.37A1.93,1.93,0,0,0,152.748,7.192Z" transform="translate(-117.998 -0.471)"/>
      <path id="Path_287" data-name="Path 287" class="cls-2" d="M179.8,1.36a.549.549,0,1,1,1.1,0,.552.552,0,0,1-.56.539A.533.533,0,0,1,179.8,1.36Zm.129,1.379h.819V7.953h-.819Z" transform="translate(-141.064 -0.628)"/>
      <path id="Path_288" data-name="Path 288" class="cls-2" d="M195.155,13.94a2.275,2.275,0,0,1-1.724.732,1.748,1.748,0,0,1-1.831-1.724,1.721,1.721,0,0,1,1.831-1.724,2.2,2.2,0,0,1,1.724.711v-.948c0-.711-.56-1.1-1.314-1.1a2.062,2.062,0,0,0-1.594.732l-.388-.56a2.731,2.731,0,0,1,2.09-.862c1.1,0,2.025.5,2.025,1.767v3.576h-.819Zm0-1.487a1.763,1.763,0,0,0-1.443-.646,1.151,1.151,0,1,0,0,2.284,1.763,1.763,0,0,0,1.443-.646Z" transform="translate(-150.322 -7.218)"/>
    </g>
  </g>
</svg>
