<?xml version="1.0" encoding="utf-8"?>
<!-- Generator: Adobe Illustrator 22.0.1, SVG Export Plug-In . SVG Version: 6.00 Build 0)  -->
<svg version="1.1" id="Capa_1" xmlns="http://www.w3.org/2000/svg" xmlns:xlink="http://www.w3.org/1999/xlink" x="0px" y="0px"
	 viewBox="0 0 928 946" style="enable-background:new 0 0 928 946;" xml:space="preserve">
<style type="text/css">
	.st0{fill:#FFFFFF;}
</style>
<g>
	<path class="st0" d="M700,621.4l-86.5-86.5l42.4-42.4c3.7-3.7,5.2-9,4-14.1s-4.9-9.1-9.9-10.8l-254.6-84.9
		c-5.4-1.8-11.3-0.4-15.4,3.6c-4,4-5.4,10-3.6,15.4l84.9,254.6c1.6,4.9,5.7,8.7,10.8,9.9c5.1,1.2,10.4-0.3,14.1-4l42.4-42.4
		l86.5,86.5c2.9,2.9,6.8,4.4,10.6,4.4c3.8,0,7.7-1.5,10.6-4.4l63.6-63.6C705.9,636.8,705.9,627.3,700,621.4z M625.8,674.4
		l-86.5-86.5c-5.9-5.9-15.4-5.9-21.2,0l-35.9,35.9l-67.7-203.1l203.1,67.7l-35.9,35.9c-5.9,5.9-5.9,15.4,0,21.2l86.5,86.5
		L625.8,674.4z"/>
	<path class="st0" d="M387.4,318.6c8.3,0,15-6.7,15-15v-90c0-8.3-6.7-15-15-15s-15,6.7-15,15v90
		C372.4,311.9,379.1,318.6,387.4,318.6z"/>
	<path class="st0" d="M270.7,255.8c-5.9-5.9-15.4-5.9-21.2,0c-5.9,5.9-5.9,15.4,0,21.2l63.6,63.6c5.9,5.9,15.4,5.9,21.2,0
		c5.9-5.9,5.9-15.4,0-21.2L270.7,255.8z"/>
	<path class="st0" d="M313.2,446.7l-63.6,63.6c-5.9,5.9-5.9,15.4,0,21.2c5.9,5.9,15.4,5.9,21.2,0l63.6-63.6c5.9-5.9,5.9-15.4,0-21.2
		S319,440.8,313.2,446.7z"/>
	<path class="st0" d="M461.6,340.6l63.6-63.6c5.9-5.9,5.9-15.4,0-21.2c-5.9-5.9-15.4-5.9-21.2,0l-63.6,63.6
		c-5.9,5.9-5.9,15.4,0,21.2C446.3,346.5,455.8,346.5,461.6,340.6z"/>
	<path class="st0" d="M312.4,393.6c0-8.3-6.7-15-15-15h-90c-8.3,0-15,6.7-15,15s6.7,15,15,15h90
		C305.7,408.6,312.4,401.9,312.4,393.6z"/>
</g>
<g>
	<path class="st0" d="M464,889.5c-56.2,0-110.8-11-162.1-32.7c-49.6-21-94.1-51-132.4-89.3s-68.3-82.8-89.3-132.4
		C58.5,583.8,47.5,529.2,47.5,473c0-56.2,11-110.8,32.7-162.1c21-49.6,51-94.1,89.3-132.4c38.2-38.2,82.8-68.3,132.4-89.3
		C353.2,67.5,407.8,56.5,464,56.5s110.8,11,162.1,32.7c49.6,21,94.1,51,132.4,89.3c38.2,38.2,68.3,82.8,89.3,132.4
		c21.7,51.4,32.7,105.9,32.7,162.1c0,56.2-11,110.8-32.7,162.1c-21,49.6-51,94.1-89.3,132.4s-82.8,68.3-132.4,89.3
		C574.8,878.5,520.2,889.5,464,889.5z M464,96.5C256.4,96.5,87.5,265.4,87.5,473S256.4,849.5,464,849.5S840.5,680.6,840.5,473
		S671.6,96.5,464,96.5z"/>
</g>
</svg>
