<svg xmlns="http://www.w3.org/2000/svg" width="88" height="88" viewBox="0 0 88 88">
  <g fill="#5B96FC">
    <path d="M16.1333906 74.8C16.5089375 74.8 16.8843125 74.6563125 17.1703125 74.3703125 17.7438594 73.7967656 17.7438594 72.8698437 17.1703125 72.2964687L5.35339062 60.4869375C5.25507812 60.4004844 2.93339063 58.3293906 2.93339063 54.2667812L2.93339063 32.2667812C2.93339063 30.6490937 4.24892188 29.3333906 5.86678125 29.3333906 7.48446875 29.3333906 8.80017187 30.6489219 8.80017187 32.2667812L8.80017187 43.8783125C8.80017187 44.6878437 9.45570312 45.3449219 10.2667812 45.3449219 11.0778594 45.3449219 11.7333906 44.6878437 11.7333906 43.8783125L11.7333906 32.2667812C11.7333906 29.0312344 9.10215625 26.4001719 5.86678125 26.4001719 2.63123437 26.4 0 29.0312344 0 32.2666094L0 54.2666094C0 59.7430625 3.31323437 62.6016875 3.36307812 62.6369219L15.0964687 74.3703125C15.3824687 74.6563125 15.7578437 74.8 16.1333906 74.8zM82.1333906 26.4C78.8978438 26.4 76.2667813 29.0312344 76.2667813 32.2666094L76.2667813 43.8781406C76.2667813 44.6876719 76.9223125 45.34475 77.7333906 45.34475 78.5444688 45.34475 79.2 44.6876719 79.2 43.8781406L79.2 32.2666094C79.2 30.6489219 80.5155313 29.3332188 82.1333906 29.3332188 83.75125 29.3332188 85.0667813 30.64875 85.0667813 32.2666094L85.0667813 54.2666094C85.0667813 58.3292188 82.7450938 60.4001406 82.56325 60.5630781L70.8296875 72.2964688C70.2561406 72.8700156 70.2561406 73.7969375 70.8296875 74.3703125 71.1156875 74.6563125 71.4912344 74.8 71.8666094 74.8 72.2421563 74.8 72.6175313 74.6563125 72.9035313 74.3703125L84.546 62.720625C84.6867656 62.6018594 88 59.7432344 88 54.2667813L88 32.2667813C88 29.0312344 85.3687656 26.4 82.1333906 26.4z"/>
    <path d="M8.88954687 52.7706094C8.95107812 54.2461563 9.592 55.6672188 10.6964687 56.7701406L18.0298594 64.1035313C18.6034062 64.6770781 19.5303281 64.6770781 20.1037031 64.1035313 20.6770781 63.5299844 20.6770781 62.6030625 20.1037031 62.0296875L12.7703125 54.6949219C12.188 54.1141563 11.8507812 53.3881563 11.8213906 52.6518438 11.790625 51.9273906 12.0589219 51.261375 12.5929375 50.7261563 13.1283281 50.1923125 13.7764687 49.9238438 14.518625 49.9547813 15.2549375 49.9841719 15.9809375 50.3213906 16.5630781 50.9037031L26.8986094 61.2349375C26.9969219 61.3244844 29.3332187 63.4569375 29.3332187 67.4667813L29.3332187 74.8C29.3332187 75.6095313 29.98875 76.2666094 30.7998281 76.2666094 31.6109062 76.2666094 32.2664375 75.6095313 32.2664375 74.8L32.2664375 67.4666094C32.2664375 62.0692188 28.9679844 59.1476875 28.9033594 59.0962969L18.6369219 48.8296875C17.534 47.7252188 16.1127656 47.0842969 14.6387656 47.0227656 13.0826094 46.9626094 11.6321562 47.5390781 10.5189219 48.6523125 9.4043125 49.7655469 8.82646875 51.2292344 8.88954687 52.7706094zM33.7333906 79.2L10.2666094 79.2C9.45553125 79.2 8.8 79.8570781 8.8 80.6666094L8.8 86.5332187C8.8 87.34275 9.45553125 87.9998281 10.2666094 87.9998281 11.0776875 87.9998281 11.7332187 87.34275 11.7332187 86.5332187L11.7332187 82.1332187 32.2666094 82.1332187 32.2666094 86.5332187C32.2666094 87.34275 32.9221406 87.9998281 33.7332187 87.9998281 34.5442969 87.9998281 35.1998281 87.34275 35.1998281 86.5332187L35.1998281 80.6666094C35.2 79.8570781 34.5444687 79.2 33.7333906 79.2zM55.7333906 67.4666094L55.7333906 74.8C55.7333906 75.6095312 56.3889219 76.2666094 57.2 76.2666094 58.0110781 76.2666094 58.6666094 75.6095313 58.6666094 74.8L58.6666094 67.4666094C58.6666094 63.4567656 61.0030781 61.3241406 61.1701406 61.1701406L71.43675 50.9035312C72.0190625 50.3212187 72.7450625 49.984 73.4812031 49.9546094 74.2292031 49.9238437 74.8716719 50.1921406 75.4068906 50.7259844 75.9407344 51.261375 76.2092031 51.9272187 76.1784375 52.6516719 76.1490469 53.3879844 75.8118281 54.1139844 75.2295156 54.696125L67.8964687 62.0296875C67.3229219 62.6032344 67.3229219 63.5301562 67.8964687 64.1035312 68.4698437 64.6770781 69.3969375 64.6770781 69.9703125 64.1035312L77.3037031 56.7716875C78.4081719 55.6672187 79.0490937 54.2461562 79.110625 52.7706094 79.1737031 51.2290625 78.5958594 49.765375 77.4810781 48.6521406 76.3678437 47.5389062 74.9187656 46.9610625 73.3612344 47.0225937 71.8872344 47.084125 70.466 47.7250469 69.3630781 48.8295156L59.1726094 59.0258281C59.0318437 59.1476875 55.7333906 62.0693906 55.7333906 67.4666094zM44 16.1333906C45.6176875 16.1333906 46.9333906 17.4489219 46.9333906 19.0667812 46.9333906 19.8763125 47.5889219 20.5333906 48.4 20.5333906 49.2110781 20.5333906 49.8666094 19.8763125 49.8666094 19.0667812 49.8666094 16.3417031 47.9907656 14.0640156 45.4666094 13.4083125L45.4666094 13.2C45.4666094 12.3904687 44.8110781 11.7333906 44 11.7333906 43.1889219 11.7333906 42.5333906 12.3904687 42.5333906 13.2L42.5333906 13.4083125C40.0092344 14.0638437 38.1333906 16.3417031 38.1333906 19.0667812 38.1333906 22.3023281 40.764625 24.9333906 44 24.9333906 45.6176875 24.9333906 46.9333906 26.2489219 46.9333906 27.8667812 46.9333906 29.4844687 45.6178594 30.8001719 44 30.8001719 42.3823125 30.8001719 41.0666094 29.4846406 41.0666094 27.8667812 41.0666094 27.05725 40.4110781 26.4001719 39.6 26.4001719 38.7889219 26.4001719 38.1333906 27.05725 38.1333906 27.8667812 38.1333906 30.5918594 40.0092344 32.8695469 42.5333906 33.52525L42.5333906 33.7335625C42.5333906 34.5430937 43.1889219 35.2001719 44 35.2001719 44.8110781 35.2001719 45.4666094 34.5430937 45.4666094 33.7335625L45.4666094 33.52525C47.9907656 32.8697187 49.8666094 30.5918594 49.8666094 27.8667812 49.8666094 24.6312344 47.2355469 22 44 22 42.3823125 22 41.0666094 20.6844687 41.0666094 19.0666094 41.0666094 17.4489219 42.3823125 16.1333906 44 16.1333906zM77.7333906 79.2L54.2666094 79.2C53.4555312 79.2 52.8 79.8570781 52.8 80.6666094L52.8 86.5332187C52.8 87.34275 53.4555312 87.9998281 54.2666094 87.9998281 55.0776875 87.9998281 55.7332187 87.34275 55.7332187 86.5332187L55.7332187 82.1332187 76.2666094 82.1332187 76.2666094 86.5332187C76.2666094 87.34275 76.9221406 87.9998281 77.7332187 87.9998281 78.5442969 87.9998281 79.1998281 87.34275 79.1998281 86.5332187L79.1998281 80.6666094C79.2 79.8570781 78.5444687 79.2 77.7333906 79.2z"/>
    <path d="M67.4666094,23.4666094 C67.4666094,10.5276875 56.9389219,0 44,0 C31.0610781,0 20.5333906,10.5276875 20.5333906,23.4666094 C20.5333906,36.4055312 31.0610781,46.9333906 44,46.9333906 C56.9389219,46.9333906 67.4666094,36.4055312 67.4666094,23.4666094 Z M44,44 C32.6773906,44 23.4666094,34.7893906 23.4666094,23.4666094 C23.4666094,12.1438281 32.6773906,2.93339063 44,2.93339063 C55.3226094,2.93339063 64.5333906,12.144 64.5333906,23.4667812 C64.5333906,34.7895625 55.3226094,44 44,44 Z"/>
  </g>
</svg>
