<svg xmlns="http://www.w3.org/2000/svg" xmlns:xlink="http://www.w3.org/1999/xlink" width="375" height="195.168" viewBox="0 0 375 195.168"><defs><style>.a{fill:#009cde;}.b{clip-path:url(#a);}.c{fill:url(#b);}.d{fill:#2b3a52;}.e{fill:#f0a978;}.f{fill:#cd3046;}.g{fill:#f4e7cf;}.h{fill:#b47b54;}.i{fill:#202c34;}.j{fill:#fcc490;}.k{fill:#006594;}.l{fill:#fdddc2;}.m{fill:#fff;}.n{fill:#dda079;}.o{fill:#1d1d1d;}.p{fill:#e7664f;}.q{fill:#0077ad;}.r{fill:#ffd062;}.s{fill:#00b8ff;}.t{fill:#ee7144;}.u{fill:#fc715b;}.v{fill:#a7673b;}.w{fill:#1e2b38;}</style><clipPath id="a"><path class="a" d="M0,0H181.869s22.194-25.168,43.787-25.168S268.242,0,268.242,0H375V170H0Z" transform="translate(1337 5259)"/></clipPath><linearGradient id="b" x1="1" x2="0" y2="1" gradientUnits="objectBoundingBox"><stop offset="0" stop-color="#5b96fc"/><stop offset="1" stop-color="#009cde"/></linearGradient></defs><g class="b" transform="translate(-1337 -5233.832)"><rect class="c" width="375" height="170" transform="translate(1337 5259)"/><g transform="translate(1596.82 5270.188)"><path class="d" d="M298.108,138.73c3.193-19.462,55.773-43.9,72.417-26.534-.336-9.313-.462-23.62-.462-23.62l12.481-.78s35.2,81.228,10.393,87.416c-7.8,1.946-10.812-2.163-11.086-2.193,1.187,10.605,2.117,19.613,2.434,23.406H313.7c-.616-2.8-1.574-9.75-2.2-12.632-2.631,3.023-3.8,12.632-3.8,12.632H286.584C290.415,174.137,295.267,156.04,298.108,138.73Z" transform="translate(-286.584 -36.097)"/><g transform="translate(7.871 3.588)"><path class="e" d="M325.251,98.243s1.019-12.509-4.314-14.852A27.25,27.25,0,0,1,308.127,72.2c-2.989,2.948-18.725-15.568-7.53-12.878.244.058-3.492-5.742-2.391-11.748,1.57-8.568,9.084-18.5,18.724-20.53,13.337-2.807,23.259,3.779,26.9,13.71a25.434,25.434,0,0,1,1.521,8.761c0,.932,2.691-4.252,5.153-2.816,3.071,1.79-.393,16.436-3.841,16.385-.4,7.256-.831,11.178-6.081,16.263-4.174,4.043-2.34,9.547-.56,13.347.936,2,11.181,0,11.181,0s-.839,5.33-14.662,9.687c-14.37,4.529-19.295,2.512-17.821,1.75C318.723,104.132,325.576,99.509,325.251,98.243Z" transform="translate(-296.629 -26.394)"/><path class="f" d="M324.968,78.253c-.641.98,4.144,3.945,8.94,2.842,5.431-1.249,7.238-6.214,6.415-6.681-.6-.341-2.616,1.1-7.037,2.39C328.448,78.212,325.5,77.432,324.968,78.253Z" transform="translate(-302.75 -36.777)"/><path class="g" d="M328.061,77.881a8.389,8.389,0,0,0,5.718,1c3.471-.58,4.979-2.587,5.338-3.853A40.888,40.888,0,0,1,328.061,77.881Z" transform="translate(-303.432 -36.922)"/><path class="h" d="M331.063,72.1l3.7-1.389a1.741,1.741,0,0,0,.66-2.8,2.735,2.735,0,0,1-1.012,1.591c-1.232.993-3.162,1.749-4.164,1.244-.871-.438-.6-4.365-.243-7.564-.729.187-1.266,2.646-1.262,3.538l-.049,3.764A1.744,1.744,0,0,0,331.063,72.1Z" transform="translate(-303.57 -34.358)"/></g><path class="i" d="M311.352,44.259c5.538-6.338,11.455-13.025,16.112-11.408,3.037,1.055,9.146,11.862,12.715,18.612a1.933,1.933,0,0,0,3.58-.411c.576-2.326-.259-2.684,1.356-2.526.354-5.7,1.71-17.969-9.24-24.264-10.769-6.192-35.6-.3-39.485,13.908-1.536,5.616-1.152,10.456,2.141,20.833,2.081-1.182,2.9.636,7.258,5.627,2.047.685,2.217-1.505,3.194-1.367C308.983,63.262,303.631,53.094,311.352,44.259Z" transform="translate(-288.519 -21.814)"/><path class="e" d="M389.379,75.531c-2.691-3-4.523-6.212-4.9-9.971a111.436,111.436,0,0,1-.284-13.8s-11.106-17.26-7.743-19.106C379.55,30.959,388.351,50,388.351,50s-5.121-22.222-.466-22.467c2.883-.152,5.211,21.95,5.211,21.95s1.114-2.412,2.746-2.4c2.756.026,3.055,3.386,3.055,3.386a2.2,2.2,0,0,1,3.487-1.308c1.71.95,4.728,14.977,3.77,17.555a32.319,32.319,0,0,1-4.292,8.034Z" transform="translate(-305.9 -23.051)"/><path class="j" d="M397.551,60.286a4.193,4.193,0,0,1,2.626,3.8c.183,1.672-2.765,4.207-2.692,4.65s2.945,4.819-.07,9.88c-2.461,4.132-5.432,4.031-5.432,4.031s-6.5-7.146-3.714-11.865c2.629-4.447,6.358-5.384,7.408-6.347S397.551,60.286,397.551,60.286Z" transform="translate(-308.444 -30.142)"/></g><g transform="translate(1348.039 5266.351)"><path class="k" d="M119.935,130.464C116.671,110.57,62.922,85.59,45.907,103.34c-2.973-15.286-6.416-28.816-6.416-28.816l-12.726,1.22S5.484,141.031,16.325,161.6c2.122,4.026,12.881,3.962,17.159,3.963a7.816,7.816,0,0,0,.845-.047c-1.214,10.841-2.165,20.049-2.488,23.926h72.153c.63-2.86,1.61-9.965,2.244-12.913,2.69,3.09,3.884,12.913,3.884,12.913h21.592C127.8,166.658,122.839,148.159,119.935,130.464Z" transform="translate(-13.247 -25.821)"/><path class="j" d="M41.745,59.214c2.231-3.461,3.562-7,3.331-10.852a113.875,113.875,0,0,0-1.941-13.973s8.425-19.209,4.732-20.532c-3.4-1.216-9.208,19.417-9.208,19.417S40.241,10.017,35.5,10.518c-2.935.31-1.716,23-1.716,23s-1.514-2.256-3.158-1.978c-2.778.469-2.537,3.909-2.537,3.909a2.248,2.248,0,0,0-3.73-.759c-1.573,1.234-2.355,15.879-.971,18.328a33.057,33.057,0,0,0,5.63,7.419Z" transform="translate(-15.502 -10.51)"/><path class="l" d="M33.538,42.855a4.76,4.76,0,0,0-2.263,4.735c.1,1.908,3.857,4.225,3.855,4.735S32.691,58.259,36.981,63.4c3.5,4.2,6.819,3.552,6.819,3.552s6.013-9.18,2.038-13.976c-3.748-4.521-8.1-4.905-9.452-5.8S33.538,42.855,33.538,42.855Z" transform="translate(-17.556 -18.246)"/><g transform="translate(51.955 2.299)"><path class="j" d="M108.566,88.971s-1.042-12.787,4.41-15.182a27.859,27.859,0,0,0,13.095-11.438c3.055,3.014,19.141-15.914,7.7-13.165-.248.06,3.571-5.87,2.445-12.009-1.605-8.759-9.286-18.913-19.141-20.988-13.634-2.87-23.777,3.863-27.5,14.015a25.978,25.978,0,0,0-1.555,8.956c0,.953-2.75-4.346-5.268-2.878-3.139,1.83.4,16.8,3.927,16.749.4,7.417.849,11.426,6.216,16.624,4.267,4.134,2.393,9.761.573,13.644-.958,2.044-11.43,0-11.43,0s.858,5.449,14.988,9.9c14.69,4.63,20.129,1.358,18.621.579C115.643,93.781,108.233,90.265,108.566,88.971Z" transform="translate(-81.534 -14.009)"/><path class="f" d="M120.674,70c.655,1-4.236,4.033-9.139,2.906-5.553-1.276-7.4-6.351-6.558-6.829.614-.349,2.675,1.127,7.194,2.442C117.116,69.958,120.126,69.162,120.674,70Z" transform="translate(-87.094 -26.087)"/><path class="g" d="M118.877,69.641a8.576,8.576,0,0,1-5.846,1.027c-3.548-.593-5.09-2.645-5.457-3.938A41.813,41.813,0,0,0,118.877,69.641Z" transform="translate(-87.762 -26.256)"/><path class="m" d="M133.761,55.714a.783.783,0,1,0,.954-.563A.783.783,0,0,0,133.761,55.714Z" transform="translate(-94.019 -23.48)"/><path class="n" d="M117.034,63.373l-3.784-1.42a1.779,1.779,0,0,1-.674-2.861,2.8,2.8,0,0,0,1.034,1.627c1.259,1.014,3.231,1.787,4.256,1.272.891-.448.617-4.462.249-7.732.745.191,1.295,2.7,1.29,3.616l.049,3.848A1.783,1.783,0,0,1,117.034,63.373Z" transform="translate(-88.847 -23.273)"/><path class="o" d="M119.116,39c-5.661-6.478-7.7-8.035-11.526-11.857-1.121-1.119-4.14,2.79-7.011,5.6-3.083,3.019-7.054.971-5.842-7.269.364-2.474.814-5.75,4.143-8.257,7.079-5.332,19.389-3.868,25.059-1.854,3.248,1.154,11.391,6.345,15.263,14.368,4.5,9.329-6.873,28.227-8.659,30.03-2.372,2.394-3.462-.32-3.609-1.25C125.317,48.288,125.347,46.128,119.116,39Z" transform="translate(-84.638 -13.532)"/></g></g><path class="p" d="M171.364,79.932a36.346,36.346,0,0,1,7.778,1.171,45.942,45.942,0,0,1,6.915,2.5,62.053,62.053,0,0,1-7.482-1.317C175.525,81.466,171.364,79.932,171.364,79.932Z" transform="translate(1308.439 5227.679)"/><path class="q" d="M177.673,206.834c1.336-5.917,3.033-13.067,4.472-19.747a68.424,68.424,0,0,0,18.472,15.1c2.548,1.4,5.144,2.749,7.746,4.037h22.465c-7.04-4.289-14.585-10.084-20.112-17.476C198.1,171.878,192.6,163.431,193.846,149.63c2.7-29.861-63.482-46.077-74.333-18.636-4.29,10.849-8.049,23.54-11.7,38.435-2.129,8.686-3.793,22.878-4.467,37.4Z" transform="translate(1319.776 5223.068)"/><path class="l" d="M175.811,105.334s-.722-10.348,5.258-12.7c7.963-3.137,11.494-7.158,15.436-11.237,2.86,2.821,8.967-5.506,7.882-9.178-.426-1.442.328-3.166.435-3.723,2.971-15.508-8.262-28.477-23.953-31.779-17.385-3.66-25.252,6.006-29.224,19.3-2.15,7.2-3.39,15.112-.091,15.063,1.882,4.886,4.562,11.309,9.585,16.175,3.993,3.868,1.344,9.955.032,13.748a2.663,2.663,0,0,1-2.59,1.784s-9.678.386-9.912,2.744c-.749,7.562.567,14.055,13.927,17.112,12.659,2.9,20.967-10.957,19.556-11.687C182.15,110.957,175.5,106.545,175.811,105.334Z" transform="translate(1312.25 5235.012)"/><path class="p" d="M186.02,83.6c.613.939-3.965,3.775-8.554,2.72-5.2-1.195-6.925-5.945-6.138-6.392.574-.327,2.5,1.055,6.733,2.286C182.69,83.557,185.508,82.811,186.02,83.6Z" transform="translate(1308.476 5227.688)"/><path class="g" d="M184.336,83.487a8.03,8.03,0,0,1-5.472.961c-3.322-.555-4.764-2.476-5.108-3.687A39.191,39.191,0,0,0,184.336,83.487Z" transform="translate(1308.041 5227.54)"/><path class="n" d="M182.174,78.85l-3.7-.924a1.665,1.665,0,0,1-.632-2.677,2.62,2.62,0,0,0,.968,1.522,4.38,4.38,0,0,0,4.047,1.088,3.124,3.124,0,0,0,1.423-1.027C184.277,77.991,183.523,79.148,182.174,78.85Z" transform="translate(1307.432 5228.458)"/><path class="r" d="M277.792,183.96l13.655-2.865,1.154,2.865-14.809,2.893Z" transform="translate(1290.701 5210.817)"/><path class="s" d="M184.432,126.4c-1.495,1.02-8.594,16.592-23.135,13.626-19.529-3.983-16.116-21.843-16.116-21.843s-4.651.887-4.363,1.751.807,19.933,18.317,23.034c19.743,3.5,27.574-15.092,27.574-15.092Z" transform="translate(1313.532 5221.303)"/><path class="t" d="M184.564,59.162c-5.3-6.064-10.254-13.5-14.711-11.95-4.255,1.478-17.389,15.826-17.389,15.826s-1.649-4.325-3.238-1.338c-2.065,3.882-2.373,7.987,1.743,9.393,1.743,10.149,11.458,15.607,10.959,21.387-1.463,3.563-5.338,24.6-5.338,24.6l-22.712,5.816s-2.22-68.06,22.342-82.463c13.577-7.962,33.369-8.962,43.884,9.8,2.725,4.861,4.988,11.911,1.836,21.84-2.867-1.63-3.458.681-6.04,4.643C190.705,77.29,191.951,67.616,184.564,59.162Z" transform="translate(1314.696 5235.162)"/><g transform="translate(-40.997 -34.058)"><path class="j" d="M452.529,125.9c-61.61,30.23-108.046,28.381-152.4,24.282-23.74-2.195-8.747,18.716-.927,22.8,53.483,27.958,110.881,17.132,153.326.564Z" transform="translate(1341.465 5237.102)"/><path class="j" d="M233.848,152.724c-51.192,3.986-89.007,1.12-109.423-4.662C98.3,140.662,40.169,135.267,0,119.845V170.51C52.082,189.6,173.248,206.293,237.265,175.9,245.945,171.777,261.249,150.591,233.848,152.724Z" transform="translate(1337 5237.008)"/><path class="m" d="M224.45,226.818h87.337c-3.015-19.385-6.686-38.963-10.139-53.937a152.911,152.911,0,0,0,68.406,16.955V150.582c-17.466,1.767-57.914,3.207-80.707-4.179-9.456-3.064-38.5-.5-49.535,1.765-19.812,4.061-64.163,6.494-84.259,4.867l-.144,38.871c25.835-.952,51.106-3.716,75.663-14.691C227.622,193.1,225.762,209.542,224.45,226.818Z" transform="translate(1339.415 5237.398)"/><path class="u" d="M165.476,153.364l-5.269-.112v38.324l5.269-.28Z" transform="translate(1339.49 5237.527)"/><path class="u" d="M357.548,189.318c-.061-.063,0-38.29,0-38.29l4.586-.354v38.938Z" transform="translate(1342.557 5237.487)"/><g transform="translate(1551.699 5274.07)"><path class="j" d="M252.649,144.2c3-6.185,5.457-16.053-7.41-21.641a45,45,0,0,1-19.85-17.739c-5.156,3.225-6.025-8-7.188-14.61a46.017,46.017,0,0,1-.682-6.574q-.04-1.315,0-2.6c.731-23.886,21.587-40.368,45.857-40.088,26.89.311,40.722,18.064,42.2,39.016.8,11.34,3.081,24.074-7.166,22.646-4.392,6.6-9.091,14.172-18.118,19.709-7.177,4.4-6.357,14.692-1.977,21.838,1.061,1.73,4.638,4.122,5.505,6.464,3.856,10.42-3.666,19.713-17.684,19.13-12.222-.509-24.485-6.937-18.105-18.653C249.2,148.956,252.379,144.763,252.649,144.2Z" transform="translate(-211.319 -39.664)"/><path class="t" d="M249.769,97.256c-1.216,1.184,4.612,6.88,11.74,6.831,8.07-.057,12.192-6.506,11.177-7.426-.74-.671-4.047.735-10.7,1.164C254.7,98.293,250.786,96.265,249.769,97.256Z" transform="translate(-210.82 -38.801)"/><path class="g" d="M253.283,97.28a10.9,10.9,0,0,0,8.089,3.341c4.268-.136,7.532-2.213,8.439-3.889A59.306,59.306,0,0,1,253.283,97.28Z" transform="translate(-210.763 -38.797)"/><path class="t" d="M272.813,96.888c-1.219-1.287-7.607-1.507-11.326-1.28-5.087.312-10.971.343-11.878,2.018,2.925-.493,7.494.357,11.842.279C265.825,97.827,270.19,96.6,272.813,96.888Z" transform="translate(-210.82 -38.816)"/><path class="v" d="M258.285,92.327l5.726-.122A2.523,2.523,0,0,0,266.26,88.7a3.971,3.971,0,0,1-2.149,1.688c-2.16.765-3.625,1.092-5.73.393a5.733,5.733,0,0,1-2.238-1.46A2.111,2.111,0,0,0,258.285,92.327Z" transform="translate(-210.721 -38.922)"/><path class="w" d="M291.638,79.667c-.876,6.121,2.114,11,6.173,11.754,0,0-.254-3.346,2.788-4.172,1.518-.412,4.113.3,5.526,3.762.441,4.651-1.256,10.975-8.016,9.732-3.863,7.122-8.752,14.13-19.461,21.907-4.7,3.649-3.577,10.947-3.023,14.813,12.557,7,25.461-4.529,30.623-10.588,21.966-25.778-4.877-68.99-14.578-77.548-9.414-8.3-25.9-10.439-34.363-9.4s-22.448,4.828-31.039,16.151c-17.687,23.315-22.226,69.253,1.119,80.741,9.1,4.479,23.277,4.15,27.707-.023a17.8,17.8,0,0,0-1.3-8.08c-2.794-7.872-14.632-7.29-25.731-25.454-5.169,2.79-8.167-5.113-7.585-8.8.972-6.154,8.382-7.411,8.154-.843,0,0,5.18-2.879,3.136-13.372C235.077,76.67,288.948,74.18,291.638,79.667Z" transform="translate(-211.413 -39.684)"/></g></g></g></svg>