<svg xmlns="http://www.w3.org/2000/svg" width="22" height="15.898" viewBox="0 0 22 15.898"><defs><style>.a{fill:#1d1d1d;}</style></defs><path class="a" d="M21.977,11.717a5.949,5.949,0,0,0-3.511-4.45,3.649,3.649,0,0,0,1.3-2.8,3.567,3.567,0,1,0-7.133,0,3.649,3.649,0,0,0,1.3,2.8,5.82,5.82,0,0,0-.859.454A5.944,5.944,0,0,0,11.34,9.434a7.33,7.33,0,0,0-1.487-.761A4.524,4.524,0,0,0,11.721,5,4.466,4.466,0,0,0,7.3.5,4.466,4.466,0,0,0,2.882,5,4.524,4.524,0,0,0,4.749,8.674,7.49,7.49,0,0,0,.026,14.4,1.7,1.7,0,0,0,.4,15.795a1.676,1.676,0,0,0,1.287.6H12.919a1.676,1.676,0,0,0,1.287-.6,1.7,1.7,0,0,0,.372-1.393,7.7,7.7,0,0,0-.238-.969h6.21a1.443,1.443,0,0,0,1.108-.519A1.462,1.462,0,0,0,21.977,11.717ZM13.923,4.465a2.278,2.278,0,1,1,4.555,0,2.278,2.278,0,1,1-4.555,0ZM4.171,5A3.176,3.176,0,0,1,7.3,1.789,3.176,3.176,0,0,1,10.432,5,3.176,3.176,0,0,1,7.3,8.213,3.176,3.176,0,0,1,4.171,5Zm9.046,9.966a.388.388,0,0,1-.3.142H1.684a.388.388,0,0,1-.3-.142.411.411,0,0,1-.09-.339A6.14,6.14,0,0,1,7.3,9.5a6.14,6.14,0,0,1,6.007,5.125A.41.41,0,0,1,13.218,14.967Zm7.452-2.881a.157.157,0,0,1-.12.058H13.8a7.5,7.5,0,0,0-1.446-1.9A4.533,4.533,0,0,1,16.2,8.095a4.607,4.607,0,0,1,4.506,3.848A.173.173,0,0,1,20.669,12.086Zm0,0" transform="translate(0.001 -0.5)"/></svg>