<svg id="Group_33" data-name="Group 33" xmlns="http://www.w3.org/2000/svg" viewBox="0 0 99.484 30">
  <defs>
    <style>
      .cls-1 {
        fill: none;
      }

      .cls-2 {
        fill: #009cde;
        stroke: #009cde;
        stroke-miterlimit: 10;
        stroke-width: 0.25px;
        font-size: 5px;
        font-family: Minecraft;
      }
    </style>
  </defs>
  <g id="Ilustración_29_1_">
    <g id="Group_31" data-name="Group 31">
      <path id="Path_39" data-name="Path 39" class="cls-1" d="M139,32.4a.215.215,0,0,0-.2-.2h-.2v.336h.2C138.936,32.6,139,32.536,139,32.4Z" transform="translate(-45.371 -10.541)"/>
      <path id="Path_40" data-name="Path 40" class="cls-1" d="M81.9,19.8H78.671L78.2,21.414h3.229a1.151,1.151,0,0,0,1.211-.807C82.841,20,82.37,19.8,81.9,19.8Z" transform="translate(-25.599 -6.482)"/>
      <path id="Path_41" data-name="Path 41" class="cls-1" d="M64.392,24.916c1.682,0,2.556-.605,3.161-2.758s.067-2.758-1.614-2.758-2.556.673-3.161,2.758C62.172,24.378,62.643,24.916,64.392,24.916Z" transform="translate(-20.468 -6.351)"/>
      <path id="Path_42" data-name="Path 42" class="cls-1" d="M53.174,20.809a.761.761,0,0,0-.807-1.009H49.138L48.6,21.751h3.363A1.292,1.292,0,0,0,53.174,20.809Z" transform="translate(-15.909 -6.482)"/>
      <path id="Path_43" data-name="Path 43" class="cls-1" d="M137.3,32.409a1.009,1.009,0,1,0,1.009-1.009A.991.991,0,0,0,137.3,32.409Zm1.614-.269a.454.454,0,0,1-.269.4l.269.605h-.336l-.269-.538h-.135v.538h-.336V31.736h.605A.409.409,0,0,1,138.914,32.14Z" transform="translate(-44.946 -10.279)"/>
      <path id="Path_44" data-name="Path 44" d="M0,15c0,8.274,23.543,15,52.6,15h.067a166.893,166.893,0,0,0,24.215-1.682,151.834,151.834,0,0,1-17.085.874c-26.3,0-47.556-6.054-47.556-13.587,0-7.466,21.323-13.587,47.556-13.587,16.614,0,31.211,2.422,39.686,6.054C90.807,3.3,73.049,0,52.6,0,23.543,0,0,6.726,0,15Z"/>
      <path id="Path_45" data-name="Path 45" d="M83.5,19.425c.538-1.951-.269-2.825-2.422-2.825H75.156L72.6,25.748h2.287l.942-3.43h2.152c1.547,0,1.883.673,1.48,2.22a5.537,5.537,0,0,0-.135,1.211h2.422s.135-.807.269-1.278c.605-2.22-.336-2.623-.336-2.623A3.664,3.664,0,0,0,83.5,19.425Zm-2.623.135a1.151,1.151,0,0,1-1.211.807H76.434l.471-1.614h3.229C80.537,18.752,81.008,18.954,80.874,19.56Z" transform="translate(-23.766 -5.434)"/>
      <path id="Path_46" data-name="Path 46" d="M35.59,23.73H29.738L29.2,25.748h6.256a3.745,3.745,0,0,0,3.5-2.825c.4-1.547-.4-2.825-1.883-2.825H33.5c-.4,0-.605-.269-.538-.74a.918.918,0,0,1,.942-.74h5.717l.538-2.018H34.043a3.751,3.751,0,0,0-3.5,2.758c-.4,1.547.336,2.758,1.951,2.758h3.5a.586.586,0,0,1,.605.807A1.137,1.137,0,0,1,35.59,23.73Z" transform="translate(-9.559 -5.434)"/>
      <path id="Path_47" data-name="Path 47" d="M117.38,20.434l-1.48,5.314h2.22l1.009-3.632h6.188l.538-2.018h-6.188c.4-1.48.538-1.413,1.951-1.413h4.641l.605-2.085h-4.978C118.792,16.6,117.985,18.282,117.38,20.434Z" transform="translate(-37.94 -5.434)"/>
      <path id="Path_48" data-name="Path 48" d="M62.621,25.852c3.094,0,5.247-1.345,6.188-4.776.942-3.5-.471-4.776-3.565-4.776S60,17.578,59.056,21.076C58.115,24.506,59.46,25.852,62.621,25.852Zm-1.076-4.709c.538-2.085,1.48-2.758,3.161-2.758s2.22.605,1.614,2.758S64.841,23.9,63.16,23.9C61.411,23.9,60.94,23.363,61.545,21.143Z" transform="translate(-19.236 -5.336)"/>
      <path id="Path_49" data-name="Path 49" d="M134.895,18.752h4.574l.605-2.152h-5.448c-2.489,0-3.3,1.682-4.1,4.574-.874,3.229-1.009,4.574,1.547,4.574h5.516l.605-2.085h-4.574c-1.211,0-1.211,0-.807-1.547h5.785l.538-1.951h-5.785C133.684,18.752,133.751,18.752,134.895,18.752Z" transform="translate(-42.541 -5.434)"/>
      <path id="Path_50" data-name="Path 50" d="M46.327,22.721H49.69c2.556,0,3.834-1.143,4.372-3.027C54.6,17.878,53.928,16.6,51.3,16.6H45.789L43.3,25.748h2.22ZM47.4,18.752h3.229a.761.761,0,0,1,.807,1.009,1.358,1.358,0,0,1-1.211,1.009H46.865Z" transform="translate(-14.174 -5.434)"/>
      <path id="Path_51" data-name="Path 51" d="M116.209,16.6h-2.22L111.5,25.748h2.22Z" transform="translate(-36.5 -5.434)"/>
      <path id="Path_52" data-name="Path 52" d="M104.126,25.781h3.565l.538-1.883h-3.094c-1.749,0-1.951-.538-1.547-2.018L105,16.7h-2.22l-1.48,5.448C100.628,24.57,101.637,25.781,104.126,25.781Z" transform="translate(-33.095 -5.467)"/>
      <path id="Path_53" data-name="Path 53" d="M92.9,25.781l1.951-7.13h3.229l.538-1.951H89.938L89.4,18.651h3.229l-1.951,7.13Z" transform="translate(-29.265 -5.467)"/>
      <path id="Path_54" data-name="Path 54" d="M136.9,32.245a1.345,1.345,0,1,0,1.345-1.345A1.349,1.349,0,0,0,136.9,32.245Zm2.354,0a1.009,1.009,0,1,1-1.009-1.009A.991.991,0,0,1,139.254,32.245Z" transform="translate(-44.815 -10.115)"/>
      <path id="Path_55" data-name="Path 55" d="M138.1,33.28h.336v-.538h.135l.269.538h.336l-.269-.605a.454.454,0,0,0,.269-.4.46.46,0,0,0-.471-.471H138.1Zm.336-1.211h.2a.178.178,0,0,1,.2.2.215.215,0,0,1-.2.2h-.2Z" transform="translate(-45.208 -10.41)"/>
    </g>
  </g>
  <text id="MOBILE" class="cls-2" transform="translate(61.614 25.535)"><tspan x="0" y="0">MOBILE</tspan></text>
</svg>
