<svg xmlns="http://www.w3.org/2000/svg" xmlns:xlink="http://www.w3.org/1999/xlink" width="355" height="60" viewBox="0 0 355 60"><defs><style>.a{fill:#f33443;}.b{clip-path:url(#a);}.c,.d{fill:#fff;}.c{opacity:0.6;}</style><clipPath id="a"><path class="a" d="M2,0H353a2,2,0,0,1,2,2V60a0,0,0,0,1,0,0H0a0,0,0,0,1,0,0V2A2,2,0,0,1,2,0Z" transform="translate(10 204)"/></clipPath></defs><g class="b" transform="translate(-10 -204)"><path class="c" d="M11.047,0A11.047,11.047,0,1,0,22.094,11.047,11.059,11.059,0,0,0,11.047,0ZM2.023,11.047a9.016,9.016,0,0,1,14.9-6.841L4.206,16.921A8.981,8.981,0,0,1,2.023,11.047Zm9.024,9.024a8.976,8.976,0,0,1-5.36-1.77L18.3,5.687A9.018,9.018,0,0,1,11.047,20.07Z" transform="translate(122 192)"/><path class="d" d="M11.047,0A11.047,11.047,0,1,0,22.094,11.047,11.059,11.059,0,0,0,11.047,0ZM2.023,11.047a9.016,9.016,0,0,1,14.9-6.841L4.206,16.921A8.981,8.981,0,0,1,2.023,11.047Zm9.024,9.024a8.976,8.976,0,0,1-5.36-1.77L18.3,5.687A9.018,9.018,0,0,1,11.047,20.07Z" transform="translate(26 192)"/><path class="d" d="M11.047,0A11.047,11.047,0,1,0,22.094,11.047,11.059,11.059,0,0,0,11.047,0ZM2.023,11.047a9.016,9.016,0,0,1,14.9-6.841L4.206,16.921A8.981,8.981,0,0,1,2.023,11.047Zm9.024,9.024a8.976,8.976,0,0,1-5.36-1.77L18.3,5.687A9.018,9.018,0,0,1,11.047,20.07Z" transform="translate(218 192)"/><path class="d" d="M11.047,0A11.047,11.047,0,1,0,22.094,11.047,11.059,11.059,0,0,0,11.047,0ZM2.023,11.047a9.016,9.016,0,0,1,14.9-6.841L4.206,16.921A8.981,8.981,0,0,1,2.023,11.047Zm9.024,9.024a8.976,8.976,0,0,1-5.36-1.77L18.3,5.687A9.018,9.018,0,0,1,11.047,20.07Z" transform="translate(314 192)"/><path class="d" d="M11.047,0A11.047,11.047,0,1,0,22.094,11.047,11.059,11.059,0,0,0,11.047,0ZM2.023,11.047a9.016,9.016,0,0,1,14.9-6.841L4.206,16.921A8.981,8.981,0,0,1,2.023,11.047Zm9.024,9.024a8.976,8.976,0,0,1-5.36-1.77L18.3,5.687A9.018,9.018,0,0,1,11.047,20.07Z" transform="translate(154.326 200)"/><path class="c" d="M11.047,0A11.047,11.047,0,1,0,22.094,11.047,11.059,11.059,0,0,0,11.047,0ZM2.023,11.047a9.016,9.016,0,0,1,14.9-6.841L4.206,16.921A8.981,8.981,0,0,1,2.023,11.047Zm9.024,9.024a8.976,8.976,0,0,1-5.36-1.77L18.3,5.687A9.018,9.018,0,0,1,11.047,20.07Z" transform="translate(58.326 200)"/><path class="c" d="M11.047,0A11.047,11.047,0,1,0,22.094,11.047,11.059,11.059,0,0,0,11.047,0ZM2.023,11.047a9.016,9.016,0,0,1,14.9-6.841L4.206,16.921A8.981,8.981,0,0,1,2.023,11.047Zm9.024,9.024a8.976,8.976,0,0,1-5.36-1.77L18.3,5.687A9.018,9.018,0,0,1,11.047,20.07Z" transform="translate(250.326 200)"/><path class="d" d="M11.047,0A11.047,11.047,0,1,0,22.094,11.047,11.059,11.059,0,0,0,11.047,0ZM2.023,11.047a9.016,9.016,0,0,1,14.9-6.841L4.206,16.921A8.981,8.981,0,0,1,2.023,11.047Zm9.024,9.024a8.976,8.976,0,0,1-5.36-1.77L18.3,5.687A9.018,9.018,0,0,1,11.047,20.07Z" transform="translate(346.326 200)"/><path class="c" d="M11.047,0A11.047,11.047,0,1,0,22.094,11.047,11.059,11.059,0,0,0,11.047,0ZM2.023,11.047a9.016,9.016,0,0,1,14.9-6.841L4.206,16.921A8.981,8.981,0,0,1,2.023,11.047Zm9.024,9.024a8.976,8.976,0,0,1-5.36-1.77L18.3,5.687A9.018,9.018,0,0,1,11.047,20.07Z" transform="translate(186.326 197)"/><path class="d" d="M11.047,0A11.047,11.047,0,1,0,22.094,11.047,11.059,11.059,0,0,0,11.047,0ZM2.023,11.047a9.016,9.016,0,0,1,14.9-6.841L4.206,16.921A8.981,8.981,0,0,1,2.023,11.047Zm9.024,9.024a8.976,8.976,0,0,1-5.36-1.77L18.3,5.687A9.018,9.018,0,0,1,11.047,20.07Z" transform="translate(90.326 197)"/><path class="c" d="M11.047,0A11.047,11.047,0,1,0,22.094,11.047,11.059,11.059,0,0,0,11.047,0ZM2.023,11.047a9.016,9.016,0,0,1,14.9-6.841L4.206,16.921A8.981,8.981,0,0,1,2.023,11.047Zm9.024,9.024a8.976,8.976,0,0,1-5.36-1.77L18.3,5.687A9.018,9.018,0,0,1,11.047,20.07Z" transform="translate(-5.674 197)"/><path class="d" d="M11.047,0A11.047,11.047,0,1,0,22.094,11.047,11.059,11.059,0,0,0,11.047,0ZM2.023,11.047a9.016,9.016,0,0,1,14.9-6.841L4.206,16.921A8.981,8.981,0,0,1,2.023,11.047Zm9.024,9.024a8.976,8.976,0,0,1-5.36-1.77L18.3,5.687A9.018,9.018,0,0,1,11.047,20.07Z" transform="translate(282.326 197)"/><path class="d" d="M11.047,0A11.047,11.047,0,1,0,22.094,11.047,11.059,11.059,0,0,0,11.047,0ZM2.023,11.047a9.016,9.016,0,0,1,14.9-6.841L4.206,16.921A8.981,8.981,0,0,1,2.023,11.047Zm9.024,9.024a8.976,8.976,0,0,1-5.36-1.77L18.3,5.687A9.018,9.018,0,0,1,11.047,20.07Z" transform="translate(122 219)"/><path class="d" d="M11.047,0A11.047,11.047,0,1,0,22.094,11.047,11.059,11.059,0,0,0,11.047,0ZM2.023,11.047a9.016,9.016,0,0,1,14.9-6.841L4.206,16.921A8.981,8.981,0,0,1,2.023,11.047Zm9.024,9.024a8.976,8.976,0,0,1-5.36-1.77L18.3,5.687A9.018,9.018,0,0,1,11.047,20.07Z" transform="translate(26 219)"/><path class="d" d="M11.047,0A11.047,11.047,0,1,0,22.094,11.047,11.059,11.059,0,0,0,11.047,0ZM2.023,11.047a9.016,9.016,0,0,1,14.9-6.841L4.206,16.921A8.981,8.981,0,0,1,2.023,11.047Zm9.024,9.024a8.976,8.976,0,0,1-5.36-1.77L18.3,5.687A9.018,9.018,0,0,1,11.047,20.07Z" transform="translate(218 219)"/><path class="c" d="M11.047,0A11.047,11.047,0,1,0,22.094,11.047,11.059,11.059,0,0,0,11.047,0ZM2.023,11.047a9.016,9.016,0,0,1,14.9-6.841L4.206,16.921A8.981,8.981,0,0,1,2.023,11.047Zm9.024,9.024a8.976,8.976,0,0,1-5.36-1.77L18.3,5.687A9.018,9.018,0,0,1,11.047,20.07Z" transform="translate(314 219)"/><path class="d" d="M11.047,0A11.047,11.047,0,1,0,22.094,11.047,11.059,11.059,0,0,0,11.047,0ZM2.023,11.047a9.016,9.016,0,0,1,14.9-6.841L4.206,16.921A8.981,8.981,0,0,1,2.023,11.047Zm9.024,9.024a8.976,8.976,0,0,1-5.36-1.77L18.3,5.687A9.018,9.018,0,0,1,11.047,20.07Z" transform="translate(154.326 227)"/><path class="d" d="M11.047,0A11.047,11.047,0,1,0,22.094,11.047,11.059,11.059,0,0,0,11.047,0ZM2.023,11.047a9.016,9.016,0,0,1,14.9-6.841L4.206,16.921A8.981,8.981,0,0,1,2.023,11.047Zm9.024,9.024a8.976,8.976,0,0,1-5.36-1.77L18.3,5.687A9.018,9.018,0,0,1,11.047,20.07Z" transform="translate(58.326 227)"/><path class="d" d="M11.047,0A11.047,11.047,0,1,0,22.094,11.047,11.059,11.059,0,0,0,11.047,0ZM2.023,11.047a9.016,9.016,0,0,1,14.9-6.841L4.206,16.921A8.981,8.981,0,0,1,2.023,11.047Zm9.024,9.024a8.976,8.976,0,0,1-5.36-1.77L18.3,5.687A9.018,9.018,0,0,1,11.047,20.07Z" transform="translate(250.326 227)"/><path class="d" d="M11.047,0A11.047,11.047,0,1,0,22.094,11.047,11.059,11.059,0,0,0,11.047,0ZM2.023,11.047a9.016,9.016,0,0,1,14.9-6.841L4.206,16.921A8.981,8.981,0,0,1,2.023,11.047Zm9.024,9.024a8.976,8.976,0,0,1-5.36-1.77L18.3,5.687A9.018,9.018,0,0,1,11.047,20.07Z" transform="translate(346.326 227)"/><path class="d" d="M11.047,0A11.047,11.047,0,1,0,22.094,11.047,11.059,11.059,0,0,0,11.047,0ZM2.023,11.047a9.016,9.016,0,0,1,14.9-6.841L4.206,16.921A8.981,8.981,0,0,1,2.023,11.047Zm9.024,9.024a8.976,8.976,0,0,1-5.36-1.77L18.3,5.687A9.018,9.018,0,0,1,11.047,20.07Z" transform="translate(186.326 224)"/><path class="d" d="M11.047,0A11.047,11.047,0,1,0,22.094,11.047,11.059,11.059,0,0,0,11.047,0ZM2.023,11.047a9.016,9.016,0,0,1,14.9-6.841L4.206,16.921A8.981,8.981,0,0,1,2.023,11.047Zm9.024,9.024a8.976,8.976,0,0,1-5.36-1.77L18.3,5.687A9.018,9.018,0,0,1,11.047,20.07Z" transform="translate(90.326 224)"/><path class="d" d="M11.047,0A11.047,11.047,0,1,0,22.094,11.047,11.059,11.059,0,0,0,11.047,0ZM2.023,11.047a9.016,9.016,0,0,1,14.9-6.841L4.206,16.921A8.981,8.981,0,0,1,2.023,11.047Zm9.024,9.024a8.976,8.976,0,0,1-5.36-1.77L18.3,5.687A9.018,9.018,0,0,1,11.047,20.07Z" transform="translate(-5.674 224)"/><path class="d" d="M11.047,0A11.047,11.047,0,1,0,22.094,11.047,11.059,11.059,0,0,0,11.047,0ZM2.023,11.047a9.016,9.016,0,0,1,14.9-6.841L4.206,16.921A8.981,8.981,0,0,1,2.023,11.047Zm9.024,9.024a8.976,8.976,0,0,1-5.36-1.77L18.3,5.687A9.018,9.018,0,0,1,11.047,20.07Z" transform="translate(282.326 224)"/><path class="d" d="M11.047,0A11.047,11.047,0,1,0,22.094,11.047,11.059,11.059,0,0,0,11.047,0ZM2.023,11.047a9.016,9.016,0,0,1,14.9-6.841L4.206,16.921A8.981,8.981,0,0,1,2.023,11.047Zm9.024,9.024a8.976,8.976,0,0,1-5.36-1.77L18.3,5.687A9.018,9.018,0,0,1,11.047,20.07Z" transform="translate(122 249)"/><path class="c" d="M11.047,0A11.047,11.047,0,1,0,22.094,11.047,11.059,11.059,0,0,0,11.047,0ZM2.023,11.047a9.016,9.016,0,0,1,14.9-6.841L4.206,16.921A8.981,8.981,0,0,1,2.023,11.047Zm9.024,9.024a8.976,8.976,0,0,1-5.36-1.77L18.3,5.687A9.018,9.018,0,0,1,11.047,20.07Z" transform="translate(26 249)"/><path class="c" d="M11.047,0A11.047,11.047,0,1,0,22.094,11.047,11.059,11.059,0,0,0,11.047,0ZM2.023,11.047a9.016,9.016,0,0,1,14.9-6.841L4.206,16.921A8.981,8.981,0,0,1,2.023,11.047Zm9.024,9.024a8.976,8.976,0,0,1-5.36-1.77L18.3,5.687A9.018,9.018,0,0,1,11.047,20.07Z" transform="translate(218 249)"/><path class="d" d="M11.047,0A11.047,11.047,0,1,0,22.094,11.047,11.059,11.059,0,0,0,11.047,0ZM2.023,11.047a9.016,9.016,0,0,1,14.9-6.841L4.206,16.921A8.981,8.981,0,0,1,2.023,11.047Zm9.024,9.024a8.976,8.976,0,0,1-5.36-1.77L18.3,5.687A9.018,9.018,0,0,1,11.047,20.07Z" transform="translate(314 249)"/><path class="c" d="M11.047,0A11.047,11.047,0,1,0,22.094,11.047,11.059,11.059,0,0,0,11.047,0ZM2.023,11.047a9.016,9.016,0,0,1,14.9-6.841L4.206,16.921A8.981,8.981,0,0,1,2.023,11.047Zm9.024,9.024a8.976,8.976,0,0,1-5.36-1.77L18.3,5.687A9.018,9.018,0,0,1,11.047,20.07Z" transform="translate(154.326 257)"/><path class="d" d="M11.047,0A11.047,11.047,0,1,0,22.094,11.047,11.059,11.059,0,0,0,11.047,0ZM2.023,11.047a9.016,9.016,0,0,1,14.9-6.841L4.206,16.921A8.981,8.981,0,0,1,2.023,11.047Zm9.024,9.024a8.976,8.976,0,0,1-5.36-1.77L18.3,5.687A9.018,9.018,0,0,1,11.047,20.07Z" transform="translate(58.326 257)"/><path class="d" d="M11.047,0A11.047,11.047,0,1,0,22.094,11.047,11.059,11.059,0,0,0,11.047,0ZM2.023,11.047a9.016,9.016,0,0,1,14.9-6.841L4.206,16.921A8.981,8.981,0,0,1,2.023,11.047Zm9.024,9.024a8.976,8.976,0,0,1-5.36-1.77L18.3,5.687A9.018,9.018,0,0,1,11.047,20.07Z" transform="translate(250.326 257)"/><path class="c" d="M11.047,0A11.047,11.047,0,1,0,22.094,11.047,11.059,11.059,0,0,0,11.047,0ZM2.023,11.047a9.016,9.016,0,0,1,14.9-6.841L4.206,16.921A8.981,8.981,0,0,1,2.023,11.047Zm9.024,9.024a8.976,8.976,0,0,1-5.36-1.77L18.3,5.687A9.018,9.018,0,0,1,11.047,20.07Z" transform="translate(346.326 257)"/><path class="d" d="M11.047,0A11.047,11.047,0,1,0,22.094,11.047,11.059,11.059,0,0,0,11.047,0ZM2.023,11.047a9.016,9.016,0,0,1,14.9-6.841L4.206,16.921A8.981,8.981,0,0,1,2.023,11.047Zm9.024,9.024a8.976,8.976,0,0,1-5.36-1.77L18.3,5.687A9.018,9.018,0,0,1,11.047,20.07Z" transform="translate(186.326 254)"/><path class="c" d="M11.047,0A11.047,11.047,0,1,0,22.094,11.047,11.059,11.059,0,0,0,11.047,0ZM2.023,11.047a9.016,9.016,0,0,1,14.9-6.841L4.206,16.921A8.981,8.981,0,0,1,2.023,11.047Zm9.024,9.024a8.976,8.976,0,0,1-5.36-1.77L18.3,5.687A9.018,9.018,0,0,1,11.047,20.07Z" transform="translate(90.326 254)"/><path class="d" d="M11.047,0A11.047,11.047,0,1,0,22.094,11.047,11.059,11.059,0,0,0,11.047,0ZM2.023,11.047a9.016,9.016,0,0,1,14.9-6.841L4.206,16.921A8.981,8.981,0,0,1,2.023,11.047Zm9.024,9.024a8.976,8.976,0,0,1-5.36-1.77L18.3,5.687A9.018,9.018,0,0,1,11.047,20.07Z" transform="translate(-5.674 254)"/><path class="c" d="M11.047,0A11.047,11.047,0,1,0,22.094,11.047,11.059,11.059,0,0,0,11.047,0ZM2.023,11.047a9.016,9.016,0,0,1,14.9-6.841L4.206,16.921A8.981,8.981,0,0,1,2.023,11.047Zm9.024,9.024a8.976,8.976,0,0,1-5.36-1.77L18.3,5.687A9.018,9.018,0,0,1,11.047,20.07Z" transform="translate(282.326 254)"/></g></svg>