<svg xmlns="http://www.w3.org/2000/svg" width="207.651" height="150.375" viewBox="0 0 207.651 150.375"><defs><style>.a{fill:#dcdee2;}.b{fill:#009cde;}.c{fill:#006cb2;}.d{fill:#f8b456;}.e{fill:#ffc574;}.f{fill:#f33443;}.g{fill:#ff6c77;}.h{fill:#fff;}</style></defs><g transform="translate(-84 -269.625)"><g transform="translate(226.908 269.625)"><g transform="translate(20.092 0)"><g transform="translate(0 0)"><path class="a" d="M28.4,3.8,26.112,2.549,24.858.258a.559.559,0,0,0-.942,0L22.663,2.549,20.371,3.8a.537.537,0,0,0,0,.942L22.663,6,23.916,8.29a.537.537,0,0,0,.942,0L26.112,6,28.4,4.745a.537.537,0,0,0,0-.942ZM25.458,5.131a.537.537,0,0,0-.213.213l-.858,1.568-.858-1.568a.537.537,0,0,0-.213-.213l-1.568-.858,1.568-.858a.537.537,0,0,0,.213-.213l.858-1.568L25.245,3.2a.537.537,0,0,0,.213.213l1.568.858Z" transform="translate(-20.092 0)"/></g></g><g transform="translate(27.609 14.496)"><g transform="translate(0)"><path class="a" d="M172.268,281.256,169.977,280l-1.254-2.292a.559.559,0,0,0-.942,0L166.528,280l-2.291,1.253a.537.537,0,0,0,0,.942l2.291,1.253,1.254,2.292a.537.537,0,0,0,.942,0l1.254-2.292,2.291-1.253a.537.537,0,0,0,0-.942Zm-2.945,1.329a.537.537,0,0,0-.213.213l-.858,1.568-.858-1.568a.537.537,0,0,0-.213-.213l-1.568-.858,1.568-.858a.538.538,0,0,0,.213-.213l.858-1.568.858,1.568a.538.538,0,0,0,.213.213l1.568.858Z" transform="translate(-163.957 -277.453)"/></g></g><g transform="translate(38.393 20.42)"><path class="a" d="M376.432,393.532l-1.567-.857-.858-1.568a.558.558,0,0,0-.942,0l-.858,1.568-1.567.857a.537.537,0,0,0,0,.942l1.567.857.858,1.568a.537.537,0,0,0,.942,0l.858-1.568,1.567-.857a.537.537,0,0,0,0-.942Zm-2.22.933a.537.537,0,0,0-.213.213l-.462.844-.462-.844a.537.537,0,0,0-.213-.213l-.844-.462.844-.462a.537.537,0,0,0,.213-.213l.462-.844.462.844a.538.538,0,0,0,.213.213l.844.462Z" transform="translate(-370.361 -390.848)"/></g><g transform="translate(32.495 7.549)"><g transform="translate(0)"><path class="a" d="M261.771,146.7a.537.537,0,0,0-.537-.537h-.315l.222-.251a.554.554,0,0,0,0-.773.573.573,0,0,0-.789-.007l-.252.215v-.315a.537.537,0,0,0-1.074,0v.315l-.193-.222a.519.519,0,0,0-.744,0,.572.572,0,0,0,.007.788l.23.251h-.314a.537.537,0,1,0,0,1.074h.315l-.223.194a.52.52,0,0,0,0,.745.528.528,0,0,0,.38.15.474.474,0,0,0,.35-.161l.193-.226v.314a.537.537,0,1,0,1.074,0v-.314l.252.222a.57.57,0,0,0,.394.157.552.552,0,0,0,.387-.157.5.5,0,0,0,0-.731l-.219-.194h.315A.537.537,0,0,0,261.771,146.7Z" transform="translate(-257.476 -144.491)"/></g></g><g transform="translate(20.683 18.824)"><path class="a" d="M34.087,361.42h-.6v-.594a.537.537,0,0,0-1.074,0v.594H31.94a.537.537,0,1,0,0,1.074h.477v.48a.537.537,0,1,0,1.074,0v-.48h.6a.537.537,0,1,0,0-1.074Z" transform="translate(-31.403 -360.289)"/></g><g transform="translate(38.937 0.569)"><g transform="translate(0)"><path class="a" d="M382.889,12.245l.426-.426a.537.537,0,0,0-.759-.759l-.426.426-.426-.426a.537.537,0,1,0-.759.759l.426.426-.426.426a.537.537,0,1,0,.759.759L382.13,13l.426.426a.537.537,0,0,0,.759-.759Z" transform="translate(-380.787 -10.902)"/></g></g></g><g transform="translate(104 269.625)"><g transform="translate(16.061 0)"><g transform="translate(0 0)"><path class="a" d="M20.371,3.8l2.291-1.253L23.916.258a.559.559,0,0,1,.942,0l1.254,2.292L28.4,3.8a.537.537,0,0,1,0,.942L26.112,6,24.858,8.29a.537.537,0,0,1-.942,0L22.663,6,20.371,4.745a.537.537,0,0,1,0-.942Zm2.945,1.329a.537.537,0,0,1,.213.213l.858,1.568.858-1.568a.537.537,0,0,1,.213-.213l1.568-.858-1.568-.858a.537.537,0,0,1-.213-.213l-.858-1.568L23.529,3.2a.537.537,0,0,1-.213.213l-1.568.858Z" transform="translate(-20.092 0)"/></g></g><g transform="translate(8.544 14.496)"><g transform="translate(0)"><path class="a" d="M164.236,281.256,166.528,280l1.254-2.292a.559.559,0,0,1,.942,0L169.977,280l2.291,1.253a.537.537,0,0,1,0,.942l-2.291,1.253-1.254,2.292a.537.537,0,0,1-.942,0l-1.254-2.292-2.291-1.253a.537.537,0,0,1,0-.942Zm2.945,1.329a.537.537,0,0,1,.213.213l.858,1.568.858-1.568a.537.537,0,0,1,.213-.213l1.568-.858-1.568-.858a.538.538,0,0,1-.213-.213l-.858-1.568-.858,1.568a.538.538,0,0,1-.213.213l-1.568.858Z" transform="translate(-163.957 -277.453)"/></g></g><g transform="translate(0 20.421)"><path class="a" d="M370.641,393.532l1.567-.857.858-1.568a.558.558,0,0,1,.942,0l.858,1.568,1.567.857a.537.537,0,0,1,0,.942l-1.567.857-.858,1.568a.537.537,0,0,1-.942,0l-.858-1.568-1.567-.857a.537.537,0,0,1,0-.942Zm2.22.933a.537.537,0,0,1,.213.213l.462.844.462-.844a.537.537,0,0,1,.213-.213l.844-.462-.844-.462a.537.537,0,0,1-.213-.213l-.462-.844-.462.844a.538.538,0,0,1-.213.213l-.844.462Z" transform="translate(-370.361 -390.848)"/></g><g transform="translate(7.953 7.549)"><g transform="translate(0)"><path class="a" d="M257.476,146.7a.537.537,0,0,1,.537-.537h.315l-.222-.251a.554.554,0,0,1,0-.773.573.573,0,0,1,.789-.007l.252.215v-.315a.537.537,0,1,1,1.074,0v.315l.193-.222a.519.519,0,0,1,.744,0,.572.572,0,0,1-.007.788l-.23.251h.314a.537.537,0,0,1,0,1.074h-.315l.223.194a.52.52,0,0,1,0,.745.528.528,0,0,1-.38.15.474.474,0,0,1-.35-.161l-.193-.226v.314a.537.537,0,1,1-1.074,0v-.314l-.252.222a.57.57,0,0,1-.394.157.552.552,0,0,1-.387-.157.5.5,0,0,1,0-.731l.219-.194h-.315A.537.537,0,0,1,257.476,146.7Z" transform="translate(-257.476 -144.491)"/></g></g><g transform="translate(20.839 18.824)"><path class="a" d="M31.94,361.42h.6v-.594a.537.537,0,0,1,1.074,0v.594h.477a.537.537,0,0,1,0,1.074H33.61v.48a.537.537,0,1,1-1.074,0v-.48h-.6a.537.537,0,0,1,0-1.074Z" transform="translate(-31.403 -360.289)"/></g><g transform="translate(3.121 0.57)"><g transform="translate(0)"><path class="a" d="M381.371,12.245l-.426-.426a.537.537,0,1,1,.759-.759l.426.426.426-.426a.537.537,0,0,1,.759.759l-.426.426.426.426a.537.537,0,1,1-.759.759L382.13,13l-.426.426a.537.537,0,1,1-.759-.759Z" transform="translate(-380.787 -10.902)"/></g></g></g><g transform="translate(246.908 304.625)"><g transform="translate(20.092 0)"><g transform="translate(0 0)"><path class="a" d="M28.4,3.8,26.112,2.549,24.858.258a.559.559,0,0,0-.942,0L22.663,2.549,20.371,3.8a.537.537,0,0,0,0,.942L22.663,6,23.916,8.29a.537.537,0,0,0,.942,0L26.112,6,28.4,4.745a.537.537,0,0,0,0-.942ZM25.458,5.131a.537.537,0,0,0-.213.213l-.858,1.568-.858-1.568a.537.537,0,0,0-.213-.213l-1.568-.858,1.568-.858a.537.537,0,0,0,.213-.213l.858-1.568L25.245,3.2a.537.537,0,0,0,.213.213l1.568.858Z" transform="translate(-20.092 0)"/></g></g><g transform="translate(27.609 14.496)"><g transform="translate(0)"><path class="a" d="M172.268,281.256,169.977,280l-1.254-2.292a.559.559,0,0,0-.942,0L166.528,280l-2.291,1.253a.537.537,0,0,0,0,.942l2.291,1.253,1.254,2.292a.537.537,0,0,0,.942,0l1.254-2.292,2.291-1.253a.537.537,0,0,0,0-.942Zm-2.945,1.329a.537.537,0,0,0-.213.213l-.858,1.568-.858-1.568a.537.537,0,0,0-.213-.213l-1.568-.858,1.568-.858a.538.538,0,0,0,.213-.213l.858-1.568.858,1.568a.538.538,0,0,0,.213.213l1.568.858Z" transform="translate(-163.957 -277.453)"/></g></g><g transform="translate(38.393 20.42)"><path class="a" d="M376.432,393.532l-1.567-.857-.858-1.568a.558.558,0,0,0-.942,0l-.858,1.568-1.567.857a.537.537,0,0,0,0,.942l1.567.857.858,1.568a.537.537,0,0,0,.942,0l.858-1.568,1.567-.857a.537.537,0,0,0,0-.942Zm-2.22.933a.537.537,0,0,0-.213.213l-.462.844-.462-.844a.537.537,0,0,0-.213-.213l-.844-.462.844-.462a.537.537,0,0,0,.213-.213l.462-.844.462.844a.538.538,0,0,0,.213.213l.844.462Z" transform="translate(-370.361 -390.848)"/></g><g transform="translate(32.495 7.549)"><g transform="translate(0)"><path class="a" d="M261.771,146.7a.537.537,0,0,0-.537-.537h-.315l.222-.251a.554.554,0,0,0,0-.773.573.573,0,0,0-.789-.007l-.252.215v-.315a.537.537,0,0,0-1.074,0v.315l-.193-.222a.519.519,0,0,0-.744,0,.572.572,0,0,0,.007.788l.23.251h-.314a.537.537,0,1,0,0,1.074h.315l-.223.194a.52.52,0,0,0,0,.745.528.528,0,0,0,.38.15.474.474,0,0,0,.35-.161l.193-.226v.314a.537.537,0,1,0,1.074,0v-.314l.252.222a.57.57,0,0,0,.394.157.552.552,0,0,0,.387-.157.5.5,0,0,0,0-.731l-.219-.194h.315A.537.537,0,0,0,261.771,146.7Z" transform="translate(-257.476 -144.491)"/></g></g><g transform="translate(20.683 18.824)"><path class="a" d="M34.087,361.42h-.6v-.594a.537.537,0,0,0-1.074,0v.594H31.94a.537.537,0,1,0,0,1.074h.477v.48a.537.537,0,1,0,1.074,0v-.48h.6a.537.537,0,1,0,0-1.074Z" transform="translate(-31.403 -360.289)"/></g><g transform="translate(38.937 0.569)"><g transform="translate(0)"><path class="a" d="M382.889,12.245l.426-.426a.537.537,0,0,0-.759-.759l-.426.426-.426-.426a.537.537,0,1,0-.759.759l.426.426-.426.426a.537.537,0,1,0,.759.759L382.13,13l.426.426a.537.537,0,0,0,.759-.759Z" transform="translate(-380.787 -10.902)"/></g></g></g><g transform="translate(84 304.625)"><g transform="translate(16.061 0)"><g transform="translate(0 0)"><path class="a" d="M20.371,3.8l2.291-1.253L23.916.258a.559.559,0,0,1,.942,0l1.254,2.292L28.4,3.8a.537.537,0,0,1,0,.942L26.112,6,24.858,8.29a.537.537,0,0,1-.942,0L22.663,6,20.371,4.745a.537.537,0,0,1,0-.942Zm2.945,1.329a.537.537,0,0,1,.213.213l.858,1.568.858-1.568a.537.537,0,0,1,.213-.213l1.568-.858-1.568-.858a.537.537,0,0,1-.213-.213l-.858-1.568L23.529,3.2a.537.537,0,0,1-.213.213l-1.568.858Z" transform="translate(-20.092 0)"/></g></g><g transform="translate(8.544 14.496)"><g transform="translate(0)"><path class="a" d="M164.236,281.256,166.528,280l1.254-2.292a.559.559,0,0,1,.942,0L169.977,280l2.291,1.253a.537.537,0,0,1,0,.942l-2.291,1.253-1.254,2.292a.537.537,0,0,1-.942,0l-1.254-2.292-2.291-1.253a.537.537,0,0,1,0-.942Zm2.945,1.329a.537.537,0,0,1,.213.213l.858,1.568.858-1.568a.537.537,0,0,1,.213-.213l1.568-.858-1.568-.858a.538.538,0,0,1-.213-.213l-.858-1.568-.858,1.568a.538.538,0,0,1-.213.213l-1.568.858Z" transform="translate(-163.957 -277.453)"/></g></g><g transform="translate(0 20.421)"><path class="a" d="M370.641,393.532l1.567-.857.858-1.568a.558.558,0,0,1,.942,0l.858,1.568,1.567.857a.537.537,0,0,1,0,.942l-1.567.857-.858,1.568a.537.537,0,0,1-.942,0l-.858-1.568-1.567-.857a.537.537,0,0,1,0-.942Zm2.22.933a.537.537,0,0,1,.213.213l.462.844.462-.844a.537.537,0,0,1,.213-.213l.844-.462-.844-.462a.537.537,0,0,1-.213-.213l-.462-.844-.462.844a.538.538,0,0,1-.213.213l-.844.462Z" transform="translate(-370.361 -390.848)"/></g><g transform="translate(7.953 7.549)"><g transform="translate(0)"><path class="a" d="M257.476,146.7a.537.537,0,0,1,.537-.537h.315l-.222-.251a.554.554,0,0,1,0-.773.573.573,0,0,1,.789-.007l.252.215v-.315a.537.537,0,1,1,1.074,0v.315l.193-.222a.519.519,0,0,1,.744,0,.572.572,0,0,1-.007.788l-.23.251h.314a.537.537,0,0,1,0,1.074h-.315l.223.194a.52.52,0,0,1,0,.745.528.528,0,0,1-.38.15.474.474,0,0,1-.35-.161l-.193-.226v.314a.537.537,0,1,1-1.074,0v-.314l-.252.222a.57.57,0,0,1-.394.157.552.552,0,0,1-.387-.157.5.5,0,0,1,0-.731l.219-.194h-.315A.537.537,0,0,1,257.476,146.7Z" transform="translate(-257.476 -144.491)"/></g></g><g transform="translate(20.839 18.824)"><path class="a" d="M31.94,361.42h.6v-.594a.537.537,0,0,1,1.074,0v.594h.477a.537.537,0,0,1,0,1.074H33.61v.48a.537.537,0,1,1-1.074,0v-.48h-.6a.537.537,0,0,1,0-1.074Z" transform="translate(-31.403 -360.289)"/></g><g transform="translate(3.121 0.57)"><g transform="translate(0)"><path class="a" d="M381.371,12.245l-.426-.426a.537.537,0,1,1,.759-.759l.426.426.426-.426a.537.537,0,0,1,.759.759l-.426.426.426.426a.537.537,0,1,1-.759.759L382.13,13l-.426.426a.537.537,0,1,1-.759-.759Z" transform="translate(-380.787 -10.902)"/></g></g></g><g transform="translate(118 280)"><path class="b" d="M70,0A70.011,70.011,0,0,0,50.416,137.224l86.637-87.386A70.032,70.032,0,0,0,70,0Z"/><path class="c" d="M181.145,149.985a69.984,69.984,0,0,0-2.952-20.16l-14.846-14.846-104.2,69.81,32.416,32.416a70.044,70.044,0,0,0,89.583-67.22Z" transform="translate(-41.145 -79.985)"/><path class="d" d="M239.331,106.167h-45.6l-16.087,37.739,16.087,37.435h45.6a9.157,9.157,0,0,0,9.13-9.13V115.3A9.157,9.157,0,0,0,239.331,106.167Z" transform="translate(-123.578 -73.855)"/><path class="e" d="M59.463,106.167a9.157,9.157,0,0,0-9.13,9.13V172.21a9.157,9.157,0,0,0,9.13,9.13h45.7V106.167Z" transform="translate(-35.014 -73.855)"/><path class="f" d="M223.543,168.341h54.732V156.167H223.543l-3.043,6.087Z" transform="translate(-153.391 -108.638)"/><rect class="g" width="54.833" height="12.174" transform="translate(15.319 47.529)"/><rect class="h" width="20.531" height="15.217" transform="translate(24.601 69.899)"/><rect class="h" width="15.965" height="6.087" transform="translate(24.601 91.203)"/><rect class="h" width="15.965" height="6.087" transform="translate(99.889 91.203)"/><rect class="h" width="15.965" height="6.087" transform="translate(74.793 91.203)"/><rect class="h" width="15.965" height="6.087" transform="translate(49.698 91.203)"/></g></g></svg>