<svg xmlns="http://www.w3.org/2000/svg" viewBox="0 0 18.4 16">
  <defs>
    <style>
      .cls-1 {
        fill: #dcdee2;
      }
    </style>
  </defs>
  <g id="ico_like" transform="translate(0 -29.836)">
    <g id="Group_1" data-name="Group 1" transform="translate(0 29.836)">
      <path id="Path_1" data-name="Path 1" class="cls-1" d="M17.058,31.408a4.679,4.679,0,0,0-7.4.524,6.926,6.926,0,0,0-.458.731,6.92,6.92,0,0,0-.458-.731,4.679,4.679,0,0,0-7.4-.524A5.438,5.438,0,0,0,0,35.054a6.668,6.668,0,0,0,1.881,4.411,41.62,41.62,0,0,0,4.708,4.329c.712.6,1.448,1.215,2.232,1.89l.024.02a.546.546,0,0,0,.71,0l.024-.02c.784-.675,1.52-1.293,2.232-1.89a41.613,41.613,0,0,0,4.708-4.329A6.668,6.668,0,0,0,18.4,35.054,5.438,5.438,0,0,0,17.058,31.408Z" transform="translate(0 -29.836)"/>
    </g>
  </g>
</svg>
