<svg xmlns="http://www.w3.org/2000/svg" width="36" height="36" viewBox="0 0 36 36">
  <path fill="#5B96FC" d="M35.9247018,0.605754386 C35.9235088,0.592561404 35.9181053,0.58 35.9157193,0.566807018 C35.9097544,0.529684211 35.9049123,0.491368421 35.8911579,0.456 C35.8905263,0.452421053 35.8869474,0.448842105 35.885193,0.444 C35.8804211,0.431438596 35.8714386,0.420631579 35.8660351,0.408070175 C35.8570526,0.389473684 35.8474386,0.37277193 35.8372632,0.354736842 C35.8199298,0.327789474 35.8013333,0.301473684 35.7797895,0.276912281 C35.773193,0.269122807 35.7714386,0.259578947 35.7648421,0.252982456 C35.7564211,0.244 35.7450526,0.241614035 35.7372632,0.233192982 C35.7288421,0.226035088 35.7223158,0.216421053 35.7138947,0.209263158 C35.7091228,0.205684211 35.7067368,0.199649123 35.7018947,0.196070175 C35.7007018,0.194877193 35.6995088,0.194877193 35.6983158,0.194245614 C35.6959298,0.192421053 35.6947368,0.190666667 35.6929123,0.188842105 C35.6635789,0.166105263 35.6294035,0.151719298 35.5964912,0.135578947 C35.5832982,0.128421053 35.5713684,0.119438596 35.5575439,0.113403509 C35.5419649,0.107438596 35.526386,0.103789474 35.510807,0.0990175439 C35.4916491,0.0924210526 35.4718596,0.0894035088 35.4515088,0.0852631579 C35.4215439,0.0792982456 35.3916491,0.0720701754 35.3616842,0.0703157895 C35.3425263,0.069122807 35.3245614,0.0727017544 35.3059649,0.0733333333 C35.3035789,0.0733333333 35.301193,0.0739649123 35.298807,0.0739649123 C35.2796491,0.0745263158 35.2616842,0.0739649123 35.2430877,0.0769824561 C35.2131228,0.0811929825 35.1849825,0.0901754386 35.1556491,0.0991578947 C35.1352982,0.105122807 35.1161404,0.111157895 35.0957895,0.119508772 C35.0825965,0.125473684 35.0682105,0.127298246 35.0550877,0.133894737 L1.52070175,17.5 C0.532631579,18.012 -0.0212631579,18.7844912 0.00147368421,19.6204211 C0.0230175439,20.4270175 0.587719298,21.1378246 1.56021053,21.5762105 L8.02996491,24.3487719 C8.33115789,24.4792982 8.68631579,24.3385965 8.81621053,24.034386 C8.94617544,23.730807 8.80540351,23.3786667 8.50119298,23.2481404 L2.04217544,20.4797193 C1.51459649,20.2419649 1.208,19.9168421 1.19845614,19.5880702 C1.18884211,19.2341754 1.51522807,18.8515088 2.07157895,18.5634386 L31.8754386,3.12926316 L9.76659649,24.1853333 C9.76540351,24.1871579 9.76477193,24.1895439 9.76301754,24.1907368 C9.72287719,24.2296842 9.69592982,24.2781754 9.66842105,24.3261053 C9.65705263,24.3458947 9.63908772,24.3626667 9.62947368,24.3830175 C9.62112281,24.4033684 9.62168421,24.4261053 9.6157193,24.4470877 C9.59894737,24.501614 9.58280702,24.5560702 9.58217544,24.6123509 C9.58217544,24.6147368 9.58098246,24.6165614 9.58098246,24.6189474 L9.58098246,35.3978947 C9.58098246,35.456 9.59059649,35.5122807 9.60610526,35.5667368 C9.60673684,35.5685614 9.60673684,35.5709474 9.60729825,35.5733333 C9.62764912,35.6392281 9.66238596,35.6990877 9.7037193,35.754807 C9.7157193,35.7709474 9.73003509,35.7847719 9.74385965,35.7990877 C9.78042105,35.8385965 9.82112281,35.8727719 9.86722807,35.9009123 C9.87922807,35.9087018 9.88582456,35.9200702 9.89775439,35.9260351 C9.90792982,35.9314386 9.91929825,35.9338246 9.92891228,35.9380351 C9.93670175,35.941614 9.94210526,35.9476491 9.95045614,35.9512281 C9.95880702,35.954807 9.96722807,35.9530526 9.97621053,35.956 C10.0432982,35.9805614 10.1115789,35.9967018 10.1792281,35.9967018 L10.1798596,35.9967018 L10.1804211,35.9967018 C10.2498947,35.9960702 10.3163509,35.9805614 10.3810526,35.957193 C10.3978246,35.9512281 10.4139649,35.944 10.4301754,35.9362105 C10.4894737,35.9092632 10.5445614,35.8738947 10.5930526,35.8284211 C10.5954386,35.8254035 10.6002105,35.8242105 10.6032281,35.8212632 L10.609193,35.8152982 C10.6098246,35.8146667 10.610386,35.8141053 10.6110175,35.8134737 L16.5915088,29.8329825 C16.825614,29.5988772 16.825614,29.2203509 16.5915088,28.9862456 C16.3573333,28.7520702 15.9788772,28.7520702 15.7447719,28.9862456 L12.6027368,32.1282807 L15.4752982,26.742386 L34.2168421,3.04 L28.6609123,29.3011228 C28.5561404,29.8065263 28.3214035,30.1700351 27.9824561,30.3520702 C27.616,30.5484912 27.1387368,30.5376842 26.594386,30.3209123 L17.354386,26.705193 C17.0477895,26.5854035 16.6998596,26.7369123 16.5783158,27.0447018 C16.4579649,27.3524912 16.6100351,27.7004211 16.9184561,27.8207719 L26.1542456,31.4341053 C26.5757895,31.6029474 26.994386,31.6874386 27.390807,31.6874386 C27.8075789,31.6874386 28.2010526,31.5940351 28.5489123,31.4071579 C29.2010526,31.0574737 29.6573333,30.3957193 29.8334035,29.5471579 L35.9169123,0.78954386 C35.9216842,0.765614035 35.9192982,0.741052632 35.9211228,0.716491228 C35.9229474,0.696140351 35.9258947,0.676982456 35.9253333,0.656 C35.9253333,0.639298246 35.9265263,0.622526316 35.9247018,0.605754386 Z M14.5009123,26.0440702 C14.4895439,26.0578246 14.4865263,26.0757895 14.4775439,26.090807 C14.4667368,26.106386 14.4512281,26.1165614 14.441614,26.1333333 L10.7785965,33.0018947 L10.7785965,24.8751579 L29.5926316,6.95698246 L14.5009123,26.0440702 Z"/>
</svg>
