<svg xmlns="http://www.w3.org/2000/svg" width="36" height="36" viewBox="0 0 36 36" xmlns:xlink="http://www.w3.org/1999/xlink">
  <defs>
    <path id="a" d="M35.6221312,13.5409922 L30.3965765,9.7149375 C30.4050843,9.66452344 30.4104984,9.613125 30.4104984,9.56032031 L30.4104984,0.9230625 C30.4104984,0.413226563 29.9971312,0 29.4874359,0 L24.4105218,0 C23.9008265,0 23.4874593,0.413226563 23.4874593,0.9230625 L23.4874593,4.65623437 L18.5451937,1.03760156 C18.2204203,0.799875 17.77935,0.799875 17.4546468,1.03760156 L0.377849963,13.5410625 C-0.0334781619,13.8422812 -0.122845349,14.4198281 0.178373401,14.8311563 C0.479592151,15.2424844 1.05720934,15.3318516 1.46846715,15.0306328 L3.97215465,13.1975156 L3.97215465,34.8076328 C3.97215465,35.3174688 4.38552184,35.7306953 4.89521715,35.7306953 L14.2554984,35.7306953 C14.3800218,35.7291484 14.4112406,35.7306953 14.4429515,35.7306953 C14.9526468,35.7306953 15.366014,35.3174688 15.366014,34.8076328 L15.366014,27.0815547 C15.366014,25.6291797 16.5476156,24.4474375 18.0001312,24.4474375 C19.4526468,24.4474375 20.6342484,25.6290391 20.6342484,27.0815547 L20.6342484,34.8075625 C20.6342484,35.3173984 21.0476156,35.730625 21.5573109,35.730625 C21.6818343,35.7290781 21.7130531,35.730625 21.744764,35.730625 L31.1050453,35.730625 C31.6147406,35.730625 32.0281078,35.3173984 32.0281078,34.8075625 L32.0281078,19.8652422 C32.0281078,19.3554062 31.6147406,18.9421797 31.1050453,18.9421797 C30.59535,18.9421797 30.1819828,19.3554766 30.1819828,19.8652422 L30.1819828,33.8844297 L22.4800922,33.8844297 L22.4800922,27.0814844 C22.4800922,24.6110547 20.4702797,22.6012422 17.99985,22.6012422 C15.5294203,22.6012422 13.5196078,24.6110547 13.5196078,27.0814844 L13.5196078,33.8844297 L5.81813903,33.8844297 L5.81813903,11.8456172 L17.99985,2.92640625 L34.5314437,15.0304922 C34.695764,15.1508672 34.8867328,15.2088047 35.0759437,15.2088047 C35.3601468,15.2088047 35.6406234,15.0778828 35.8213968,14.8310156 C36.1227562,14.4197578 36.0334593,13.8421406 35.6221312,13.5409922 Z M28.5643734,8.373375 L25.3335843,6.00792188 L25.3335843,1.84605469 L28.5643734,1.84605469 L28.5643734,8.373375 Z"/>
  </defs>
  <g fill="none" fill-rule="evenodd">
    <mask id="b" fill="white">
      <use xlink:href="#a"/>
    </mask>
    <use fill="#000000" fill-rule="nonzero" xlink:href="#a"/>
    <rect width="36" height="36" fill="#0064CA" mask="url(#b)"/>
  </g>
</svg>
