<svg xmlns="http://www.w3.org/2000/svg" width="24" height="24" viewBox="0 0 24 24">
  <path fill="#FFFFFF" d="M22.6745702,0 L1.3246394,0 C0.593558585,0 0,0.592373049 0,1.3246394 L0,22.6745702 C0,23.4068366 0.593558585,24 1.3246394,24 L12.8188105,24 L12.8188105,14.7057894 L9.69136534,14.7057894 L9.69136534,11.0831851 L12.8188105,11.0831851 L12.8188105,8.41177633 C12.8188105,5.31238886 14.7113219,3.62378976 17.4767832,3.62378976 C18.8026082,3.62378976 19.9395376,3.72297965 20.2710927,3.76605414 L20.2710927,7.00573009 L18.3528947,7.00652045 C16.8492393,7.00652045 16.559178,7.72139893 16.559178,8.76980834 L16.559178,11.0819996 L20.1466113,11.0819996 L19.6775341,14.7042087 L16.5587828,14.7042087 L16.5587828,23.9988145 L22.6741751,23.9988145 C23.4060462,23.9988145 24,23.4048607 24,22.6745702 L24,1.32384904 C23.9996048,0.592373049 23.4064414,0 22.6745702,0 Z"/>
</svg>
