<svg xmlns="http://www.w3.org/2000/svg" width="14" height="14" viewBox="0 0 14 14">
  <path fill="#5B96FC" fill-rule="evenodd" d="M183.000265,489.600114 L183.000265,491.000143 L184.400293,491.000143 C184.400293,490.226627 183.773781,489.600114 183.000265,489.600114 M183.000265,486.800057 L183.000265,488.200086 C184.544496,488.200086 185.800322,489.455911 185.800322,491.000143 L187.20035,491.000143 C187.20035,488.680295 185.320112,486.800057 183.000265,486.800057 M183.000265,484 L183.000265,485.400029 C186.088028,485.400029 188.600379,487.91238 188.600379,491.000143 L190.000408,491.000143 C190.000408,487.133964 186.866444,484 183.000265,484 M186.256731,496.76406 C186.249031,496.785761 186.248331,496.789261 186.256731,496.76406 M185.882224,494.904822 C185.395714,494.643017 184.903604,494.344811 184.394693,494.136907 C183.411173,493.735798 183.477675,494.921623 182.77556,495.30593 C182.319151,495.555836 181.675138,495.102926 181.27683,494.852321 C180.581016,494.414112 179.964303,493.837301 179.451893,493.170187 C179.189387,492.82928 178.609775,492.188067 178.681177,491.709957 C178.794579,490.951142 179.691997,490.913341 179.435092,489.985122 C179.297889,489.488112 179.052184,488.998802 178.868081,488.519992 C178.621676,487.878079 178.520174,487.467171 177.801259,487.502171 C177.281848,487.527372 176.937441,487.749276 176.618235,488.165785 C175.754417,489.290708 175.88462,490.807639 176.464932,492.041764 C177.286748,493.7883 178.695177,495.434733 180.199508,496.498755 C181.222929,497.22257 182.571156,497.879883 183.810181,497.991185 C184.7174,498.073087 185.986526,497.582377 186.311332,496.597457 C186.288932,496.666058 186.267231,496.73256 186.256731,496.76406 C186.264431,496.73956 186.281232,496.689859 186.311332,496.597457 C186.344233,496.498055 186.360333,496.448354 186.368034,496.425953 C186.358233,496.455354 186.335833,496.523955 186.312032,496.595357 C186.597638,495.727339 186.632639,495.308731 185.882224,494.904822 M186.368034,496.425953 C186.373634,496.409153 186.373634,496.407753 186.368034,496.425953" transform="translate(-176 -484)"/>
</svg>
