<svg xmlns="http://www.w3.org/2000/svg" width="14" height="9" viewBox="0 0 14 9">
  <path fill="#5B96FC" fill-rule="evenodd" d="M181.6,376.2 C181.6,375.4265 182.2265,374.8 183,374.8 C183.7735,374.8 184.4,375.4265 184.4,376.2 C184.4,376.9735 183.7735,377.6 183,377.6 C182.2265,377.6 181.6,376.9735 181.6,376.2 L181.6,376.2 Z M187.4401,373.4 L188.6,373.4 L188.6,374.5599 L187.4401,373.4 Z M188.6,379 L187.4401,379 L188.6,377.8401 L188.6,379 Z M177.4,379 L177.4,377.8401 L178.5599,379 L177.4,379 Z M177.4,373.4 L178.5599,373.4 L177.4,374.5599 L177.4,373.4 Z M185.4605,373.4 L188.2605,376.2 L185.4605,379 L180.5395,379 L177.7395,376.2 L180.5395,373.4 L185.4605,373.4 Z M176,380.4 L190,380.4 L190,372 L176,372 L176,380.4 Z" transform="translate(-176 -372)"/>
</svg>
