<svg id="perfil_rewards" xmlns="http://www.w3.org/2000/svg" viewBox="0 0 16 16">
  <defs>
    <style>
      .cls-1 {
        fill: #1d1d1d;
      }
    </style>
  </defs>
  <g id="Group_466" data-name="Group 466" transform="translate(0 0)">
    <path id="Path_653" data-name="Path 653" class="cls-1" d="M14.594,3.75H12.686A2.342,2.342,0,0,0,10.813,0,2.1,2.1,0,0,0,9.006.878,9.1,9.1,0,0,0,8,2.962,9.1,9.1,0,0,0,6.994.878,2.1,2.1,0,0,0,5.188,0,2.342,2.342,0,0,0,3.314,3.75H1.406A1.408,1.408,0,0,0,0,5.156v.938A1.408,1.408,0,0,0,.938,7.419v7.174A1.408,1.408,0,0,0,2.344,16H13.656a1.408,1.408,0,0,0,1.406-1.406V7.419A1.408,1.408,0,0,0,16,6.094V5.156A1.408,1.408,0,0,0,14.594,3.75ZM8.86,3.336c.718-1.822.991-2.4,1.952-2.4a1.406,1.406,0,0,1,0,2.813H8.7ZM5.188.937c.961,0,1.234.576,1.952,2.4L7.3,3.75H5.188a1.406,1.406,0,1,1,0-2.813Zm.938,14.125H2.344a.469.469,0,0,1-.469-.469V7.5h4.25Zm0-8.5H1.406a.469.469,0,0,1-.469-.469V5.156a.469.469,0,0,1,.469-.469H6.125Zm2.813,8.5H7.063V4.688H8.938Zm5.187-.469a.469.469,0,0,1-.469.469H9.875V7.5h4.25Zm.938-8.5a.469.469,0,0,1-.469.469H9.875V4.688h4.719a.469.469,0,0,1,.469.469Z" transform="translate(0 0)"/>
  </g>
</svg>
