<svg xmlns="http://www.w3.org/2000/svg" viewBox="0 0 24.642 20">
  <defs>
    <style>
      .cls-1, .cls-2 {
        fill: #aaaeb7;
      }

      .cls-2 {
        stroke: #aaaeb7;
        stroke-width: 0.5px;
      }
    </style>
  </defs>
  <g id="perfil_cambiarforo" transform="translate(-3783 -747)">
    <path id="Path_657" data-name="Path 657" class="cls-1" d="M0,52.27V63.143A3.009,3.009,0,0,0,3.007,66.15H21.634a3.009,3.009,0,0,0,3.007-3.007V52.27a2.863,2.863,0,0,0-2.861-2.861h-4l-.1-.417A3.655,3.655,0,0,0,14.1,46.15H10.536a3.664,3.664,0,0,0-3.581,2.841l-.1.417h-4A2.866,2.866,0,0,0,0,52.27Zm7.352-1.629a.613.613,0,0,0,.6-.478l.206-.9a2.432,2.432,0,0,1,2.379-1.886H14.1a2.432,2.432,0,0,1,2.379,1.886l.206.9a.618.618,0,0,0,.6.478h4.491A1.629,1.629,0,0,1,23.4,52.27V63.143a1.775,1.775,0,0,1-1.775,1.775H3.007a1.775,1.775,0,0,1-1.775-1.775V52.27a1.629,1.629,0,0,1,1.629-1.629Z" transform="translate(3783 700.85)"/>
    <circle id="Ellipse_34" data-name="Ellipse 34" class="cls-1" cx="0.825" cy="0.825" r="0.825" transform="translate(3786.344 753.296)"/>
    <g id="user" transform="translate(3790.079 751.658)">
      <path id="Path_659" data-name="Path 659" class="cls-2" d="M90.069,6.075a2.939,2.939,0,0,0,2.148-.89,2.939,2.939,0,0,0,.89-2.148A2.939,2.939,0,0,0,92.216.89a3.037,3.037,0,0,0-4.3,0,2.939,2.939,0,0,0-.89,2.147,2.939,2.939,0,0,0,.89,2.148A2.94,2.94,0,0,0,90.069,6.075ZM88.444,1.412a2.3,2.3,0,0,1,3.25,0,2.2,2.2,0,0,1,.673,1.625,2.2,2.2,0,0,1-.673,1.625,2.3,2.3,0,0,1-3.25,0,2.2,2.2,0,0,1-.673-1.625A2.2,2.2,0,0,1,88.444,1.412Zm0,0" transform="translate(-84.888)"/>
      <path id="Path_660" data-name="Path 660" class="cls-2" d="M10.5,250.922a7.5,7.5,0,0,0-.1-.8,6.278,6.278,0,0,0-.2-.8,3.957,3.957,0,0,0-.329-.747,2.817,2.817,0,0,0-.5-.647,2.19,2.19,0,0,0-.713-.448,2.465,2.465,0,0,0-.911-.165.924.924,0,0,0-.494.209c-.148.1-.321.208-.514.332a2.949,2.949,0,0,1-.665.293,2.584,2.584,0,0,1-1.628,0,2.939,2.939,0,0,1-.665-.293c-.191-.122-.365-.234-.515-.332a.923.923,0,0,0-.493-.209,2.462,2.462,0,0,0-.911.165,2.188,2.188,0,0,0-.714.448,2.817,2.817,0,0,0-.5.647,3.965,3.965,0,0,0-.329.747,6.292,6.292,0,0,0-.2.8,7.452,7.452,0,0,0-.1.8c-.017.241-.025.491-.025.745a2.094,2.094,0,0,0,.622,1.584,2.239,2.239,0,0,0,1.6.584H8.3a2.239,2.239,0,0,0,1.6-.584,2.093,2.093,0,0,0,.622-1.584C10.521,251.413,10.513,251.162,10.5,250.922ZM9.39,252.716A1.507,1.507,0,0,1,8.3,253.1H2.225a1.507,1.507,0,0,1-1.093-.381,1.367,1.367,0,0,1-.392-1.049c0-.236.008-.47.023-.694a6.721,6.721,0,0,1,.092-.718,5.55,5.55,0,0,1,.172-.706,3.228,3.228,0,0,1,.268-.608,2.088,2.088,0,0,1,.365-.478,1.452,1.452,0,0,1,.475-.3,1.7,1.7,0,0,1,.582-.112c.026.014.072.04.147.089.152.1.327.212.521.336a3.661,3.661,0,0,0,.835.373,3.322,3.322,0,0,0,2.082,0,3.665,3.665,0,0,0,.836-.373c.2-.127.368-.236.52-.335.075-.049.121-.075.147-.089a1.7,1.7,0,0,1,.582.112,1.454,1.454,0,0,1,.475.3,2.083,2.083,0,0,1,.365.478,3.217,3.217,0,0,1,.268.607,5.536,5.536,0,0,1,.172.706,6.778,6.778,0,0,1,.092.718h0c.016.223.024.456.024.693A1.367,1.367,0,0,1,9.39,252.716Zm0,0" transform="translate(0 -241.225)"/>
    </g>
  </g>
</svg>
