<svg xmlns="http://www.w3.org/2000/svg" viewBox="0 0 20.976 20">
  <defs>
    <style>
      .cls-1 {
        fill: #aaaeb7;
      }
    </style>
  </defs>
  <g id="perfil_calificar" transform="translate(0.001 -11.905)">
    <g id="Group_482" data-name="Group 482" transform="translate(-0.001 11.905)">
      <path id="Path_669" data-name="Path 669" class="cls-1" d="M20.931,19.458a.881.881,0,0,0-.711-.6l-6.181-.9-2.767-5.6a.918.918,0,0,0-1.581,0l-2.767,5.6-6.171.9a.882.882,0,0,0-.488,1.5L4.73,24.719,3.68,30.876a.881.881,0,0,0,1.281.927l5.522-2.9L16.015,31.8a.882.882,0,0,0,1.278-.931l-1.058-6.155,4.472-4.358A.878.878,0,0,0,20.931,19.458Zm-6.26,4.323a.883.883,0,0,0-.253.781l.834,4.852-4.36-2.291a.886.886,0,0,0-.41-.1.874.874,0,0,0-.411.1l-4.353,2.29.828-4.852a.881.881,0,0,0-.253-.779l-3.52-3.436,4.866-.712a.879.879,0,0,0,.663-.48l2.181-4.413,2.181,4.413a.882.882,0,0,0,.663.481l4.872.712Z" transform="translate(0.001 -11.905)"/>
    </g>
  </g>
</svg>
