<svg xmlns="http://www.w3.org/2000/svg" width="96" height="41" viewBox="0 0 96 41">
    <path fill="#5B96FC" fill-rule="evenodd" d="M15.027 6.98c-1.581 0-3.638.687-3.638 3.593v2.852h5.853v6.022h-5.853v19.968H4.324V19.447H0v-6.022h4.324v-2.958C4.324 4.603 8.014.8 13.762.8c1.476 0 2.9.264 3.48.528v5.917c-.37-.106-1.055-.264-2.215-.264zm22.707 32.435c-.105-.528-.21-1.743-.21-2.8-1.424 2.43-4.43 3.487-7.172 3.487-6.274 0-9.86-4.596-9.86-10.248V13.425h7.013v15.002c0 2.906 1.476 5.23 4.745 5.23 3.111 0 4.904-2.113 4.904-5.124V13.425h7.013v21.289c0 2.007.158 3.803.264 4.701h-6.697zm9.692-7.237l6.01-1.32c.159 2.06 1.688 3.961 4.746 3.961 2.32 0 3.428-1.215 3.428-2.588 0-1.162-.791-2.113-2.795-2.536l-3.427-.792c-5.01-1.11-7.277-4.12-7.277-7.765 0-4.649 4.113-8.505 9.702-8.505 7.382 0 9.86 4.701 10.177 7.5l-5.853 1.322c-.211-1.532-1.318-3.487-4.271-3.487-1.845 0-3.322 1.11-3.322 2.589 0 1.267.95 2.06 2.373 2.324l3.69.792c5.115 1.057 7.7 4.173 7.7 7.977 0 4.226-3.27 8.557-10.072 8.557-7.804 0-10.493-5.07-10.81-8.029zm42.352-1.955l5.853 1.744c-1.318 4.49-5.431 8.24-11.811 8.24-7.118 0-13.393-5.124-13.393-13.893 0-8.293 6.116-13.681 12.76-13.681 8.015 0 12.813 5.124 12.813 13.47 0 1.004-.105 2.06-.105 2.166h-18.56c.157 3.434 3.058 5.916 6.538 5.916 3.269 0 5.061-1.637 5.905-3.962zm-12.286-6.761h11.6c-.105-2.589-1.792-5.124-5.8-5.124-3.638 0-5.641 2.747-5.8 5.124z"/>
</svg>
