<svg xmlns="http://www.w3.org/2000/svg" viewBox="0 0 63.909 16">
  <defs>
    <style>
      .cls-1 {
        fill: #0076ff;
      }

      .cls-2 {
        fill: #09ca6b;
      }
    </style>
  </defs>
  <g id="menu_fusepong" transform="translate(-48 -299)">
    <g id="Group_502" data-name="Group 502" transform="translate(48 299)">
      <path id="Path_697" data-name="Path 697" class="cls-1" d="M272.559,14.8a.959.959,0,1,0,.959.959A.964.964,0,0,0,272.559,14.8Zm.548.959a.128.128,0,0,1-.137.114h-.023a.134.134,0,0,1-.114-.16.271.271,0,0,0-.046-.228.13.13,0,0,1,.205-.16A.618.618,0,0,1,273.106,15.759Z" transform="translate(-209.609 -11.422)"/>
      <path id="Path_698" data-name="Path 698" class="cls-2" d="M177.029,17a3.652,3.652,0,1,0,3.629,3.652A3.6,3.6,0,0,0,177.029,17Zm0,.753a2.876,2.876,0,1,1-2.853,2.876A2.8,2.8,0,0,1,177.029,17.753Z" transform="translate(-133.822 -13.12)"/>
      <path id="Path_699" data-name="Path 699" class="cls-2" d="M141.092,17a3.31,3.31,0,0,0-2.716,1.347V17.16H137.6V29.12h.776V23.049a3.373,3.373,0,0,0,2.716,1.347,3.578,3.578,0,0,0,3.538-3.7A3.578,3.578,0,0,0,141.092,17Zm0,.753a2.809,2.809,0,0,1,2.762,2.922,2.809,2.809,0,0,1-2.762,2.922,2.76,2.76,0,0,1-2.716-2.922A2.773,2.773,0,0,1,141.092,17.753Z" transform="translate(-106.193 -13.12)"/>
      <path id="Path_700" data-name="Path 700" class="cls-2" d="M244.44,23.719l-1.529-.091c-.411-.023-.913-.16-.913-.685a.7.7,0,0,1,.456-.616,2.967,2.967,0,0,0,1.643.5,2.871,2.871,0,0,0,1.484-5.318l-.411-.205-.046.091.023-.114a3.276,3.276,0,0,0-1.05-.183,2.877,2.877,0,0,0-2.237,4.656,1.373,1.373,0,0,0-.662,1.164,1.317,1.317,0,0,0,.685,1.187A2.381,2.381,0,0,0,240.4,26.39c0,1.6,1.506,2.716,3.675,2.716s3.675-1.1,3.675-2.67C247.75,24.838,246.54,23.833,244.44,23.719Zm-.342-1.643a2.029,2.029,0,0,1-2.054-2.1,2.07,2.07,0,0,1,2.054-2.1,2.1,2.1,0,0,1,0,4.2Zm-.114,2.442a2.481,2.481,0,0,1,.411.023h0c1.689.091,2.556.753,2.556,1.94,0,1.3-1.484,1.894-2.876,1.894-1.689,0-2.876-.8-2.876-1.94a1.6,1.6,0,0,1,.5-1.233A3.249,3.249,0,0,1,243.983,24.518Z" transform="translate(-185.53 -13.197)"/>
      <path id="Path_701" data-name="Path 701" class="cls-2" d="M213.622,17a2.824,2.824,0,0,0-2.123.959v-.8h-.8V24.3h.8V20.1a2.2,2.2,0,0,1,2.123-2.305,1.936,1.936,0,0,1,2.123,2.214V24.3h.8V19.99A2.708,2.708,0,0,0,213.622,17Z" transform="translate(-162.609 -13.12)"/>
      <path id="Path_702" data-name="Path 702" class="cls-1" d="M5.227,0V1.8H4.451c-.776,0-1.164.5-1.164,1.529V3.9H4.793V5.409H3.264v5.683H1.369V5.409H0V3.9H1.369V3.332C1.369,1.233,2.442,0,4.428,0Z" transform="translate(0 0)"/>
      <path id="Path_703" data-name="Path 703" class="cls-1" d="M33.216,16.9h1.872v7.235H33.216V23.108a2.32,2.32,0,0,1-1.986,1.164c-1.735,0-2.83-1.118-2.83-3.1V16.946h1.894v3.9c0,1.1.616,1.6,1.369,1.6a1.491,1.491,0,0,0,1.552-1.689V16.9Z" transform="translate(-21.918 -13.043)"/>
      <path id="Path_704" data-name="Path 704" class="cls-1" d="M100.7,22.244a1.869,1.869,0,0,1-2.374-.913l5.3-1.6a5.229,5.229,0,0,0-.16-.639,3.728,3.728,0,0,0-1.8-2.305,3.517,3.517,0,0,0-2.807-.228,3.826,3.826,0,0,0-2.26,1.757,3.589,3.589,0,0,0-.251,2.922,3.635,3.635,0,0,0,4.679,2.534,3.942,3.942,0,0,0,2.625-2.351h-1.78a1.749,1.749,0,0,1-1.164.822ZM97.964,20.1a1.814,1.814,0,0,1,1.392-2.031,1.739,1.739,0,0,1,2.191.936l-3.583,1.1Z" transform="translate(-74.203 -12.635)"/>
      <path id="Path_705" data-name="Path 705" class="cls-1" d="M66.728,20.751c-1.894-.548-2.1-1.369-2.1-2.26a1.906,1.906,0,0,1,.8-1.529,2.964,2.964,0,0,1,1.917-.662,3.34,3.34,0,0,1,1.986.571,2.1,2.1,0,0,1,.89,1.757h-1.8c-.023-.5-.5-.753-1-.753-.616,0-.936.228-.936.73,0,.274.251.479.776.616l1.233.3a2.269,2.269,0,0,1,1.94,2.214,1.926,1.926,0,0,1-.913,1.689,3.8,3.8,0,0,1-2.123.593,3.467,3.467,0,0,1-2.077-.662,2.281,2.281,0,0,1-.913-1.826h1.8a1.256,1.256,0,0,0,1.369.936c.548-.023.959-.32.959-.753.023-.365-.228-.571-.8-.708l-1-.251Z" transform="translate(-49.701 -12.58)"/>
    </g>
  </g>
</svg>
