<svg xmlns="http://www.w3.org/2000/svg" xmlns:xlink="http://www.w3.org/1999/xlink" width="24" height="24" viewBox="0 0 24 24">
    <defs>
        <path id="a" d="M18.3 12V9.3l.9 2.7h-.9zm0 7.2H5.7a.9.9 0 0 1-.9-.9v-4.5h2.7a.9.9 0 0 1 .9.9v.9a1.8 1.8 0 0 0 1.8 1.8h3.6a1.8 1.8 0 0 0 1.8-1.8v-.9a.9.9 0 0 1 .9-.9h2.7v4.5a.9.9 0 0 1-.9.9zM5.7 9.3V12h-.9l.9-2.7zm2.7-4.5h7.2a.9.9 0 0 1 .9.9V12h-.9a1.8 1.8 0 0 0-1.8 1.8v.9a.9.9 0 0 1-.9.9h-1.8a.9.9 0 0 1-.9-.9v-.9A1.8 1.8 0 0 0 8.4 12h-.9V5.7a.9.9 0 0 1 .9-.9zm10.8 1.8h-.9V4.8A1.8 1.8 0 0 0 16.5 3h-9a1.8 1.8 0 0 0-1.8 1.8v1.8h-.9L3 12v7.2A1.8 1.8 0 0 0 4.8 21h14.4a1.8 1.8 0 0 0 1.8-1.8V12l-1.8-5.4z"/>
    </defs>
    <g fill="none" fill-rule="evenodd">
        <mask id="b" fill="#fff">
            <use xlink:href="#a"/>
        </mask>
        <use fill="#212121" xlink:href="#a"/>
        <g fill="#082834" mask="url(#b)">
            <path d="M0 0h24v24H0z"/>
        </g>
    </g>
</svg>
