<svg xmlns="http://www.w3.org/2000/svg" viewBox="0 0 20 20">
  <defs>
    <style>
      .cls-1 {
        fill: #dcdee2;
      }
    </style>
  </defs>
  <g id="ico_home" transform="translate(-0.001)">
    <g id="Group_17" data-name="Group 17" transform="translate(0.001 0)">
      <g id="Group_16" data-name="Group 16" transform="translate(0 0)">
        <path id="Path_26" data-name="Path 26" class="cls-1" d="M19.757,9.411,17.674,7.327,10.59.244a.833.833,0,0,0-1.178,0L2.328,7.327.245,9.411a.833.833,0,1,0,1.178,1.178l.661-.661v9.238A.834.834,0,0,0,2.918,20H7.5a.834.834,0,0,0,.833-.833V12.5h3.333v5.833h-.833a.833.833,0,1,0,0,1.667h6.25a.834.834,0,0,0,.833-.833V9.928l.661.661a.833.833,0,1,0,1.178-1.178Zm-3.506,8.923H13.334V11.667a.834.834,0,0,0-.833-.833h-5a.834.834,0,0,0-.833.833v6.667H3.751V8.262L10,2.012l6.25,6.25Z" transform="translate(-0.001 0)"/>
      </g>
    </g>
  </g>
</svg>
