<svg xmlns="http://www.w3.org/2000/svg" width="24" height="24" viewBox="0 0 24 24" xmlns:xlink="http://www.w3.org/1999/xlink">
  <defs>
    <path id="a" d="M12.8000156,14.7999375 C12.8000156,14.1383437 12.2616094,13.5999375 11.6000156,13.5999375 C10.9384219,13.5999375 10.4000156,14.1383437 10.4000156,14.7999375 C10.4000156,15.3207187 10.7352187,15.7603594 11.2000312,15.9263437 L11.2000312,16.7999531 C11.2000312,19.0055625 12.9944531,20.7999375 15.2000156,20.7999375 C17.4055781,20.7999375 19.2,19.0055625 19.2,16.7999531 L19.2,15.9263437 C19.6648125,15.7607344 20.0000156,15.3207656 20.0000156,14.7999375 C20.0000156,14.1383437 19.4616094,13.5999375 18.8000156,13.5999375 C18.1384219,13.5999375 17.6000156,14.1383437 17.6000156,14.7999375 C17.6000156,15.3207187 17.9352187,15.7603594 18.4000312,15.9263437 L18.4000312,16.7999531 C18.4000312,18.564375 16.9644375,19.9999687 15.2000156,19.9999687 C13.4355937,19.9999687 12,18.564375 12,16.7999531 L12,15.9263437 C12.4648125,15.7607344 12.8000156,15.3207656 12.8000156,14.7999375 Z M18.8000156,14.3999531 C19.0204219,14.3999531 19.2,14.5795312 19.2,14.7999375 C19.2,15.0203437 19.0207969,15.1995469 18.8003906,15.1999219 L18.8000156,15.1999219 L18.7995937,15.1999219 C18.5791875,15.1995 18.3999844,15.0203437 18.3999844,14.7999375 C18.3999844,14.5795312 18.5796094,14.3999531 18.8000156,14.3999531 Z M11.6003906,15.1999687 L11.5999687,15.1999687 L11.5995469,15.1999687 C11.3791406,15.1995469 11.1999375,15.0203906 11.1999375,14.7999844 C11.1999375,14.5795781 11.3795156,14.4 11.5999219,14.4 C11.8203281,14.4 11.9999062,14.5795781 11.9999062,14.7999844 C11.9999062,15.0203906 11.8207969,15.1995469 11.6003906,15.1999687 Z M4.40001562,9.59995312 C3.73842187,9.59995312 3.20001562,9.06154687 3.19996875,8.4 C3.19996875,7.87917187 3.53517187,7.43920312 3.99998437,7.27359375 L3.99998437,4.8 C3.99998437,2.15320312 6.1531875,0 8.79998437,0 C11.4467812,0 13.5999844,2.15320312 13.5999844,4.8 L17.1999844,4.8 C17.4207656,4.8 17.5999687,4.97878125 17.5999687,5.19998437 C17.5999687,5.20279687 17.598375,5.2051875 17.598375,5.208 C17.598375,5.2111875 17.5999687,5.21357812 17.5999687,5.21639062 L17.5999687,9.99998437 C17.5999687,10.2207656 17.4207656,10.3999687 17.1999844,10.3999687 C16.9792031,10.3999687 16.8,10.2207656 16.8,9.99998437 L16.8,5.59996875 L13.5999844,5.59996875 L13.5999844,7.27354687 C14.0647969,7.43915625 14.4,7.87917187 14.4,8.39995312 C14.4,9.06154687 13.8615937,9.59995312 13.2,9.59995312 C12.5384062,9.59995312 12,9.06154687 12,8.39995312 C12,7.87917187 12.3352031,7.43915625 12.7999687,7.27359375 L12.7999687,4.8 C12.7999687,2.5944375 11.0055469,0.800015625 8.79998437,0.800015625 C6.59442187,0.800015625 4.8,2.59439062 4.8,4.8 L11.6000156,4.8 C11.8207969,4.8 12,4.97878125 12,5.19998437 C12,5.42076562 11.8207969,5.59996875 11.6000156,5.59996875 L4.8,5.59996875 L4.8,7.27354687 C5.2648125,7.43915625 5.60001562,7.87917187 5.60001562,8.39995312 C5.60001562,9.06154687 5.06160937,9.59995312 4.40001562,9.59995312 Z M13.2,7.99996875 C12.9795938,7.99996875 12.8000156,8.17954687 12.8000156,8.39995312 C12.8000156,8.62035937 12.9795938,8.7999375 13.2,8.7999375 C13.4204063,8.7999375 13.5999844,8.62035937 13.5999844,8.39995312 C13.5999844,8.17954687 13.4204063,7.99996875 13.2,7.99996875 Z M4.40001562,7.99996875 C4.17960937,7.99996875 3.99998437,8.17954687 4.00003125,8.39995312 C4.00003125,8.62035937 4.17960937,8.7999375 4.40001562,8.7999375 C4.62042187,8.7999375 4.8,8.62035937 4.8,8.39995312 C4.8,8.17954687 4.62042187,7.99996875 4.40001562,7.99996875 Z M5.60001562,23.2083159 C5.82079687,23.2083159 6,23.3852817 6,23.6041812 C6,23.8226631 5.82079687,24 5.60001562,24 L2.00001562,24 C0.8971875,24 0,23.1117386 0,22.0208594 L0,5.39581884 C0,5.17691938 0.179203125,5 0.399984375,5 L2.783625,5 C3.00440625,5 3.18360937,5.17691938 3.18360937,5.39581884 C3.18360937,5.61430082 3.00440625,5.79163767 2.783625,5.79163767 L0.800015625,5.79163767 L0.800015625,18.4583507 L5.20003125,18.4583507 C5.4208125,18.4583507 5.60001562,18.6352701 5.60001562,18.8541696 C5.60001562,19.0726515 5.4208125,19.2499884 5.20003125,19.2499884 L0.800015625,19.2499884 L0.800015625,22.020813 C0.800015625,22.6755168 1.33842187,23.2083159 2.00001562,23.2083159 L5.60001562,23.2083159 Z M23.8703211,11.1292059 C23.949279,11.2031399 24,11.3063047 24,11.4229423 L24,21.9686964 C24,23.0883223 23.0824202,23.9999524 21.9545738,24 L8.04547416,24 C6.91757975,24 6,23.0883699 6,21.968744 L6,11.4062798 C6,11.1820499 6.18327625,11.0000476 6.40907566,11.0000476 C6.63487506,11.0000476 6.81815131,11.1820499 6.81815131,11.4062798 L6.81815131,21.9686488 C6.81815131,22.6405767 7.36879504,23.1873929 8.04542622,23.1873929 L21.9545258,23.1873929 C22.631157,23.1873929 23.1818007,22.6405767 23.1818007,21.9686488 L23.1818007,11.8124643 L8.04542622,11.8124643 C7.81962681,11.8124643 7.63635056,11.630462 7.63635056,11.4062321 C7.63635056,11.1815738 7.81962681,11 8.04542622,11 L23.5741452,11 C23.6915513,11 23.7958697,11.0503684 23.8703211,11.1292059 Z"/>
  </defs>
  <g fill="none" fill-rule="evenodd">
    <mask id="b" fill="white">
      <use xlink:href="#a"/>
    </mask>
    <rect width="24" height="24" fill="#E0CC9D" mask="url(#b)"/>
  </g>
</svg>
