<svg xmlns="http://www.w3.org/2000/svg" xmlns:xlink="http://www.w3.org/1999/xlink" width="24" height="24" viewBox="0 0 24 24">
    <defs>
        <path id="a" d="M13.794 16.68a2.803 2.803 0 0 1-1.785.633 2.838 2.838 0 0 1-1.805-.645c-3.235-2.65-5.294-4.055-5.401-6.938-.113-3.05 3.325-4.166 5.433-1.659a2.285 2.285 0 0 0 1.759.797c.697 0 1.342-.294 1.77-.807 2.062-2.466 5.591-1.416 5.43 1.758-.144 2.824-2.282 4.282-5.401 6.861m-1.446-9.659a.459.459 0 0 1-.353.16.449.449 0 0 1-.345-.154C8.46 3.235 2.83 5.123 3.004 9.789c.138 3.713 2.845 5.553 6.032 8.164A4.688 4.688 0 0 0 12.01 19c1.063 0 2.125-.35 2.975-1.054 3.153-2.607 5.826-4.435 6.008-8.047.243-4.77-5.463-6.685-8.644-2.878"/>
    </defs>
    <g fill="none" fill-rule="evenodd">
        <mask id="b" fill="#fff">
            <use xlink:href="#a"/>
        </mask>
        <use fill="#5B96FC" xlink:href="#a"/>
        <g fill="#082834" mask="url(#b)">
            <path d="M0 0h24v24H0z"/>
        </g>
    </g>
</svg>
