<svg xmlns="http://www.w3.org/2000/svg" viewBox="0 0 20.066 20">
  <defs>
    <style>
      .cls-1 {
        fill: #1d1d1d;
      }
    </style>
  </defs>
  <g id="menu_ingresar" transform="translate(20.066 20.85) rotate(180)">
    <g id="Group_494" data-name="Group 494" transform="translate(0 0.85)">
      <g id="Group_493" data-name="Group 493" transform="translate(0 0)">
        <path id="Path_674" data-name="Path 674" class="cls-1" d="M10,19.183H2.5a.834.834,0,0,1-.833-.833v-15A.834.834,0,0,1,2.5,2.517H10A.833.833,0,0,0,10,.85H2.5A2.5,2.5,0,0,0,0,3.35v15a2.5,2.5,0,0,0,2.5,2.5H10a.833.833,0,1,0,0-1.667Z" transform="translate(0 -0.85)"/>
      </g>
    </g>
    <g id="Group_496" data-name="Group 496" transform="translate(20.066 16.683) rotate(180)">
      <g id="Group_495" data-name="Group 495">
        <path id="Path_675" data-name="Path 675" class="cls-1" d="M183.252,112.4l-5.067-5a.833.833,0,1,0-1.17,1.187l3.621,3.573h-9.7a.833.833,0,0,0,0,1.667h9.7l-3.621,3.573a.833.833,0,1,0,1.17,1.187l5.067-5a.833.833,0,0,0,0-1.187Z" transform="translate(-170.1 -107.165)"/>
      </g>
    </g>
  </g>
</svg>
