<svg xmlns="http://www.w3.org/2000/svg" viewBox="0 0 16.198 20">
  <defs>
    <style>
      .cls-1 {
        fill: #aaaeb7;
      }
    </style>
  </defs>
  <g id="perfil_politicas" transform="translate(-0.5 0.001)">
    <path id="Path_663" data-name="Path 663" class="cls-1" d="M16.083,8.539A1.975,1.975,0,0,0,14.226,8.2a1.707,1.707,0,0,0-.454.237,12.458,12.458,0,0,0-1.736,1.788V4.347a1.89,1.89,0,0,0-.563-1.339,1.816,1.816,0,0,0-1.944-.4V2.032A2.057,2.057,0,0,0,8.917.574,1.969,1.969,0,0,0,7.491,0,2.013,2.013,0,0,0,5.523,1.943a1.931,1.931,0,0,0-.741-.171,2.039,2.039,0,0,0-1.471.575,1.925,1.925,0,0,0-.6,1.388v.556A1.686,1.686,0,0,0,.5,5.892v8.579a7.568,7.568,0,0,0,.7,2.852,4.438,4.438,0,0,0,1.5,1.732A7.076,7.076,0,0,0,6.678,20a6.278,6.278,0,0,0,5.537-3.059c.129-.208.469-.742.836-1.319s.69-1.079.983-1.535l.435-.678c.474-.741.979-1.46,1.5-2.137.194-.251.253-.319.267-.334a1.734,1.734,0,0,0,.446-.945A1.583,1.583,0,0,0,16.083,8.539Zm-.562,1.3a.568.568,0,0,1-.148.308c-.043.047-.119.135-.331.409-.544.7-1.069,1.451-1.562,2.222l-.434.676c-.294.457-.627.976-.985,1.539-.376.59-.723,1.136-.85,1.342l-.013.023a5.1,5.1,0,0,1-4.519,2.47,6.029,6.029,0,0,1-3.327-.745c-1-.674-1.55-1.874-1.678-3.671V5.892a.514.514,0,0,1,1.028,0v3.2c0,.009,0,.019,0,.028s0,.021,0,.031,0,.018,0,.027,0,.021,0,.031,0,.018.007.027,0,.02.007.029.006.018.01.027.006.018.01.027.008.017.012.026l.012.026.015.024.015.024.017.023.017.023.019.021.019.021.02.018.021.019.022.016.023.017.023.014.025.016.024.012.027.013.026.01.028.01.028.007.029.007.029,0,.029,0,.03,0,.029,0h0a.6.6,0,0,0,.06,0l.025,0,.033-.005.033-.008.023-.006L3.5,9.635l.018-.007.035-.017L3.567,9.6,3.6,9.585l.017-.011.027-.02.018-.013.024-.022L3.7,9.5l.021-.023.017-.019.017-.023.016-.022.015-.024L3.8,9.368l.012-.025.013-.026c0-.009.006-.018.01-.026s.007-.018.01-.028,0-.018.007-.027.005-.019.007-.029,0-.019,0-.028,0-.02,0-.03,0-.019,0-.029,0-.02,0-.03l.014-5.353a.763.763,0,0,1,.241-.547.858.858,0,0,1,.619-.244.813.813,0,0,1,.768.822l.007,5.29c0,.011,0,.021,0,.031s0,.019,0,.028,0,.022,0,.032,0,.018,0,.026.006.023.009.034,0,.015.006.022.009.024.013.036,0,.012.006.018.012.025.018.037l.007.014c.007.013.015.025.022.037l.007.012c.008.012.017.023.026.035l.008.011c.01.012.021.023.031.034l.006.007c.011.011.023.022.035.032l.007.006.037.028.008.006.04.024.009.005.043.021.008,0,.046.017.008,0,.047.012.009,0a.591.591,0,0,0,.118.012h0l.03,0,.029,0,.031,0,.027,0,.031-.008.025-.007L6.314,9.6,6.337,9.6l.031-.015.02-.01.029-.018.019-.012.027-.02.018-.014.024-.022.017-.016.022-.024.016-.018L6.58,9.4,6.6,9.384c.005-.008.01-.017.015-.025l.014-.023c0-.008.008-.017.012-.026s.009-.017.012-.026.006-.017.009-.026.007-.018.01-.028,0-.018.007-.028.005-.019.007-.028,0-.02,0-.029,0-.019,0-.029,0-.02,0-.03,0-.02,0-.03V2a.835.835,0,0,1,.816-.831.81.81,0,0,1,.583.238.877.877,0,0,1,.262.621V9.088c0,.011,0,.021,0,.032s0,.019,0,.028,0,.02,0,.031,0,.019,0,.028.005.02.008.03,0,.017.007.026.008.021.012.032.005.015.008.022.01.022.016.032l.009.019c.006.011.013.021.019.031l.01.017.023.03.011.015c.009.011.018.02.027.03l.011.011c.01.01.02.019.03.028l.011.01.036.027.009.007.041.025.007,0,.047.023,0,0,.051.019h0a.582.582,0,0,0,.114.023h0a.6.6,0,0,0,.06,0h0l.031,0,.029,0,.032,0,.026,0L9.1,9.654l.023-.006.035-.013.019-.007.034-.017L9.223,9.6l.033-.02.016-.01L9.3,9.55l.014-.01.03-.027L9.358,9.5l.027-.03L9.4,9.461c.008-.01.016-.021.024-.032l.01-.013c.007-.011.014-.022.02-.033l.009-.015c.006-.011.011-.023.017-.035l.008-.016c0-.011.009-.023.013-.035s0-.012.007-.019.006-.023.009-.034,0-.014.005-.022,0-.023.005-.034,0-.016,0-.024,0-.022,0-.033,0-.018,0-.027V4.246a.672.672,0,0,1,.652-.592.651.651,0,0,1,.469.192.709.709,0,0,1,.212.5V11.3a.833.833,0,0,0,1.553.414l0-.007a11.319,11.319,0,0,1,2.048-2.327A.532.532,0,0,1,14.61,9.3a.789.789,0,0,1,.73.143A.433.433,0,0,1,15.521,9.837Zm0,0" transform="translate(0 0)"/>
  </g>
</svg>
