<svg xmlns="http://www.w3.org/2000/svg" xmlns:xlink="http://www.w3.org/1999/xlink" width="24" height="24" viewBox="0 0 24 24">
    <defs>
        <path id="a" d="M16.597 13.792l-4.428-.392-.008-4.975c0-.349-.3-.987-1.03-.987-.565 0-1.029.442-1.029.987v8.378l-.854-1.175a1.036 1.036 0 0 0-1.544-.13.947.947 0 0 0-.114 1.244l2.214 3.955c.192.267.507.303.845.303h4.958c.979 0 1.82-.54 2.012-1.462l.34-3.55c.204-.975-.38-1.881-1.362-2.196m-9.571-3.395c-.567 0-1.026-.44-1.026-.986V8.178c0-6.904 10.255-6.904 10.255 0v1.233c0 .545-.459.986-1.025.986-.566 0-1.026-.44-1.026-.986V8.178c0-3.945-6.153-3.945-6.153 0v1.233c0 .545-.46.986-1.025.986"/>
    </defs>
    <g fill="none" fill-rule="evenodd">
        <mask id="b" fill="#fff">
            <use xlink:href="#a"/>
        </mask>
        <use fill="#212121" xlink:href="#a"/>
        <g fill="#082834" mask="url(#b)">
            <path d="M0 0h24v24H0z"/>
        </g>
    </g>
</svg>
